<svg width="79" height="19" viewBox="0 0 79 19" fill="none" xmlns="http://www.w3.org/2000/svg">
<path d="M0.84 15C0.706667 15 0.64 14.9333 0.64 14.8V1.2C0.64 1.06667 0.706667 0.999999 0.84 0.999999H2.36C2.49333 0.999999 2.56 1.06667 2.56 1.2V14.8C2.56 14.9333 2.49333 15 2.36 15H0.84ZM16.1753 4.68C17.1886 4.68 17.9886 4.98667 18.5753 5.6C19.162 6.2 19.4553 7.04 19.4553 8.12V14.8C19.4553 14.9333 19.3886 15 19.2553 15H17.7553C17.622 15 17.5553 14.9333 17.5553 14.8V8.52C17.5553 7.85333 17.3686 7.32667 16.9953 6.94C16.6353 6.54 16.1486 6.34 15.5353 6.34C14.922 6.34 14.422 6.53333 14.0353 6.92C13.6486 7.30667 13.4553 7.82667 13.4553 8.48V14.8C13.4553 14.9333 13.3886 15 13.2553 15H11.7553C11.622 15 11.5553 14.9333 11.5553 14.8V8.52C11.5553 7.85333 11.3686 7.32667 10.9953 6.94C10.6353 6.54 10.1486 6.34 9.53531 6.34C8.92198 6.34 8.42865 6.53333 8.05531 6.92C7.69531 7.30667 7.51531 7.82667 7.51531 8.48V14.8C7.51531 14.9333 7.44865 15 7.31531 15H5.79531C5.66198 15 5.59531 14.9333 5.59531 14.8V5.02C5.59531 4.88667 5.66198 4.82 5.79531 4.82H7.31531C7.44865 4.82 7.51531 4.88667 7.51531 5.02V5.7C7.51531 5.72667 7.52198 5.74667 7.53531 5.76C7.56198 5.77333 7.58865 5.76667 7.61531 5.74C8.20198 5.03333 9.05531 4.68 10.1753 4.68C10.8553 4.68 11.4353 4.81333 11.9153 5.08C12.3953 5.33333 12.7686 5.71333 13.0353 6.22C13.0753 6.27333 13.1153 6.27333 13.1553 6.22C13.4753 5.7 13.8953 5.31333 14.4153 5.06C14.9486 4.80667 15.5353 4.68 16.1753 4.68ZM30.3788 7.38C30.6321 8.1 30.7588 8.95333 30.7588 9.94C30.7588 10.8733 30.6521 11.68 30.4388 12.36C30.1588 13.2533 29.6988 13.9467 29.0588 14.44C28.4188 14.92 27.5988 15.16 26.5987 15.16C26.1454 15.16 25.7121 15.0733 25.2988 14.9C24.8988 14.7133 24.5521 14.4533 24.2588 14.12C24.2321 14.0933 24.2054 14.0867 24.1788 14.1C24.1654 14.1133 24.1588 14.1333 24.1588 14.16V18.62C24.1588 18.7533 24.0921 18.82 23.9588 18.82H22.4388C22.3054 18.82 22.2388 18.7533 22.2388 18.62V5.02C22.2388 4.88667 22.3054 4.82 22.4388 4.82H23.9588C24.0921 4.82 24.1588 4.88667 24.1588 5.02V5.68C24.1588 5.70667 24.1654 5.72667 24.1788 5.74C24.2054 5.75333 24.2321 5.74667 24.2588 5.72C24.5521 5.38667 24.8988 5.12667 25.2988 4.94C25.6988 4.75333 26.1321 4.66 26.5987 4.66C27.5588 4.66 28.3521 4.9 28.9788 5.38C29.6188 5.84667 30.0854 6.51333 30.3788 7.38ZM28.1788 12.54C28.6054 11.9 28.8188 11.02 28.8188 9.9C28.8188 8.87333 28.6521 8.04667 28.3188 7.42C27.9321 6.68667 27.2988 6.32 26.4188 6.32C25.6454 6.32 25.0588 6.68 24.6588 7.4C24.3388 7.97333 24.1788 8.81333 24.1788 9.92C24.1788 11.04 24.3521 11.8933 24.6988 12.48C25.0854 13.16 25.6521 13.5 26.3988 13.5C27.1988 13.5 27.7921 13.18 28.1788 12.54ZM36.9911 4.66C37.8044 4.66 38.5111 4.80667 39.1111 5.1C39.7244 5.38 40.1911 5.78 40.5111 6.3C40.8444 6.80667 41.0111 7.38667 41.0111 8.04V14.8C41.0111 14.9333 40.9444 15 40.8111 15H39.2911C39.1578 15 39.0911 14.9333 39.0911 14.8V14.08C39.0911 14.0133 39.0578 14 38.9911 14.04C38.6444 14.4 38.2178 14.68 37.7111 14.88C37.2178 15.0667 36.6644 15.16 36.0511 15.16C35.0644 15.16 34.2444 14.9133 33.5911 14.42C32.9511 13.9133 32.6311 13.1533 32.6311 12.14C32.6311 11.1 32.9911 10.2867 33.7111 9.7C34.4444 9.1 35.4644 8.8 36.7711 8.8H39.0111C39.0644 8.8 39.0911 8.77333 39.0911 8.72V8.18C39.0911 7.59333 38.9178 7.14 38.5711 6.82C38.2378 6.48667 37.7244 6.32 37.0311 6.32C36.4711 6.32 36.0111 6.43333 35.6511 6.66C35.3044 6.87333 35.0911 7.16667 35.0111 7.54C34.9711 7.67333 34.8911 7.73333 34.7711 7.72L33.1511 7.5C33.0178 7.47333 32.9578 7.42 32.9711 7.34C33.0778 6.55333 33.4978 5.91333 34.2311 5.42C34.9644 4.91333 35.8844 4.66 36.9911 4.66ZM36.4711 13.54C37.1778 13.54 37.7911 13.3533 38.3111 12.98C38.8311 12.6067 39.0911 12.1333 39.0911 11.56V10.38C39.0911 10.3267 39.0644 10.3 39.0111 10.3H37.1311C36.3444 10.3 35.7178 10.4533 35.2511 10.76C34.7844 11.0667 34.5511 11.4933 34.5511 12.04C34.5511 12.5333 34.7244 12.9067 35.0711 13.16C35.4311 13.4133 35.8978 13.54 36.4711 13.54ZM48.0631 4.72C48.4898 4.72 48.8765 4.80667 49.2231 4.98C49.3165 5.02 49.3498 5.1 49.3231 5.22L49.0031 6.72C48.9898 6.84 48.9098 6.88 48.7631 6.84C48.5365 6.74667 48.2698 6.7 47.9631 6.7L47.6831 6.72C47.0565 6.74667 46.5365 6.96667 46.1231 7.38C45.7231 7.78 45.5231 8.30667 45.5231 8.96V14.8C45.5231 14.9333 45.4565 15 45.3231 15H43.8031C43.6698 15 43.6031 14.9333 43.6031 14.8V5.02C43.6031 4.88667 43.6698 4.82 43.8031 4.82H45.3231C45.4565 4.82 45.5231 4.88667 45.5231 5.02V6.08C45.5231 6.12 45.5298 6.14667 45.5431 6.16C45.5698 6.16 45.5898 6.14667 45.6031 6.12C46.2031 5.18667 47.0231 4.72 48.0631 4.72ZM54.9488 15.16C53.9354 15.16 53.0688 14.9067 52.3488 14.4C51.6288 13.88 51.1354 13.18 50.8688 12.3C50.6688 11.6867 50.5688 10.88 50.5688 9.88C50.5688 8.96 50.6688 8.15333 50.8688 7.46C51.1354 6.60667 51.6288 5.92667 52.3488 5.42C53.0821 4.91333 53.9488 4.66 54.9488 4.66C55.9488 4.66 56.8221 4.91333 57.5688 5.42C58.3154 5.92667 58.8021 6.56667 59.0288 7.34C59.1088 7.55333 59.1621 7.77333 59.1888 8C59.1888 8.10667 59.1288 8.17333 59.0088 8.2L57.5088 8.42H57.4688C57.3754 8.42 57.3088 8.36 57.2688 8.24L57.2088 7.92C57.1021 7.46667 56.8421 7.08667 56.4288 6.78C56.0154 6.47333 55.5154 6.32 54.9288 6.32C54.3554 6.32 53.8688 6.47333 53.4688 6.78C53.0688 7.08667 52.8088 7.49333 52.6888 8C52.5688 8.48 52.5088 9.11333 52.5088 9.9C52.5088 10.6733 52.5688 11.3 52.6888 11.78C52.8221 12.3133 53.0821 12.7333 53.4688 13.04C53.8688 13.3467 54.3554 13.5 54.9288 13.5C55.5154 13.5 56.0154 13.3467 56.4288 13.04C56.8554 12.7333 57.1221 12.3333 57.2288 11.84C57.2421 11.8267 57.2421 11.8133 57.2288 11.8C57.2288 11.7733 57.2354 11.7533 57.2488 11.74V11.66C57.2888 11.5533 57.3621 11.5133 57.4688 11.54L58.9688 11.78C59.0754 11.8067 59.1288 11.86 59.1288 11.94V12.02C59.1288 12.14 59.0954 12.2867 59.0288 12.46C58.8021 13.2733 58.3154 13.9267 57.5688 14.42C56.8221 14.9133 55.9488 15.16 54.9488 15.16ZM62.5561 3.22C62.1828 3.22 61.8761 3.1 61.6361 2.86C61.3961 2.62 61.2761 2.31333 61.2761 1.94C61.2761 1.56667 61.3961 1.26 61.6361 1.02C61.8761 0.779999 62.1828 0.66 62.5561 0.66C62.9294 0.66 63.2361 0.779999 63.4761 1.02C63.7161 1.26 63.8361 1.56667 63.8361 1.94C63.8361 2.31333 63.7161 2.62 63.4761 2.86C63.2361 3.1 62.9294 3.22 62.5561 3.22ZM61.7561 14.98C61.6228 14.98 61.5561 14.9133 61.5561 14.78V5.02C61.5561 4.88667 61.6228 4.82 61.7561 4.82H63.2761C63.4094 4.82 63.4761 4.88667 63.4761 5.02V14.78C63.4761 14.9133 63.4094 14.98 63.2761 14.98H61.7561ZM70.2138 4.66C71.0271 4.66 71.7338 4.80667 72.3338 5.1C72.9471 5.38 73.4138 5.78 73.7338 6.3C74.0671 6.80667 74.2338 7.38667 74.2338 8.04V14.8C74.2338 14.9333 74.1671 15 74.0338 15H72.5138C72.3804 15 72.3138 14.9333 72.3138 14.8V14.08C72.3138 14.0133 72.2804 14 72.2138 14.04C71.8671 14.4 71.4404 14.68 70.9338 14.88C70.4404 15.0667 69.8871 15.16 69.2738 15.16C68.2871 15.16 67.4671 14.9133 66.8138 14.42C66.1738 13.9133 65.8538 13.1533 65.8538 12.14C65.8538 11.1 66.2138 10.2867 66.9338 9.7C67.6671 9.1 68.6871 8.8 69.9938 8.8H72.2338C72.2871 8.8 72.3138 8.77333 72.3138 8.72V8.18C72.3138 7.59333 72.1404 7.14 71.7938 6.82C71.4604 6.48667 70.9471 6.32 70.2538 6.32C69.6938 6.32 69.2338 6.43333 68.8738 6.66C68.5271 6.87333 68.3138 7.16667 68.2338 7.54C68.1938 7.67333 68.1138 7.73333 67.9938 7.72L66.3738 7.5C66.2404 7.47333 66.1804 7.42 66.1938 7.34C66.3004 6.55333 66.7204 5.91333 67.4538 5.42C68.1871 4.91333 69.1071 4.66 70.2138 4.66ZM69.6938 13.54C70.4004 13.54 71.0138 13.3533 71.5338 12.98C72.0538 12.6067 72.3138 12.1333 72.3138 11.56V10.38C72.3138 10.3267 72.2871 10.3 72.2338 10.3H70.3538C69.5671 10.3 68.9404 10.4533 68.4738 10.76C68.0071 11.0667 67.7738 11.4933 67.7738 12.04C67.7738 12.5333 67.9471 12.9067 68.2938 13.16C68.6538 13.4133 69.1204 13.54 69.6938 13.54ZM77.0258 15C76.8924 15 76.8258 14.9333 76.8258 14.8V1.2C76.8258 1.06667 76.8924 0.999999 77.0258 0.999999H78.5458C78.6791 0.999999 78.7458 1.06667 78.7458 1.2V14.8C78.7458 14.9333 78.6791 15 78.5458 15H77.0258Z" fill="white"/>
</svg>
