<svg width="231" height="20" viewBox="0 0 231 20" fill="none" xmlns="http://www.w3.org/2000/svg">
<path d="M9.7 1.12C9.76667 1.04 9.84667 0.999999 9.94 0.999999H11.46C11.5933 0.999999 11.66 1.06667 11.66 1.2V14.8C11.66 14.9333 11.5933 15 11.46 15H9.94C9.80667 15 9.74 14.9333 9.74 14.8V4.56C9.74 4.52 9.72667 4.49333 9.7 4.48C9.67333 4.46667 9.65333 4.48 9.64 4.52L6.78 8.88C6.72667 8.96 6.64667 9 6.54 9H5.78C5.68667 9 5.60667 8.96 5.54 8.88L2.66 4.56C2.64667 4.52 2.62667 4.50667 2.6 4.52C2.57333 4.53333 2.56 4.56 2.56 4.6V14.8C2.56 14.9333 2.49333 15 2.36 15H0.84C0.706667 15 0.64 14.9333 0.64 14.8V1.2C0.64 1.06667 0.706667 0.999999 0.84 0.999999H2.36C2.46667 0.999999 2.54667 1.04 2.6 1.12L6.1 6.36C6.11333 6.37333 6.13333 6.38 6.16 6.38C6.18667 6.38 6.20667 6.37333 6.22 6.36L9.7 1.12ZM22.9369 8.64C22.9902 9.18667 23.0102 9.8 22.9969 10.48C22.9969 10.6133 22.9302 10.68 22.7969 10.68H16.4169C16.3635 10.68 16.3369 10.7067 16.3369 10.76C16.3369 11.2133 16.3769 11.56 16.4569 11.8C16.6035 12.3333 16.8969 12.7533 17.3369 13.06C17.7902 13.3533 18.3569 13.5 19.0369 13.5C20.0235 13.5 20.7835 13.0933 21.3169 12.28C21.3835 12.1467 21.4702 12.1267 21.5769 12.22L22.7169 12.98C22.8102 13.06 22.8302 13.1467 22.7769 13.24C22.4035 13.84 21.8702 14.3133 21.1769 14.66C20.4969 15.0067 19.7235 15.18 18.8569 15.18C17.8835 15.18 17.0635 14.9667 16.3969 14.54C15.7302 14.1133 15.2302 13.5067 14.8969 12.72C14.5769 11.9333 14.4169 10.98 14.4169 9.86C14.4169 8.88667 14.4902 8.14667 14.6369 7.64C14.8769 6.72 15.3569 5.99333 16.0769 5.46C16.7969 4.92667 17.6702 4.66 18.6969 4.66C20.0435 4.66 21.0502 5 21.7169 5.68C22.3835 6.34667 22.7902 7.33333 22.9369 8.64ZM18.6969 6.32C18.1235 6.32 17.6502 6.46667 17.2769 6.76C16.9035 7.04 16.6502 7.42 16.5169 7.9C16.4235 8.19333 16.3635 8.56667 16.3369 9.02C16.3369 9.07333 16.3635 9.1 16.4169 9.1H20.9969C21.0502 9.1 21.0769 9.07333 21.0769 9.02C21.0502 8.58 21.0102 8.25333 20.9569 8.04C20.8235 7.52 20.5569 7.10667 20.1569 6.8C19.7702 6.48 19.2835 6.32 18.6969 6.32ZM26.4395 3.22C26.0662 3.22 25.7595 3.1 25.5195 2.86C25.2795 2.62 25.1595 2.31333 25.1595 1.94C25.1595 1.56667 25.2795 1.26 25.5195 1.02C25.7595 0.779999 26.0662 0.66 26.4395 0.66C26.8262 0.66 27.1329 0.779999 27.3595 1.02C27.5995 1.24667 27.7195 1.55333 27.7195 1.94C27.7195 2.31333 27.5995 2.62 27.3595 2.86C27.1195 3.1 26.8129 3.22 26.4395 3.22ZM23.3395 19.14C23.2062 19.14 23.1395 19.0733 23.1395 18.94V17.7C23.1395 17.5667 23.2062 17.5 23.3395 17.5C24.0995 17.5 24.6462 17.3467 24.9795 17.04C25.3262 16.7333 25.4995 16.2467 25.4995 15.58L25.4795 5.02C25.4795 4.88667 25.5462 4.82 25.6795 4.82H27.1995C27.3329 4.82 27.3995 4.88667 27.3995 5.02V15.56C27.3995 16.44 27.2662 17.14 26.9995 17.66C26.7329 18.18 26.3062 18.56 25.7195 18.8C25.1329 19.04 24.3395 19.1533 23.3395 19.14ZM34.5405 15.16C33.5538 15.16 32.6938 14.9133 31.9605 14.42C31.2271 13.9133 30.7138 13.2133 30.4205 12.32C30.1805 11.6 30.0605 10.7867 30.0605 9.88C30.0605 8.93333 30.1738 8.13333 30.4005 7.48C30.6938 6.6 31.2071 5.91333 31.9405 5.42C32.6738 4.91333 33.5471 4.66 34.5605 4.66C35.5205 4.66 36.3538 4.91333 37.0605 5.42C37.7805 5.91333 38.2938 6.59333 38.6005 7.46C38.8405 8.14 38.9605 8.94 38.9605 9.86C38.9605 10.7933 38.8405 11.6133 38.6005 12.32C38.3071 13.2133 37.8005 13.9133 37.0805 14.42C36.3605 14.9133 35.5138 15.16 34.5405 15.16ZM34.5405 13.5C35.0738 13.5 35.5405 13.3533 35.9405 13.06C36.3405 12.7533 36.6271 12.3267 36.8005 11.78C36.9471 11.2733 37.0205 10.6467 37.0205 9.9C37.0205 9.15333 36.9538 8.53333 36.8205 8.04C36.6471 7.49333 36.3605 7.07333 35.9605 6.78C35.5605 6.47333 35.0738 6.32 34.5005 6.32C33.9538 6.32 33.4805 6.47333 33.0805 6.78C32.6805 7.07333 32.3938 7.49333 32.2205 8.04C32.0738 8.50667 32.0005 9.12667 32.0005 9.9C32.0005 10.6733 32.0738 11.3 32.2205 11.78C32.3805 12.3267 32.6605 12.7533 33.0605 13.06C33.4738 13.3533 33.9671 13.5 34.5405 13.5ZM45.9342 4.72C46.3609 4.72 46.7476 4.80667 47.0942 4.98C47.1876 5.02 47.2209 5.1 47.1942 5.22L46.8742 6.72C46.8609 6.84 46.7809 6.88 46.6342 6.84C46.4076 6.74667 46.1409 6.7 45.8342 6.7L45.5542 6.72C44.9276 6.74667 44.4076 6.96667 43.9942 7.38C43.5942 7.78 43.3942 8.30667 43.3942 8.96V14.8C43.3942 14.9333 43.3276 15 43.1942 15H41.6742C41.5409 15 41.4742 14.9333 41.4742 14.8V5.02C41.4742 4.88667 41.5409 4.82 41.6742 4.82H43.1942C43.3276 4.82 43.3942 4.88667 43.3942 5.02V6.08C43.3942 6.12 43.4009 6.14667 43.4142 6.16C43.4409 6.16 43.4609 6.14667 43.4742 6.12C44.0742 5.18667 44.8942 4.72 45.9342 4.72ZM56.9798 8.64C57.0332 9.18667 57.0532 9.8 57.0398 10.48C57.0398 10.6133 56.9732 10.68 56.8398 10.68H50.4598C50.4065 10.68 50.3798 10.7067 50.3798 10.76C50.3798 11.2133 50.4198 11.56 50.4998 11.8C50.6465 12.3333 50.9398 12.7533 51.3798 13.06C51.8332 13.3533 52.3998 13.5 53.0798 13.5C54.0665 13.5 54.8265 13.0933 55.3598 12.28C55.4265 12.1467 55.5132 12.1267 55.6198 12.22L56.7598 12.98C56.8532 13.06 56.8732 13.1467 56.8198 13.24C56.4465 13.84 55.9132 14.3133 55.2198 14.66C54.5398 15.0067 53.7665 15.18 52.8998 15.18C51.9265 15.18 51.1065 14.9667 50.4398 14.54C49.7732 14.1133 49.2732 13.5067 48.9398 12.72C48.6198 11.9333 48.4598 10.98 48.4598 9.86C48.4598 8.88667 48.5332 8.14667 48.6798 7.64C48.9198 6.72 49.3998 5.99333 50.1198 5.46C50.8398 4.92667 51.7132 4.66 52.7398 4.66C54.0865 4.66 55.0932 5 55.7598 5.68C56.4265 6.34667 56.8332 7.33333 56.9798 8.64ZM52.7398 6.32C52.1665 6.32 51.6932 6.46667 51.3198 6.76C50.9465 7.04 50.6932 7.42 50.5598 7.9C50.4665 8.19333 50.4065 8.56667 50.3798 9.02C50.3798 9.07333 50.4065 9.1 50.4598 9.1H55.0398C55.0932 9.1 55.1198 9.07333 55.1198 9.02C55.0932 8.58 55.0532 8.25333 54.9998 8.04C54.8665 7.52 54.5998 7.10667 54.1998 6.8C53.8132 6.48 53.3265 6.32 52.7398 6.32ZM62.8863 15.12C62.0863 15.12 61.3796 15 60.7663 14.76C60.1663 14.52 59.6996 14.1933 59.3663 13.78C59.0329 13.3533 58.8663 12.8867 58.8663 12.38V12.16C58.8663 12.0267 58.9329 11.96 59.0663 11.96H60.5063C60.6396 11.96 60.7063 12.0267 60.7063 12.16V12.26C60.7063 12.6333 60.9063 12.96 61.3063 13.24C61.7196 13.52 62.2396 13.66 62.8663 13.66C63.4663 13.66 63.9529 13.5333 64.3263 13.28C64.6996 13.0133 64.8863 12.68 64.8863 12.28C64.8863 11.8933 64.7129 11.6067 64.3663 11.42C64.0196 11.22 63.4596 11.0133 62.6863 10.8C61.9263 10.5867 61.2863 10.3733 60.7663 10.16C60.2596 9.93333 59.8263 9.62 59.4663 9.22C59.1196 8.80667 58.9463 8.28 58.9463 7.64C58.9463 6.74667 59.2929 6.04 59.9863 5.52C60.6929 4.98667 61.6263 4.72 62.7863 4.72C63.5596 4.72 64.2396 4.84667 64.8263 5.1C65.4263 5.34 65.8863 5.68 66.2063 6.12C66.5263 6.56 66.6863 7.05333 66.6863 7.6V7.66C66.6863 7.79333 66.6196 7.86 66.4863 7.86H65.0863C64.9529 7.86 64.8863 7.79333 64.8863 7.66V7.6C64.8863 7.21333 64.6929 6.89333 64.3063 6.64C63.9329 6.37333 63.4196 6.24 62.7663 6.24C62.1796 6.24 61.6996 6.35333 61.3263 6.58C60.9663 6.80667 60.7863 7.11333 60.7863 7.5C60.7863 7.88667 60.9596 8.18 61.3063 8.38C61.6663 8.58 62.2396 8.79333 63.0263 9.02C63.7996 9.23333 64.4396 9.44667 64.9463 9.66C65.4663 9.86 65.9063 10.1667 66.2663 10.58C66.6263 10.98 66.8063 11.5067 66.8063 12.16C66.8063 13.0667 66.4463 13.7867 65.7263 14.32C65.0196 14.8533 64.0729 15.12 62.8863 15.12ZM81.3163 7.38C81.5696 8.1 81.6963 8.95333 81.6963 9.94C81.6963 10.8733 81.5896 11.68 81.3763 12.36C81.0963 13.2533 80.6363 13.9467 79.9963 14.44C79.3563 14.92 78.5363 15.16 77.5362 15.16C77.0829 15.16 76.6496 15.0733 76.2363 14.9C75.8363 14.7133 75.4896 14.4533 75.1963 14.12C75.1696 14.0933 75.1429 14.0867 75.1163 14.1C75.1029 14.1133 75.0963 14.1333 75.0963 14.16V18.62C75.0963 18.7533 75.0296 18.82 74.8963 18.82H73.3763C73.2429 18.82 73.1763 18.7533 73.1763 18.62V5.02C73.1763 4.88667 73.2429 4.82 73.3763 4.82H74.8963C75.0296 4.82 75.0963 4.88667 75.0963 5.02V5.68C75.0963 5.70667 75.1029 5.72667 75.1163 5.74C75.1429 5.75333 75.1696 5.74667 75.1963 5.72C75.4896 5.38667 75.8363 5.12667 76.2363 4.94C76.6363 4.75333 77.0696 4.66 77.5362 4.66C78.4963 4.66 79.2896 4.9 79.9163 5.38C80.5563 5.84667 81.0229 6.51333 81.3163 7.38ZM79.1163 12.54C79.5429 11.9 79.7563 11.02 79.7563 9.9C79.7563 8.87333 79.5896 8.04667 79.2563 7.42C78.8696 6.68667 78.2363 6.32 77.3563 6.32C76.5829 6.32 75.9963 6.68 75.5963 7.4C75.2763 7.97333 75.1163 8.81333 75.1163 9.92C75.1163 11.04 75.2896 11.8933 75.6363 12.48C76.0229 13.16 76.5896 13.5 77.3363 13.5C78.1363 13.5 78.7296 13.18 79.1163 12.54ZM88.6686 4.72C89.0953 4.72 89.4819 4.80667 89.8286 4.98C89.9219 5.02 89.9553 5.1 89.9286 5.22L89.6086 6.72C89.5953 6.84 89.5153 6.88 89.3686 6.84C89.1419 6.74667 88.8753 6.7 88.5686 6.7L88.2886 6.72C87.6619 6.74667 87.1419 6.96667 86.7286 7.38C86.3286 7.78 86.1286 8.30667 86.1286 8.96V14.8C86.1286 14.9333 86.0619 15 85.9286 15H84.4086C84.2753 15 84.2086 14.9333 84.2086 14.8V5.02C84.2086 4.88667 84.2753 4.82 84.4086 4.82H85.9286C86.0619 4.82 86.1286 4.88667 86.1286 5.02V6.08C86.1286 6.12 86.1353 6.14667 86.1486 6.16C86.1753 6.16 86.1953 6.14667 86.2086 6.12C86.8086 5.18667 87.6286 4.72 88.6686 4.72ZM95.2723 4.66C96.0857 4.66 96.7923 4.80667 97.3923 5.1C98.0057 5.38 98.4723 5.78 98.7923 6.3C99.1257 6.80667 99.2923 7.38667 99.2923 8.04V14.8C99.2923 14.9333 99.2257 15 99.0923 15H97.5723C97.439 15 97.3723 14.9333 97.3723 14.8V14.08C97.3723 14.0133 97.339 14 97.2723 14.04C96.9257 14.4 96.499 14.68 95.9923 14.88C95.499 15.0667 94.9457 15.16 94.3323 15.16C93.3457 15.16 92.5257 14.9133 91.8723 14.42C91.2323 13.9133 90.9123 13.1533 90.9123 12.14C90.9123 11.1 91.2723 10.2867 91.9923 9.7C92.7257 9.1 93.7457 8.8 95.0523 8.8H97.2923C97.3457 8.8 97.3723 8.77333 97.3723 8.72V8.18C97.3723 7.59333 97.199 7.14 96.8523 6.82C96.519 6.48667 96.0057 6.32 95.3123 6.32C94.7523 6.32 94.2923 6.43333 93.9323 6.66C93.5857 6.87333 93.3723 7.16667 93.2923 7.54C93.2523 7.67333 93.1723 7.73333 93.0523 7.72L91.4323 7.5C91.299 7.47333 91.239 7.42 91.2523 7.34C91.359 6.55333 91.779 5.91333 92.5123 5.42C93.2457 4.91333 94.1657 4.66 95.2723 4.66ZM94.7523 13.54C95.459 13.54 96.0723 13.3533 96.5923 12.98C97.1123 12.6067 97.3723 12.1333 97.3723 11.56V10.38C97.3723 10.3267 97.3457 10.3 97.2923 10.3H95.4123C94.6257 10.3 93.999 10.4533 93.5323 10.76C93.0657 11.0667 92.8323 11.4933 92.8323 12.04C92.8323 12.5333 93.0057 12.9067 93.3523 13.16C93.7123 13.4133 94.179 13.54 94.7523 13.54ZM94.4923 3.54C94.4123 3.54 94.3523 3.52 94.3123 3.48C94.2857 3.42667 94.2923 3.36667 94.3323 3.3L95.5123 1.14C95.5523 1.04667 95.6323 0.999999 95.7523 0.999999H97.0923C97.1723 0.999999 97.219 1.02667 97.2323 1.08C97.259 1.12 97.2523 1.17333 97.2123 1.24L95.7923 3.4C95.7257 3.49333 95.6457 3.54 95.5523 3.54H94.4923ZM105.847 15.16C104.834 15.16 103.967 14.9067 103.247 14.4C102.527 13.88 102.034 13.18 101.767 12.3C101.567 11.6867 101.467 10.88 101.467 9.88C101.467 8.96 101.567 8.15333 101.767 7.46C102.034 6.60667 102.527 5.92667 103.247 5.42C103.981 4.91333 104.847 4.66 105.847 4.66C106.847 4.66 107.721 4.91333 108.467 5.42C109.214 5.92667 109.701 6.56667 109.927 7.34C110.007 7.55333 110.061 7.77333 110.087 8C110.087 8.10667 110.027 8.17333 109.907 8.2L108.407 8.42H108.367C108.274 8.42 108.207 8.36 108.167 8.24L108.107 7.92C108.001 7.46667 107.741 7.08667 107.327 6.78C106.914 6.47333 106.414 6.32 105.827 6.32C105.254 6.32 104.767 6.47333 104.367 6.78C103.967 7.08667 103.707 7.49333 103.587 8C103.467 8.48 103.407 9.11333 103.407 9.9C103.407 10.6733 103.467 11.3 103.587 11.78C103.721 12.3133 103.981 12.7333 104.367 13.04C104.767 13.3467 105.254 13.5 105.827 13.5C106.414 13.5 106.914 13.3467 107.327 13.04C107.754 12.7333 108.021 12.3333 108.127 11.84C108.141 11.8267 108.141 11.8133 108.127 11.8C108.127 11.7733 108.134 11.7533 108.147 11.74V11.66C108.187 11.5533 108.261 11.5133 108.367 11.54L109.867 11.78C109.974 11.8067 110.027 11.86 110.027 11.94V12.02C110.027 12.14 109.994 12.2867 109.927 12.46C109.701 13.2733 109.214 13.9267 108.467 14.42C107.721 14.9133 106.847 15.16 105.847 15.16ZM117.315 6.2C117.315 6.33333 117.248 6.4 117.115 6.4H114.955C114.901 6.4 114.875 6.42667 114.875 6.48V11.78C114.875 12.34 115.001 12.7467 115.255 13C115.508 13.24 115.901 13.36 116.435 13.36H117.015C117.148 13.36 117.215 13.4267 117.215 13.56V14.8C117.215 14.9333 117.148 15 117.015 15C116.588 15.0267 116.281 15.04 116.095 15.04C115.081 15.04 114.315 14.86 113.795 14.5C113.288 14.1267 113.035 13.4467 113.035 12.46V6.48C113.035 6.42667 113.008 6.4 112.955 6.4H111.735C111.601 6.4 111.535 6.33333 111.535 6.2V5.02C111.535 4.88667 111.601 4.82 111.735 4.82H112.955C113.008 4.82 113.035 4.79333 113.035 4.74V2.38C113.035 2.24667 113.101 2.18 113.235 2.18H114.675C114.808 2.18 114.875 2.24667 114.875 2.38V4.74C114.875 4.79333 114.901 4.82 114.955 4.82H117.115C117.248 4.82 117.315 4.88667 117.315 5.02V6.2ZM120.837 3.22C120.464 3.22 120.157 3.1 119.917 2.86C119.677 2.62 119.557 2.31333 119.557 1.94C119.557 1.56667 119.677 1.26 119.917 1.02C120.157 0.779999 120.464 0.66 120.837 0.66C121.211 0.66 121.517 0.779999 121.757 1.02C121.997 1.26 122.117 1.56667 122.117 1.94C122.117 2.31333 121.997 2.62 121.757 2.86C121.517 3.1 121.211 3.22 120.837 3.22ZM120.037 14.98C119.904 14.98 119.837 14.9133 119.837 14.78V5.02C119.837 4.88667 119.904 4.82 120.037 4.82H121.557C121.691 4.82 121.757 4.88667 121.757 5.02V14.78C121.757 14.9133 121.691 14.98 121.557 14.98H120.037ZM128.855 15.16C127.842 15.16 126.975 14.9067 126.255 14.4C125.535 13.88 125.042 13.18 124.775 12.3C124.575 11.6867 124.475 10.88 124.475 9.88C124.475 8.96 124.575 8.15333 124.775 7.46C125.042 6.60667 125.535 5.92667 126.255 5.42C126.988 4.91333 127.855 4.66 128.855 4.66C129.855 4.66 130.728 4.91333 131.475 5.42C132.222 5.92667 132.708 6.56667 132.935 7.34C133.015 7.55333 133.068 7.77333 133.095 8C133.095 8.10667 133.035 8.17333 132.915 8.2L131.415 8.42H131.375C131.282 8.42 131.215 8.36 131.175 8.24L131.115 7.92C131.008 7.46667 130.748 7.08667 130.335 6.78C129.922 6.47333 129.422 6.32 128.835 6.32C128.262 6.32 127.775 6.47333 127.375 6.78C126.975 7.08667 126.715 7.49333 126.595 8C126.475 8.48 126.415 9.11333 126.415 9.9C126.415 10.6733 126.475 11.3 126.595 11.78C126.728 12.3133 126.988 12.7333 127.375 13.04C127.775 13.3467 128.262 13.5 128.835 13.5C129.422 13.5 129.922 13.3467 130.335 13.04C130.762 12.7333 131.028 12.3333 131.135 11.84C131.148 11.8267 131.148 11.8133 131.135 11.8C131.135 11.7733 131.142 11.7533 131.155 11.74V11.66C131.195 11.5533 131.268 11.5133 131.375 11.54L132.875 11.78C132.982 11.8067 133.035 11.86 133.035 11.94V12.02C133.035 12.14 133.002 12.2867 132.935 12.46C132.708 13.2733 132.222 13.9267 131.475 14.42C130.728 14.9133 129.855 15.16 128.855 15.16ZM139.022 4.66C139.836 4.66 140.542 4.80667 141.142 5.1C141.756 5.38 142.222 5.78 142.542 6.3C142.876 6.80667 143.042 7.38667 143.042 8.04V14.8C143.042 14.9333 142.976 15 142.842 15H141.322C141.189 15 141.122 14.9333 141.122 14.8V14.08C141.122 14.0133 141.089 14 141.022 14.04C140.676 14.4 140.249 14.68 139.742 14.88C139.249 15.0667 138.696 15.16 138.082 15.16C137.096 15.16 136.276 14.9133 135.622 14.42C134.982 13.9133 134.662 13.1533 134.662 12.14C134.662 11.1 135.022 10.2867 135.742 9.7C136.476 9.1 137.496 8.8 138.802 8.8H141.042C141.096 8.8 141.122 8.77333 141.122 8.72V8.18C141.122 7.59333 140.949 7.14 140.602 6.82C140.269 6.48667 139.756 6.32 139.062 6.32C138.502 6.32 138.042 6.43333 137.682 6.66C137.336 6.87333 137.122 7.16667 137.042 7.54C137.002 7.67333 136.922 7.73333 136.802 7.72L135.182 7.5C135.049 7.47333 134.989 7.42 135.002 7.34C135.109 6.55333 135.529 5.91333 136.262 5.42C136.996 4.91333 137.916 4.66 139.022 4.66ZM138.502 13.54C139.209 13.54 139.822 13.3533 140.342 12.98C140.862 12.6067 141.122 12.1333 141.122 11.56V10.38C141.122 10.3267 141.096 10.3 141.042 10.3H139.162C138.376 10.3 137.749 10.4533 137.282 10.76C136.816 11.0667 136.582 11.4933 136.582 12.04C136.582 12.5333 136.756 12.9067 137.102 13.16C137.462 13.4133 137.929 13.54 138.502 13.54ZM149.214 15.12C148.414 15.12 147.708 15 147.094 14.76C146.494 14.52 146.028 14.1933 145.694 13.78C145.361 13.3533 145.194 12.8867 145.194 12.38V12.16C145.194 12.0267 145.261 11.96 145.394 11.96H146.834C146.968 11.96 147.034 12.0267 147.034 12.16V12.26C147.034 12.6333 147.234 12.96 147.634 13.24C148.048 13.52 148.568 13.66 149.194 13.66C149.794 13.66 150.281 13.5333 150.654 13.28C151.028 13.0133 151.214 12.68 151.214 12.28C151.214 11.8933 151.041 11.6067 150.694 11.42C150.348 11.22 149.788 11.0133 149.014 10.8C148.254 10.5867 147.614 10.3733 147.094 10.16C146.588 9.93333 146.154 9.62 145.794 9.22C145.448 8.80667 145.274 8.28 145.274 7.64C145.274 6.74667 145.621 6.04 146.314 5.52C147.021 4.98667 147.954 4.72 149.114 4.72C149.888 4.72 150.568 4.84667 151.154 5.1C151.754 5.34 152.214 5.68 152.534 6.12C152.854 6.56 153.014 7.05333 153.014 7.6V7.66C153.014 7.79333 152.948 7.86 152.814 7.86H151.414C151.281 7.86 151.214 7.79333 151.214 7.66V7.6C151.214 7.21333 151.021 6.89333 150.634 6.64C150.261 6.37333 149.748 6.24 149.094 6.24C148.508 6.24 148.028 6.35333 147.654 6.58C147.294 6.80667 147.114 7.11333 147.114 7.5C147.114 7.88667 147.288 8.18 147.634 8.38C147.994 8.58 148.568 8.79333 149.354 9.02C150.128 9.23333 150.768 9.44667 151.274 9.66C151.794 9.86 152.234 10.1667 152.594 10.58C152.954 10.98 153.134 11.5067 153.134 12.16C153.134 13.0667 152.774 13.7867 152.054 14.32C151.348 14.8533 150.401 15.12 149.214 15.12ZM165.644 5.02C165.644 4.88667 165.711 4.82 165.844 4.82H167.364C167.498 4.82 167.564 4.88667 167.564 5.02V14.48C167.564 16.0933 167.104 17.2467 166.184 17.94C165.278 18.6333 164.058 18.98 162.524 18.98C162.311 18.98 161.978 18.9667 161.524 18.94C161.391 18.9267 161.324 18.8533 161.324 18.72L161.384 17.34C161.384 17.2867 161.404 17.24 161.444 17.2C161.484 17.16 161.538 17.1467 161.604 17.16C161.791 17.1733 162.064 17.18 162.424 17.18C163.558 17.18 164.378 16.9667 164.884 16.54C165.391 16.1267 165.644 15.42 165.644 14.42V14.06C165.644 14.0333 165.631 14.0133 165.604 14C165.591 13.9867 165.571 13.9933 165.544 14.02C164.984 14.6733 164.164 15 163.084 15C162.218 15 161.431 14.7733 160.724 14.32C160.031 13.8667 159.551 13.2 159.284 12.32C159.111 11.7333 159.024 10.92 159.024 9.88C159.024 8.77333 159.124 7.92 159.324 7.32C159.578 6.52 160.024 5.88 160.664 5.4C161.318 4.90667 162.084 4.66 162.964 4.66C164.058 4.66 164.918 4.99333 165.544 5.66C165.571 5.68667 165.591 5.7 165.604 5.7C165.631 5.68667 165.644 5.66667 165.644 5.64V5.02ZM165.524 11.74C165.564 11.5267 165.591 11.3 165.604 11.06C165.631 10.82 165.644 10.42 165.644 9.86C165.644 9.3 165.631 8.90667 165.604 8.68C165.591 8.44 165.558 8.21333 165.504 8C165.398 7.50667 165.158 7.10667 164.784 6.8C164.411 6.48 163.944 6.32 163.384 6.32C162.824 6.32 162.358 6.48 161.984 6.8C161.611 7.10667 161.344 7.50667 161.184 8C161.038 8.4 160.964 9.02 160.964 9.86C160.964 10.78 161.031 11.4067 161.164 11.74C161.298 12.2333 161.558 12.64 161.944 12.96C162.344 13.2667 162.824 13.42 163.384 13.42C163.971 13.42 164.444 13.2667 164.804 12.96C165.178 12.64 165.418 12.2333 165.524 11.74ZM170.444 15C170.31 15 170.244 14.9333 170.244 14.8V1.2C170.244 1.06667 170.31 0.999999 170.444 0.999999H171.964C172.097 0.999999 172.164 1.06667 172.164 1.2V14.8C172.164 14.9333 172.097 15 171.964 15H170.444ZM179.111 15.16C178.124 15.16 177.264 14.9133 176.531 14.42C175.797 13.9133 175.284 13.2133 174.991 12.32C174.751 11.6 174.631 10.7867 174.631 9.88C174.631 8.93333 174.744 8.13333 174.971 7.48C175.264 6.6 175.777 5.91333 176.511 5.42C177.244 4.91333 178.117 4.66 179.131 4.66C180.091 4.66 180.924 4.91333 181.631 5.42C182.351 5.91333 182.864 6.59333 183.171 7.46C183.411 8.14 183.531 8.94 183.531 9.86C183.531 10.7933 183.411 11.6133 183.171 12.32C182.877 13.2133 182.371 13.9133 181.651 14.42C180.931 14.9133 180.084 15.16 179.111 15.16ZM179.111 13.5C179.644 13.5 180.111 13.3533 180.511 13.06C180.911 12.7533 181.197 12.3267 181.371 11.78C181.517 11.2733 181.591 10.6467 181.591 9.9C181.591 9.15333 181.524 8.53333 181.391 8.04C181.217 7.49333 180.931 7.07333 180.531 6.78C180.131 6.47333 179.644 6.32 179.071 6.32C178.524 6.32 178.051 6.47333 177.651 6.78C177.251 7.07333 176.964 7.49333 176.791 8.04C176.644 8.50667 176.571 9.12667 176.571 9.9C176.571 10.6733 176.644 11.3 176.791 11.78C176.951 12.3267 177.231 12.7533 177.631 13.06C178.044 13.3533 178.537 13.5 179.111 13.5ZM194.265 7.46C194.478 8.14 194.585 8.94667 194.585 9.88C194.585 10.88 194.458 11.7333 194.205 12.44C193.911 13.3067 193.445 13.98 192.805 14.46C192.178 14.9267 191.385 15.16 190.425 15.16C189.958 15.16 189.525 15.0667 189.125 14.88C188.725 14.6933 188.378 14.4333 188.085 14.1C188.058 14.0733 188.031 14.0667 188.005 14.08C187.991 14.0933 187.985 14.1133 187.985 14.14V14.8C187.985 14.9333 187.918 15 187.785 15H186.265C186.131 15 186.065 14.9333 186.065 14.8V1.2C186.065 1.06667 186.131 0.999999 186.265 0.999999H187.785C187.918 0.999999 187.985 1.06667 187.985 1.2V5.66C187.985 5.68667 187.991 5.70667 188.005 5.72C188.031 5.73333 188.058 5.72667 188.085 5.7C188.378 5.36667 188.725 5.11333 189.125 4.94C189.538 4.75333 189.971 4.66 190.425 4.66C191.425 4.66 192.245 4.90667 192.885 5.4C193.525 5.89333 193.985 6.58 194.265 7.46ZM192.145 12.4C192.478 11.7733 192.645 10.9467 192.645 9.92C192.645 8.82667 192.431 7.94667 192.005 7.28C191.618 6.64 191.025 6.32 190.225 6.32C189.478 6.32 188.911 6.66 188.525 7.34C188.178 7.95333 188.005 8.80667 188.005 9.9C188.005 10.9933 188.165 11.8333 188.485 12.42C188.885 13.14 189.471 13.5 190.245 13.5C191.125 13.5 191.758 13.1333 192.145 12.4ZM200.819 4.66C201.633 4.66 202.339 4.80667 202.939 5.1C203.553 5.38 204.019 5.78 204.339 6.3C204.673 6.80667 204.839 7.38667 204.839 8.04V14.8C204.839 14.9333 204.773 15 204.639 15H203.119C202.986 15 202.919 14.9333 202.919 14.8V14.08C202.919 14.0133 202.886 14 202.819 14.04C202.473 14.4 202.046 14.68 201.539 14.88C201.046 15.0667 200.493 15.16 199.879 15.16C198.893 15.16 198.073 14.9133 197.419 14.42C196.779 13.9133 196.459 13.1533 196.459 12.14C196.459 11.1 196.819 10.2867 197.539 9.7C198.273 9.1 199.293 8.8 200.599 8.8H202.839C202.893 8.8 202.919 8.77333 202.919 8.72V8.18C202.919 7.59333 202.746 7.14 202.399 6.82C202.066 6.48667 201.553 6.32 200.859 6.32C200.299 6.32 199.839 6.43333 199.479 6.66C199.133 6.87333 198.919 7.16667 198.839 7.54C198.799 7.67333 198.719 7.73333 198.599 7.72L196.979 7.5C196.846 7.47333 196.786 7.42 196.799 7.34C196.906 6.55333 197.326 5.91333 198.059 5.42C198.793 4.91333 199.713 4.66 200.819 4.66ZM200.299 13.54C201.006 13.54 201.619 13.3533 202.139 12.98C202.659 12.6067 202.919 12.1333 202.919 11.56V10.38C202.919 10.3267 202.893 10.3 202.839 10.3H200.959C200.173 10.3 199.546 10.4533 199.079 10.76C198.613 11.0667 198.379 11.4933 198.379 12.04C198.379 12.5333 198.553 12.9067 198.899 13.16C199.259 13.4133 199.726 13.54 200.299 13.54ZM207.631 15C207.498 15 207.431 14.9333 207.431 14.8V1.2C207.431 1.06667 207.498 0.999999 207.631 0.999999H209.151C209.285 0.999999 209.351 1.06667 209.351 1.2V14.8C209.351 14.9333 209.285 15 209.151 15H207.631ZM220.378 8.64C220.432 9.18667 220.452 9.8 220.438 10.48C220.438 10.6133 220.372 10.68 220.238 10.68H213.858C213.805 10.68 213.778 10.7067 213.778 10.76C213.778 11.2133 213.818 11.56 213.898 11.8C214.045 12.3333 214.338 12.7533 214.778 13.06C215.232 13.3533 215.798 13.5 216.478 13.5C217.465 13.5 218.225 13.0933 218.758 12.28C218.825 12.1467 218.912 12.1267 219.018 12.22L220.158 12.98C220.252 13.06 220.272 13.1467 220.218 13.24C219.845 13.84 219.312 14.3133 218.618 14.66C217.938 15.0067 217.165 15.18 216.298 15.18C215.325 15.18 214.505 14.9667 213.838 14.54C213.172 14.1133 212.672 13.5067 212.338 12.72C212.018 11.9333 211.858 10.98 211.858 9.86C211.858 8.88667 211.932 8.14667 212.078 7.64C212.318 6.72 212.798 5.99333 213.518 5.46C214.238 4.92667 215.112 4.66 216.138 4.66C217.485 4.66 218.492 5 219.158 5.68C219.825 6.34667 220.232 7.33333 220.378 8.64ZM216.138 6.32C215.565 6.32 215.092 6.46667 214.718 6.76C214.345 7.04 214.092 7.42 213.958 7.9C213.865 8.19333 213.805 8.56667 213.778 9.02C213.778 9.07333 213.805 9.1 213.858 9.1H218.438C218.492 9.1 218.518 9.07333 218.518 9.02C218.492 8.58 218.452 8.25333 218.398 8.04C218.265 7.52 217.998 7.10667 217.598 6.8C217.212 6.48 216.725 6.32 216.138 6.32ZM226.285 15.12C225.485 15.12 224.778 15 224.165 14.76C223.565 14.52 223.098 14.1933 222.765 13.78C222.431 13.3533 222.265 12.8867 222.265 12.38V12.16C222.265 12.0267 222.331 11.96 222.465 11.96H223.905C224.038 11.96 224.105 12.0267 224.105 12.16V12.26C224.105 12.6333 224.305 12.96 224.705 13.24C225.118 13.52 225.638 13.66 226.265 13.66C226.865 13.66 227.351 13.5333 227.725 13.28C228.098 13.0133 228.285 12.68 228.285 12.28C228.285 11.8933 228.111 11.6067 227.765 11.42C227.418 11.22 226.858 11.0133 226.085 10.8C225.325 10.5867 224.685 10.3733 224.165 10.16C223.658 9.93333 223.225 9.62 222.865 9.22C222.518 8.80667 222.345 8.28 222.345 7.64C222.345 6.74667 222.691 6.04 223.385 5.52C224.091 4.98667 225.025 4.72 226.185 4.72C226.958 4.72 227.638 4.84667 228.225 5.1C228.825 5.34 229.285 5.68 229.605 6.12C229.925 6.56 230.085 7.05333 230.085 7.6V7.66C230.085 7.79333 230.018 7.86 229.885 7.86H228.485C228.351 7.86 228.285 7.79333 228.285 7.66V7.6C228.285 7.21333 228.091 6.89333 227.705 6.64C227.331 6.37333 226.818 6.24 226.165 6.24C225.578 6.24 225.098 6.35333 224.725 6.58C224.365 6.80667 224.185 7.11333 224.185 7.5C224.185 7.88667 224.358 8.18 224.705 8.38C225.065 8.58 225.638 8.79333 226.425 9.02C227.198 9.23333 227.838 9.44667 228.345 9.66C228.865 9.86 229.305 10.1667 229.665 10.58C230.025 10.98 230.205 11.5067 230.205 12.16C230.205 13.0667 229.845 13.7867 229.125 14.32C228.418 14.8533 227.471 15.12 226.285 15.12Z" fill="white"/>
</svg>
