<svg width="126" height="16" viewBox="0 0 126 16" fill="none" xmlns="http://www.w3.org/2000/svg">
<path d="M6.12 0.979999C6.93333 0.979999 7.64667 1.15333 8.26 1.5C8.88667 1.83333 9.36667 2.30667 9.7 2.92C10.0467 3.53333 10.22 4.24 10.22 5.04C10.22 5.84 10.0467 6.54 9.7 7.14C9.35333 7.74 8.86 8.20667 8.22 8.54C7.59333 8.87333 6.86667 9.04 6.04 9.04H2.52C2.46667 9.04 2.44 9.06667 2.44 9.12V14.8C2.44 14.9333 2.37333 15 2.24 15H0.72C0.586667 15 0.52 14.9333 0.52 14.8V1.18C0.52 1.04667 0.586667 0.979999 0.72 0.979999H6.12ZM5.86 7.48C6.59333 7.48 7.18 7.26 7.62 6.82C8.07333 6.38 8.3 5.8 8.3 5.08C8.3 4.34667 8.07333 3.76 7.62 3.32C7.18 2.86667 6.59333 2.64 5.86 2.64H2.52C2.46667 2.64 2.44 2.66667 2.44 2.72V7.4C2.44 7.45333 2.46667 7.48 2.52 7.48H5.86ZM20.0463 8.64C20.0996 9.18667 20.1196 9.8 20.1063 10.48C20.1063 10.6133 20.0396 10.68 19.9063 10.68H13.5263C13.4729 10.68 13.4463 10.7067 13.4463 10.76C13.4463 11.2133 13.4863 11.56 13.5663 11.8C13.7129 12.3333 14.0063 12.7533 14.4463 13.06C14.8996 13.3533 15.4663 13.5 16.1463 13.5C17.1329 13.5 17.8929 13.0933 18.4263 12.28C18.4929 12.1467 18.5796 12.1267 18.6863 12.22L19.8263 12.98C19.9196 13.06 19.9396 13.1467 19.8863 13.24C19.5129 13.84 18.9796 14.3133 18.2863 14.66C17.6063 15.0067 16.8329 15.18 15.9663 15.18C14.9929 15.18 14.1729 14.9667 13.5063 14.54C12.8396 14.1133 12.3396 13.5067 12.0063 12.72C11.6863 11.9333 11.5263 10.98 11.5263 9.86C11.5263 8.88667 11.5996 8.14667 11.7463 7.64C11.9863 6.72 12.4663 5.99333 13.1863 5.46C13.9063 4.92667 14.7796 4.66 15.8063 4.66C17.1529 4.66 18.1596 5 18.8263 5.68C19.4929 6.34667 19.8996 7.33333 20.0463 8.64ZM15.8063 6.32C15.2329 6.32 14.7596 6.46667 14.3863 6.76C14.0129 7.04 13.7596 7.42 13.6263 7.9C13.5329 8.19333 13.4729 8.56667 13.4463 9.02C13.4463 9.07333 13.4729 9.1 13.5263 9.1H18.1063C18.1596 9.1 18.1863 9.07333 18.1863 9.02C18.1596 8.58 18.1196 8.25333 18.0663 8.04C17.9329 7.52 17.6663 7.10667 17.2663 6.8C16.8796 6.48 16.3929 6.32 15.8063 6.32ZM26.9889 4.72C27.4156 4.72 27.8022 4.80667 28.1489 4.98C28.2422 5.02 28.2756 5.1 28.2489 5.22L27.9289 6.72C27.9156 6.84 27.8356 6.88 27.6889 6.84C27.4622 6.74667 27.1956 6.7 26.8889 6.7L26.6089 6.72C25.9822 6.74667 25.4622 6.96667 25.0489 7.38C24.6489 7.78 24.4489 8.30667 24.4489 8.96V14.8C24.4489 14.9333 24.3822 15 24.2489 15H22.7289C22.5956 15 22.5289 14.9333 22.5289 14.8V5.02C22.5289 4.88667 22.5956 4.82 22.7289 4.82H24.2489C24.3822 4.82 24.4489 4.88667 24.4489 5.02V6.08C24.4489 6.12 24.4556 6.14667 24.4689 6.16C24.4956 6.16 24.5156 6.14667 24.5289 6.12C25.1289 5.18667 25.9489 4.72 26.9889 4.72ZM33.4331 15.12C32.6331 15.12 31.9265 15 31.3131 14.76C30.7131 14.52 30.2465 14.1933 29.9131 13.78C29.5798 13.3533 29.4131 12.8867 29.4131 12.38V12.16C29.4131 12.0267 29.4798 11.96 29.6131 11.96H31.0531C31.1865 11.96 31.2531 12.0267 31.2531 12.16V12.26C31.2531 12.6333 31.4531 12.96 31.8531 13.24C32.2665 13.52 32.7865 13.66 33.4131 13.66C34.0131 13.66 34.4998 13.5333 34.8731 13.28C35.2465 13.0133 35.4331 12.68 35.4331 12.28C35.4331 11.8933 35.2598 11.6067 34.9131 11.42C34.5665 11.22 34.0065 11.0133 33.2331 10.8C32.4731 10.5867 31.8331 10.3733 31.3131 10.16C30.8065 9.93333 30.3731 9.62 30.0131 9.22C29.6665 8.80667 29.4931 8.28 29.4931 7.64C29.4931 6.74667 29.8398 6.04 30.5331 5.52C31.2398 4.98667 32.1731 4.72 33.3331 4.72C34.1065 4.72 34.7865 4.84667 35.3731 5.1C35.9731 5.34 36.4331 5.68 36.7531 6.12C37.0731 6.56 37.2331 7.05333 37.2331 7.6V7.66C37.2331 7.79333 37.1665 7.86 37.0331 7.86H35.6331C35.4998 7.86 35.4331 7.79333 35.4331 7.66V7.6C35.4331 7.21333 35.2398 6.89333 34.8531 6.64C34.4798 6.37333 33.9665 6.24 33.3131 6.24C32.7265 6.24 32.2465 6.35333 31.8731 6.58C31.5131 6.80667 31.3331 7.11333 31.3331 7.5C31.3331 7.88667 31.5065 8.18 31.8531 8.38C32.2131 8.58 32.7865 8.79333 33.5731 9.02C34.3465 9.23333 34.9865 9.44667 35.4931 9.66C36.0131 9.86 36.4531 10.1667 36.8131 10.58C37.1731 10.98 37.3531 11.5067 37.3531 12.16C37.3531 13.0667 36.9931 13.7867 36.2731 14.32C35.5665 14.8533 34.6198 15.12 33.4331 15.12ZM43.7592 15.16C42.7726 15.16 41.9126 14.9133 41.1792 14.42C40.4459 13.9133 39.9326 13.2133 39.6392 12.32C39.3992 11.6 39.2792 10.7867 39.2792 9.88C39.2792 8.93333 39.3926 8.13333 39.6192 7.48C39.9126 6.6 40.4259 5.91333 41.1592 5.42C41.8926 4.91333 42.7659 4.66 43.7792 4.66C44.7392 4.66 45.5726 4.91333 46.2792 5.42C46.9992 5.91333 47.5126 6.59333 47.8192 7.46C48.0592 8.14 48.1792 8.94 48.1792 9.86C48.1792 10.7933 48.0592 11.6133 47.8192 12.32C47.5259 13.2133 47.0192 13.9133 46.2992 14.42C45.5792 14.9133 44.7326 15.16 43.7592 15.16ZM43.7592 13.5C44.2926 13.5 44.7592 13.3533 45.1592 13.06C45.5592 12.7533 45.8459 12.3267 46.0192 11.78C46.1659 11.2733 46.2392 10.6467 46.2392 9.9C46.2392 9.15333 46.1726 8.53333 46.0392 8.04C45.8659 7.49333 45.5792 7.07333 45.1792 6.78C44.7792 6.47333 44.2926 6.32 43.7192 6.32C43.1726 6.32 42.6992 6.47333 42.2992 6.78C41.8992 7.07333 41.6126 7.49333 41.4392 8.04C41.2926 8.50667 41.2192 9.12667 41.2192 9.9C41.2192 10.6733 41.2926 11.3 41.4392 11.78C41.5992 12.3267 41.8792 12.7533 42.2792 13.06C42.6926 13.3533 43.1859 13.5 43.7592 13.5ZM55.233 4.68C56.3263 4.68 57.193 5 57.833 5.64C58.473 6.26667 58.793 7.12 58.793 8.2V14.8C58.793 14.9333 58.7263 15 58.593 15H57.073C56.9396 15 56.873 14.9333 56.873 14.8V8.58C56.873 7.91333 56.6796 7.37333 56.293 6.96C55.9063 6.54667 55.393 6.34 54.753 6.34C54.1263 6.34 53.613 6.54667 53.213 6.96C52.813 7.37333 52.613 7.90667 52.613 8.56V14.8C52.613 14.9333 52.5463 15 52.413 15H50.893C50.7596 15 50.693 14.9333 50.693 14.8V5.02C50.693 4.88667 50.7596 4.82 50.893 4.82H52.413C52.5463 4.82 52.613 4.88667 52.613 5.02V5.74C52.613 5.76667 52.6196 5.78667 52.633 5.8C52.6596 5.81333 52.6796 5.80667 52.693 5.78C53.2663 5.04667 54.113 4.68 55.233 4.68ZM65.2528 4.66C66.0661 4.66 66.7728 4.80667 67.3728 5.1C67.9861 5.38 68.4528 5.78 68.7728 6.3C69.1061 6.80667 69.2728 7.38667 69.2728 8.04V14.8C69.2728 14.9333 69.2061 15 69.0728 15H67.5528C67.4195 15 67.3528 14.9333 67.3528 14.8V14.08C67.3528 14.0133 67.3195 14 67.2528 14.04C66.9061 14.4 66.4795 14.68 65.9728 14.88C65.4795 15.0667 64.9261 15.16 64.3128 15.16C63.3261 15.16 62.5061 14.9133 61.8528 14.42C61.2128 13.9133 60.8928 13.1533 60.8928 12.14C60.8928 11.1 61.2528 10.2867 61.9728 9.7C62.7061 9.1 63.7261 8.8 65.0328 8.8H67.2728C67.3261 8.8 67.3528 8.77333 67.3528 8.72V8.18C67.3528 7.59333 67.1795 7.14 66.8328 6.82C66.4995 6.48667 65.9861 6.32 65.2928 6.32C64.7328 6.32 64.2728 6.43333 63.9128 6.66C63.5661 6.87333 63.3528 7.16667 63.2728 7.54C63.2328 7.67333 63.1528 7.73333 63.0328 7.72L61.4128 7.5C61.2795 7.47333 61.2195 7.42 61.2328 7.34C61.3395 6.55333 61.7595 5.91333 62.4928 5.42C63.2261 4.91333 64.1461 4.66 65.2528 4.66ZM64.7328 13.54C65.4395 13.54 66.0528 13.3533 66.5728 12.98C67.0928 12.6067 67.3528 12.1333 67.3528 11.56V10.38C67.3528 10.3267 67.3261 10.3 67.2728 10.3H65.3928C64.6061 10.3 63.9795 10.4533 63.5128 10.76C63.0461 11.0667 62.8128 11.4933 62.8128 12.04C62.8128 12.5333 62.9861 12.9067 63.3328 13.16C63.6928 13.4133 64.1595 13.54 64.7328 13.54ZM72.0648 15C71.9315 15 71.8648 14.9333 71.8648 14.8V1.2C71.8648 1.06667 71.9315 0.999999 72.0648 0.999999H73.5848C73.7182 0.999999 73.7848 1.06667 73.7848 1.2V14.8C73.7848 14.9333 73.7182 15 73.5848 15H72.0648ZM77.7319 3.22C77.3585 3.22 77.0519 3.1 76.8119 2.86C76.5719 2.62 76.4519 2.31333 76.4519 1.94C76.4519 1.56667 76.5719 1.26 76.8119 1.02C77.0519 0.779999 77.3585 0.66 77.7319 0.66C78.1052 0.66 78.4119 0.779999 78.6519 1.02C78.8919 1.26 79.0119 1.56667 79.0119 1.94C79.0119 2.31333 78.8919 2.62 78.6519 2.86C78.4119 3.1 78.1052 3.22 77.7319 3.22ZM76.9319 14.98C76.7985 14.98 76.7319 14.9133 76.7319 14.78V5.02C76.7319 4.88667 76.7985 4.82 76.9319 4.82H78.4519C78.5852 4.82 78.6519 4.88667 78.6519 5.02V14.78C78.6519 14.9133 78.5852 14.98 78.4519 14.98H76.9319ZM81.0695 15C80.9362 15 80.8695 14.9333 80.8695 14.8V13.4C80.8695 13.3067 80.8962 13.2267 80.9495 13.16L86.2495 6.68C86.2762 6.65333 86.2829 6.63333 86.2695 6.62C86.2562 6.59333 86.2362 6.58 86.2095 6.58H81.1695C81.0362 6.58 80.9695 6.51333 80.9695 6.38V5.02C80.9695 4.88667 81.0362 4.82 81.1695 4.82H88.3895C88.5229 4.82 88.5895 4.88667 88.5895 5.02V6.44C88.5895 6.53333 88.5629 6.61333 88.5095 6.68L83.1295 13.16C83.1029 13.1867 83.0962 13.2133 83.1095 13.24C83.1229 13.2533 83.1429 13.26 83.1695 13.26H88.4095C88.5429 13.26 88.6095 13.3267 88.6095 13.46V14.8C88.6095 14.9333 88.5429 15 88.4095 15H81.0695ZM94.413 4.66C95.2263 4.66 95.933 4.80667 96.533 5.1C97.1463 5.38 97.613 5.78 97.933 6.3C98.2663 6.80667 98.433 7.38667 98.433 8.04V14.8C98.433 14.9333 98.3663 15 98.233 15H96.713C96.5796 15 96.513 14.9333 96.513 14.8V14.08C96.513 14.0133 96.4796 14 96.413 14.04C96.0663 14.4 95.6396 14.68 95.133 14.88C94.6396 15.0667 94.0863 15.16 93.473 15.16C92.4863 15.16 91.6663 14.9133 91.013 14.42C90.373 13.9133 90.053 13.1533 90.053 12.14C90.053 11.1 90.413 10.2867 91.133 9.7C91.8663 9.1 92.8863 8.8 94.193 8.8H96.433C96.4863 8.8 96.513 8.77333 96.513 8.72V8.18C96.513 7.59333 96.3396 7.14 95.993 6.82C95.6596 6.48667 95.1463 6.32 94.453 6.32C93.893 6.32 93.433 6.43333 93.073 6.66C92.7263 6.87333 92.513 7.16667 92.433 7.54C92.393 7.67333 92.313 7.73333 92.193 7.72L90.573 7.5C90.4396 7.47333 90.3796 7.42 90.393 7.34C90.4996 6.55333 90.9196 5.91333 91.653 5.42C92.3863 4.91333 93.3063 4.66 94.413 4.66ZM93.893 13.54C94.5996 13.54 95.213 13.3533 95.733 12.98C96.253 12.6067 96.513 12.1333 96.513 11.56V10.38C96.513 10.3267 96.4863 10.3 96.433 10.3H94.553C93.7663 10.3 93.1396 10.4533 92.673 10.76C92.2063 11.0667 91.973 11.4933 91.973 12.04C91.973 12.5333 92.1463 12.9067 92.493 13.16C92.853 13.4133 93.3196 13.54 93.893 13.54ZM109.245 7.46C109.458 8.14 109.565 8.94667 109.565 9.88C109.565 10.88 109.438 11.7333 109.185 12.44C108.892 13.3067 108.425 13.98 107.785 14.46C107.158 14.9267 106.365 15.16 105.405 15.16C104.938 15.16 104.505 15.0667 104.105 14.88C103.705 14.6933 103.358 14.4333 103.065 14.1C103.038 14.0733 103.012 14.0667 102.985 14.08C102.972 14.0933 102.965 14.1133 102.965 14.14V14.8C102.965 14.9333 102.898 15 102.765 15H101.245C101.112 15 101.045 14.9333 101.045 14.8V1.2C101.045 1.06667 101.112 0.999999 101.245 0.999999H102.765C102.898 0.999999 102.965 1.06667 102.965 1.2V5.66C102.965 5.68667 102.972 5.70667 102.985 5.72C103.012 5.73333 103.038 5.72667 103.065 5.7C103.358 5.36667 103.705 5.11333 104.105 4.94C104.518 4.75333 104.952 4.66 105.405 4.66C106.405 4.66 107.225 4.90667 107.865 5.4C108.505 5.89333 108.965 6.58 109.245 7.46ZM107.125 12.4C107.458 11.7733 107.625 10.9467 107.625 9.92C107.625 8.82667 107.412 7.94667 106.985 7.28C106.598 6.64 106.005 6.32 105.205 6.32C104.458 6.32 103.892 6.66 103.505 7.34C103.158 7.95333 102.985 8.80667 102.985 9.9C102.985 10.9933 103.145 11.8333 103.465 12.42C103.865 13.14 104.452 13.5 105.225 13.5C106.105 13.5 106.738 13.1333 107.125 12.4ZM112.28 15C112.146 15 112.08 14.9333 112.08 14.8V1.2C112.08 1.06667 112.146 0.999999 112.28 0.999999H113.8C113.933 0.999999 114 1.06667 114 1.2V14.8C114 14.9333 113.933 15 113.8 15H112.28ZM125.027 8.64C125.08 9.18667 125.1 9.8 125.087 10.48C125.087 10.6133 125.02 10.68 124.887 10.68H118.507C118.453 10.68 118.427 10.7067 118.427 10.76C118.427 11.2133 118.467 11.56 118.547 11.8C118.693 12.3333 118.987 12.7533 119.427 13.06C119.88 13.3533 120.447 13.5 121.127 13.5C122.113 13.5 122.873 13.0933 123.407 12.28C123.473 12.1467 123.56 12.1267 123.667 12.22L124.807 12.98C124.9 13.06 124.92 13.1467 124.867 13.24C124.493 13.84 123.96 14.3133 123.267 14.66C122.587 15.0067 121.813 15.18 120.947 15.18C119.973 15.18 119.153 14.9667 118.487 14.54C117.82 14.1133 117.32 13.5067 116.987 12.72C116.667 11.9333 116.507 10.98 116.507 9.86C116.507 8.88667 116.58 8.14667 116.727 7.64C116.967 6.72 117.447 5.99333 118.167 5.46C118.887 4.92667 119.76 4.66 120.787 4.66C122.133 4.66 123.14 5 123.807 5.68C124.473 6.34667 124.88 7.33333 125.027 8.64ZM120.787 6.32C120.213 6.32 119.74 6.46667 119.367 6.76C118.993 7.04 118.74 7.42 118.607 7.9C118.513 8.19333 118.453 8.56667 118.427 9.02C118.427 9.07333 118.453 9.1 118.507 9.1H123.087C123.14 9.1 123.167 9.07333 123.167 9.02C123.14 8.58 123.1 8.25333 123.047 8.04C122.913 7.52 122.647 7.10667 122.247 6.8C121.86 6.48 121.373 6.32 120.787 6.32Z" fill="white"/>
</svg>
