<svg width="72" height="16" viewBox="0 0 72 16" fill="none" xmlns="http://www.w3.org/2000/svg">
<path d="M6.12 0.979999C6.93333 0.979999 7.64667 1.15333 8.26 1.5C8.88667 1.83333 9.36667 2.30667 9.7 2.92C10.0467 3.53333 10.22 4.24 10.22 5.04C10.22 5.84 10.0467 6.54 9.7 7.14C9.35333 7.74 8.86 8.20667 8.22 8.54C7.59333 8.87333 6.86667 9.04 6.04 9.04H2.52C2.46667 9.04 2.44 9.06667 2.44 9.12V14.8C2.44 14.9333 2.37333 15 2.24 15H0.72C0.586667 15 0.52 14.9333 0.52 14.8V1.18C0.52 1.04667 0.586667 0.979999 0.72 0.979999H6.12ZM5.86 7.48C6.59333 7.48 7.18 7.26 7.62 6.82C8.07333 6.38 8.3 5.8 8.3 5.08C8.3 4.34667 8.07333 3.76 7.62 3.32C7.18 2.86667 6.59333 2.64 5.86 2.64H2.52C2.46667 2.64 2.44 2.66667 2.44 2.72V7.4C2.44 7.45333 2.46667 7.48 2.52 7.48H5.86ZM16.7155 4.72C17.1421 4.72 17.5288 4.80667 17.8755 4.98C17.9688 5.02 18.0021 5.1 17.9755 5.22L17.6555 6.72C17.6421 6.84 17.5621 6.88 17.4155 6.84C17.1888 6.74667 16.9221 6.7 16.6155 6.7L16.3355 6.72C15.7088 6.74667 15.1888 6.96667 14.7755 7.38C14.3755 7.78 14.1755 8.30667 14.1755 8.96V14.8C14.1755 14.9333 14.1088 15 13.9755 15H12.4555C12.3221 15 12.2555 14.9333 12.2555 14.8V5.02C12.2555 4.88667 12.3221 4.82 12.4555 4.82H13.9755C14.1088 4.82 14.1755 4.88667 14.1755 5.02V6.08C14.1755 6.12 14.1821 6.14667 14.1955 6.16C14.2221 6.16 14.2421 6.14667 14.2555 6.12C14.8555 5.18667 15.6755 4.72 16.7155 4.72ZM23.3192 4.66C24.1326 4.66 24.8392 4.80667 25.4392 5.1C26.0526 5.38 26.5192 5.78 26.8392 6.3C27.1726 6.80667 27.3392 7.38667 27.3392 8.04V14.8C27.3392 14.9333 27.2726 15 27.1392 15H25.6192C25.4859 15 25.4192 14.9333 25.4192 14.8V14.08C25.4192 14.0133 25.3859 14 25.3192 14.04C24.9726 14.4 24.5459 14.68 24.0392 14.88C23.5459 15.0667 22.9926 15.16 22.3792 15.16C21.3926 15.16 20.5726 14.9133 19.9192 14.42C19.2792 13.9133 18.9592 13.1533 18.9592 12.14C18.9592 11.1 19.3192 10.2867 20.0392 9.7C20.7726 9.1 21.7926 8.8 23.0992 8.8H25.3392C25.3926 8.8 25.4192 8.77333 25.4192 8.72V8.18C25.4192 7.59333 25.2459 7.14 24.8992 6.82C24.5659 6.48667 24.0526 6.32 23.3592 6.32C22.7992 6.32 22.3392 6.43333 21.9792 6.66C21.6326 6.87333 21.4192 7.16667 21.3392 7.54C21.2992 7.67333 21.2192 7.73333 21.0992 7.72L19.4792 7.5C19.3459 7.47333 19.2859 7.42 19.2992 7.34C19.4059 6.55333 19.8259 5.91333 20.5592 5.42C21.2926 4.91333 22.2126 4.66 23.3192 4.66ZM22.7992 13.54C23.5059 13.54 24.1192 13.3533 24.6392 12.98C25.1592 12.6067 25.4192 12.1333 25.4192 11.56V10.38C25.4192 10.3267 25.3926 10.3 25.3392 10.3H23.4592C22.6726 10.3 22.0459 10.4533 21.5792 10.76C21.1126 11.0667 20.8792 11.4933 20.8792 12.04C20.8792 12.5333 21.0526 12.9067 21.3992 13.16C21.7592 13.4133 22.2259 13.54 22.7992 13.54ZM22.5392 3.54C22.4592 3.54 22.3992 3.52 22.3592 3.48C22.3326 3.42667 22.3392 3.36667 22.3792 3.3L23.5592 1.14C23.5992 1.04667 23.6792 0.999999 23.7992 0.999999H25.1392C25.2192 0.999999 25.2659 1.02667 25.2792 1.08C25.3059 1.12 25.2992 1.17333 25.2592 1.24L23.8392 3.4C23.7726 3.49333 23.6926 3.54 23.5992 3.54H22.5392ZM33.8941 15.16C32.8807 15.16 32.0141 14.9067 31.2941 14.4C30.5741 13.88 30.0807 13.18 29.8141 12.3C29.6141 11.6867 29.5141 10.88 29.5141 9.88C29.5141 8.96 29.6141 8.15333 29.8141 7.46C30.0807 6.60667 30.5741 5.92667 31.2941 5.42C32.0274 4.91333 32.8941 4.66 33.8941 4.66C34.8941 4.66 35.7674 4.91333 36.5141 5.42C37.2607 5.92667 37.7474 6.56667 37.9741 7.34C38.0541 7.55333 38.1074 7.77333 38.1341 8C38.1341 8.10667 38.0741 8.17333 37.9541 8.2L36.4541 8.42H36.4141C36.3207 8.42 36.2541 8.36 36.2141 8.24L36.1541 7.92C36.0474 7.46667 35.7874 7.08667 35.3741 6.78C34.9607 6.47333 34.4607 6.32 33.8741 6.32C33.3007 6.32 32.8141 6.47333 32.4141 6.78C32.0141 7.08667 31.7541 7.49333 31.6341 8C31.5141 8.48 31.4541 9.11333 31.4541 9.9C31.4541 10.6733 31.5141 11.3 31.6341 11.78C31.7674 12.3133 32.0274 12.7333 32.4141 13.04C32.8141 13.3467 33.3007 13.5 33.8741 13.5C34.4607 13.5 34.9607 13.3467 35.3741 13.04C35.8007 12.7333 36.0674 12.3333 36.1741 11.84C36.1874 11.8267 36.1874 11.8133 36.1741 11.8C36.1741 11.7733 36.1807 11.7533 36.1941 11.74V11.66C36.2341 11.5533 36.3074 11.5133 36.4141 11.54L37.9141 11.78C38.0207 11.8067 38.0741 11.86 38.0741 11.94V12.02C38.0741 12.14 38.0407 12.2867 37.9741 12.46C37.7474 13.2733 37.2607 13.9267 36.5141 14.42C35.7674 14.9133 34.8941 15.16 33.8941 15.16ZM45.3614 6.2C45.3614 6.33333 45.2947 6.4 45.1614 6.4H43.0014C42.9481 6.4 42.9214 6.42667 42.9214 6.48V11.78C42.9214 12.34 43.0481 12.7467 43.3014 13C43.5547 13.24 43.9481 13.36 44.4814 13.36H45.0614C45.1947 13.36 45.2614 13.4267 45.2614 13.56V14.8C45.2614 14.9333 45.1947 15 45.0614 15C44.6347 15.0267 44.3281 15.04 44.1414 15.04C43.1281 15.04 42.3614 14.86 41.8414 14.5C41.3347 14.1267 41.0814 13.4467 41.0814 12.46V6.48C41.0814 6.42667 41.0547 6.4 41.0014 6.4H39.7814C39.6481 6.4 39.5814 6.33333 39.5814 6.2V5.02C39.5814 4.88667 39.6481 4.82 39.7814 4.82H41.0014C41.0547 4.82 41.0814 4.79333 41.0814 4.74V2.38C41.0814 2.24667 41.1481 2.18 41.2814 2.18H42.7214C42.8547 2.18 42.9214 2.24667 42.9214 2.38V4.74C42.9214 4.79333 42.9481 4.82 43.0014 4.82H45.1614C45.2947 4.82 45.3614 4.88667 45.3614 5.02V6.2ZM48.8842 3.22C48.5109 3.22 48.2042 3.1 47.9642 2.86C47.7242 2.62 47.6042 2.31333 47.6042 1.94C47.6042 1.56667 47.7242 1.26 47.9642 1.02C48.2042 0.779999 48.5109 0.66 48.8842 0.66C49.2576 0.66 49.5642 0.779999 49.8042 1.02C50.0442 1.26 50.1642 1.56667 50.1642 1.94C50.1642 2.31333 50.0442 2.62 49.8042 2.86C49.5642 3.1 49.2576 3.22 48.8842 3.22ZM48.0842 14.98C47.9509 14.98 47.8842 14.9133 47.8842 14.78V5.02C47.8842 4.88667 47.9509 4.82 48.0842 4.82H49.6042C49.7376 4.82 49.8042 4.88667 49.8042 5.02V14.78C49.8042 14.9133 49.7376 14.98 49.6042 14.98H48.0842ZM56.9019 15.16C55.8885 15.16 55.0219 14.9067 54.3019 14.4C53.5819 13.88 53.0885 13.18 52.8219 12.3C52.6219 11.6867 52.5219 10.88 52.5219 9.88C52.5219 8.96 52.6219 8.15333 52.8219 7.46C53.0885 6.60667 53.5819 5.92667 54.3019 5.42C55.0352 4.91333 55.9019 4.66 56.9019 4.66C57.9019 4.66 58.7752 4.91333 59.5219 5.42C60.2685 5.92667 60.7552 6.56667 60.9819 7.34C61.0619 7.55333 61.1152 7.77333 61.1419 8C61.1419 8.10667 61.0819 8.17333 60.9619 8.2L59.4619 8.42H59.4219C59.3285 8.42 59.2619 8.36 59.2219 8.24L59.1619 7.92C59.0552 7.46667 58.7952 7.08667 58.3819 6.78C57.9685 6.47333 57.4685 6.32 56.8819 6.32C56.3085 6.32 55.8219 6.47333 55.4219 6.78C55.0219 7.08667 54.7619 7.49333 54.6419 8C54.5219 8.48 54.4619 9.11333 54.4619 9.9C54.4619 10.6733 54.5219 11.3 54.6419 11.78C54.7752 12.3133 55.0352 12.7333 55.4219 13.04C55.8219 13.3467 56.3085 13.5 56.8819 13.5C57.4685 13.5 57.9685 13.3467 58.3819 13.04C58.8085 12.7333 59.0752 12.3333 59.1819 11.84C59.1952 11.8267 59.1952 11.8133 59.1819 11.8C59.1819 11.7733 59.1885 11.7533 59.2019 11.74V11.66C59.2419 11.5533 59.3152 11.5133 59.4219 11.54L60.9219 11.78C61.0285 11.8067 61.0819 11.86 61.0819 11.94V12.02C61.0819 12.14 61.0485 12.2867 60.9819 12.46C60.7552 13.2733 60.2685 13.9267 59.5219 14.42C58.7752 14.9133 57.9019 15.16 56.9019 15.16ZM67.4311 15.16C66.4444 15.16 65.5844 14.9133 64.8511 14.42C64.1178 13.9133 63.6044 13.2133 63.3111 12.32C63.0711 11.6 62.9511 10.7867 62.9511 9.88C62.9511 8.93333 63.0644 8.13333 63.2911 7.48C63.5844 6.6 64.0978 5.91333 64.8311 5.42C65.5644 4.91333 66.4378 4.66 67.4511 4.66C68.4111 4.66 69.2444 4.91333 69.9511 5.42C70.6711 5.91333 71.1844 6.59333 71.4911 7.46C71.7311 8.14 71.8511 8.94 71.8511 9.86C71.8511 10.7933 71.7311 11.6133 71.4911 12.32C71.1978 13.2133 70.6911 13.9133 69.9711 14.42C69.2511 14.9133 68.4044 15.16 67.4311 15.16ZM67.4311 13.5C67.9644 13.5 68.4311 13.3533 68.8311 13.06C69.2311 12.7533 69.5178 12.3267 69.6911 11.78C69.8378 11.2733 69.9111 10.6467 69.9111 9.9C69.9111 9.15333 69.8444 8.53333 69.7111 8.04C69.5378 7.49333 69.2511 7.07333 68.8511 6.78C68.4511 6.47333 67.9644 6.32 67.3911 6.32C66.8444 6.32 66.3711 6.47333 65.9711 6.78C65.5711 7.07333 65.2844 7.49333 65.1111 8.04C64.9644 8.50667 64.8911 9.12667 64.8911 9.9C64.8911 10.6733 64.9644 11.3 65.1111 11.78C65.2711 12.3267 65.5511 12.7533 65.9511 13.06C66.3644 13.3533 66.8578 13.5 67.4311 13.5Z" fill="white"/>
</svg>
