<svg width="89" height="18" viewBox="0 0 89 18" fill="none" xmlns="http://www.w3.org/2000/svg">
<path d="M10.14 14C10.02 14 9.94 13.9467 9.9 13.84L9.18 11.5C9.16667 11.46 9.14 11.44 9.1 11.44H3.48C3.44 11.44 3.41333 11.46 3.4 11.5L2.68 13.84C2.64 13.9467 2.56 14 2.44 14H0.82C0.673333 14 0.62 13.9267 0.66 13.78L5.04 0.159999C5.08 0.0533325 5.16 -9.53674e-07 5.28 -9.53674e-07H7.28C7.4 -9.53674e-07 7.48 0.0533325 7.52 0.159999L11.94 13.78L11.96 13.86C11.96 13.9533 11.9 14 11.78 14H10.14ZM3.9 9.82C3.88667 9.84667 3.88667 9.87333 3.9 9.9C3.92667 9.91333 3.95333 9.92 3.98 9.92H8.58C8.60667 9.92 8.62667 9.91333 8.64 9.9C8.66667 9.87333 8.67333 9.84667 8.66 9.82L6.34 2.4C6.32667 2.37333 6.30667 2.36 6.28 2.36C6.25333 2.36 6.23333 2.37333 6.22 2.4L3.9 9.82ZM20.0442 0.199999C20.0442 0.0666656 20.1109 -9.53674e-07 20.2442 -9.53674e-07H21.7642C21.8976 -9.53674e-07 21.9642 0.0666656 21.9642 0.199999V13.8C21.9642 13.9333 21.8976 14 21.7642 14H20.2442C20.1109 14 20.0442 13.9333 20.0442 13.8V13.14C20.0442 13.1133 20.0309 13.0933 20.0042 13.08C19.9909 13.0667 19.9709 13.0733 19.9442 13.1C19.6509 13.4333 19.3042 13.6933 18.9042 13.88C18.5042 14.0667 18.0709 14.16 17.6042 14.16C16.6442 14.16 15.8442 13.9267 15.2042 13.46C14.5776 12.98 14.1176 12.3067 13.8242 11.44C13.5709 10.7333 13.4442 9.88 13.4442 8.88C13.4442 7.94667 13.5509 7.14 13.7642 6.46C14.0442 5.58 14.5042 4.89333 15.1442 4.4C15.7842 3.90667 16.6042 3.66 17.6042 3.66C18.0576 3.66 18.4842 3.75333 18.8842 3.94C19.2976 4.11333 19.6509 4.36667 19.9442 4.7C19.9709 4.72667 19.9909 4.73333 20.0042 4.72C20.0309 4.70667 20.0442 4.68667 20.0442 4.66V0.199999ZM19.5442 11.42C19.8509 10.86 20.0042 10.02 20.0042 8.9C20.0042 7.78 19.8376 6.92667 19.5042 6.34C19.1176 5.66 18.5509 5.32 17.8042 5.32C17.0042 5.32 16.4109 5.64 16.0242 6.28C15.5976 6.94667 15.3842 7.82667 15.3842 8.92C15.3842 9.94667 15.5509 10.7733 15.8842 11.4C16.2709 12.1333 16.9042 12.5 17.7842 12.5C18.5576 12.5 19.1442 12.14 19.5442 11.42ZM28.4989 3.66C29.3122 3.66 30.0189 3.80667 30.6189 4.1C31.2322 4.38 31.6989 4.78 32.0189 5.3C32.3522 5.80667 32.5189 6.38667 32.5189 7.04V13.8C32.5189 13.9333 32.4522 14 32.3189 14H30.7989C30.6656 14 30.5989 13.9333 30.5989 13.8V13.08C30.5989 13.0133 30.5656 13 30.4989 13.04C30.1522 13.4 29.7256 13.68 29.2189 13.88C28.7256 14.0667 28.1722 14.16 27.5589 14.16C26.5722 14.16 25.7522 13.9133 25.0989 13.42C24.4589 12.9133 24.1389 12.1533 24.1389 11.14C24.1389 10.1 24.4989 9.28667 25.2189 8.7C25.9522 8.1 26.9722 7.8 28.2789 7.8H30.5189C30.5722 7.8 30.5989 7.77333 30.5989 7.72V7.18C30.5989 6.59333 30.4256 6.14 30.0789 5.82C29.7456 5.48667 29.2322 5.32 28.5389 5.32C27.9789 5.32 27.5189 5.43333 27.1589 5.66C26.8122 5.87333 26.5989 6.16667 26.5189 6.54C26.4789 6.67333 26.3989 6.73333 26.2789 6.72L24.6589 6.5C24.5256 6.47333 24.4656 6.42 24.4789 6.34C24.5856 5.55333 25.0056 4.91333 25.7389 4.42C26.4722 3.91333 27.3922 3.66 28.4989 3.66ZM27.9789 12.54C28.6856 12.54 29.2989 12.3533 29.8189 11.98C30.3389 11.6067 30.5989 11.1333 30.5989 10.56V9.38C30.5989 9.32667 30.5722 9.3 30.5189 9.3H28.6389C27.8522 9.3 27.2256 9.45333 26.7589 9.76C26.2922 10.0667 26.0589 10.4933 26.0589 11.04C26.0589 11.5333 26.2322 11.9067 26.5789 12.16C26.9389 12.4133 27.4056 12.54 27.9789 12.54ZM43.3709 6.38C43.6243 7.1 43.7509 7.95333 43.7509 8.94C43.7509 9.87333 43.6443 10.68 43.4309 11.36C43.1509 12.2533 42.6909 12.9467 42.0509 13.44C41.4109 13.92 40.5909 14.16 39.5909 14.16C39.1376 14.16 38.7043 14.0733 38.2909 13.9C37.8909 13.7133 37.5443 13.4533 37.2509 13.12C37.2243 13.0933 37.1976 13.0867 37.1709 13.1C37.1576 13.1133 37.1509 13.1333 37.1509 13.16V17.62C37.1509 17.7533 37.0843 17.82 36.9509 17.82H35.4309C35.2976 17.82 35.2309 17.7533 35.2309 17.62V4.02C35.2309 3.88667 35.2976 3.82 35.4309 3.82H36.9509C37.0843 3.82 37.1509 3.88667 37.1509 4.02V4.68C37.1509 4.70667 37.1576 4.72667 37.1709 4.74C37.1976 4.75333 37.2243 4.74667 37.2509 4.72C37.5443 4.38667 37.8909 4.12667 38.2909 3.94C38.6909 3.75333 39.1243 3.66 39.5909 3.66C40.5509 3.66 41.3443 3.9 41.9709 4.38C42.6109 4.84667 43.0776 5.51333 43.3709 6.38ZM41.1709 11.54C41.5976 10.9 41.8109 10.02 41.8109 8.9C41.8109 7.87333 41.6443 7.04667 41.3109 6.42C40.9243 5.68667 40.2909 5.32 39.4109 5.32C38.6376 5.32 38.0509 5.68 37.6509 6.4C37.3309 6.97333 37.1709 7.81333 37.1709 8.92C37.1709 10.04 37.3443 10.8933 37.6909 11.48C38.0776 12.16 38.6443 12.5 39.3909 12.5C40.1909 12.5 40.7843 12.18 41.1709 11.54ZM51.2833 5.2C51.2833 5.33333 51.2166 5.4 51.0833 5.4H48.9233C48.8699 5.4 48.8433 5.42667 48.8433 5.48V10.78C48.8433 11.34 48.9699 11.7467 49.2233 12C49.4766 12.24 49.8699 12.36 50.4033 12.36H50.9833C51.1166 12.36 51.1833 12.4267 51.1833 12.56V13.8C51.1833 13.9333 51.1166 14 50.9833 14C50.5566 14.0267 50.2499 14.04 50.0633 14.04C49.0499 14.04 48.2833 13.86 47.7633 13.5C47.2566 13.1267 47.0033 12.4467 47.0033 11.46V5.48C47.0033 5.42667 46.9766 5.4 46.9233 5.4H45.7033C45.5699 5.4 45.5033 5.33333 45.5033 5.2V4.02C45.5033 3.88667 45.5699 3.82 45.7033 3.82H46.9233C46.9766 3.82 47.0033 3.79333 47.0033 3.74V1.38C47.0033 1.24667 47.0699 1.18 47.2033 1.18H48.6433C48.7766 1.18 48.8433 1.24667 48.8433 1.38V3.74C48.8433 3.79333 48.8699 3.82 48.9233 3.82H51.0833C51.2166 3.82 51.2833 3.88667 51.2833 4.02V5.2ZM57.3661 3.66C58.1794 3.66 58.8861 3.80667 59.4861 4.1C60.0994 4.38 60.5661 4.78 60.8861 5.3C61.2194 5.80667 61.3861 6.38667 61.3861 7.04V13.8C61.3861 13.9333 61.3194 14 61.1861 14H59.6661C59.5328 14 59.4661 13.9333 59.4661 13.8V13.08C59.4661 13.0133 59.4328 13 59.3661 13.04C59.0194 13.4 58.5928 13.68 58.0861 13.88C57.5928 14.0667 57.0394 14.16 56.4261 14.16C55.4394 14.16 54.6194 13.9133 53.9661 13.42C53.3261 12.9133 53.0061 12.1533 53.0061 11.14C53.0061 10.1 53.3661 9.28667 54.0861 8.7C54.8194 8.1 55.8394 7.8 57.1461 7.8H59.3861C59.4394 7.8 59.4661 7.77333 59.4661 7.72V7.18C59.4661 6.59333 59.2928 6.14 58.9461 5.82C58.6128 5.48667 58.0994 5.32 57.4061 5.32C56.8461 5.32 56.3861 5.43333 56.0261 5.66C55.6794 5.87333 55.4661 6.16667 55.3861 6.54C55.3461 6.67333 55.2661 6.73333 55.1461 6.72L53.5261 6.5C53.3928 6.47333 53.3328 6.42 53.3461 6.34C53.4528 5.55333 53.8728 4.91333 54.6061 4.42C55.3394 3.91333 56.2594 3.66 57.3661 3.66ZM56.8461 12.54C57.5528 12.54 58.1661 12.3533 58.6861 11.98C59.2061 11.6067 59.4661 11.1333 59.4661 10.56V9.38C59.4661 9.32667 59.4394 9.3 59.3861 9.3H57.5061C56.7194 9.3 56.0928 9.45333 55.6261 9.76C55.1594 10.0667 54.9261 10.4933 54.9261 11.04C54.9261 11.5333 55.0994 11.9067 55.4461 12.16C55.8061 12.4133 56.2728 12.54 56.8461 12.54ZM72.1981 6.46C72.4115 7.14 72.5181 7.94667 72.5181 8.88C72.5181 9.88 72.3915 10.7333 72.1381 11.44C71.8448 12.3067 71.3781 12.98 70.7381 13.46C70.1115 13.9267 69.3181 14.16 68.3581 14.16C67.8915 14.16 67.4581 14.0667 67.0581 13.88C66.6581 13.6933 66.3115 13.4333 66.0181 13.1C65.9915 13.0733 65.9648 13.0667 65.9381 13.08C65.9248 13.0933 65.9181 13.1133 65.9181 13.14V13.8C65.9181 13.9333 65.8515 14 65.7181 14H64.1981C64.0648 14 63.9981 13.9333 63.9981 13.8V0.199999C63.9981 0.0666656 64.0648 -9.53674e-07 64.1981 -9.53674e-07H65.7181C65.8515 -9.53674e-07 65.9181 0.0666656 65.9181 0.199999V4.66C65.9181 4.68667 65.9248 4.70667 65.9381 4.72C65.9648 4.73333 65.9915 4.72667 66.0181 4.7C66.3115 4.36667 66.6581 4.11333 67.0581 3.94C67.4715 3.75333 67.9048 3.66 68.3581 3.66C69.3581 3.66 70.1781 3.90667 70.8181 4.4C71.4581 4.89333 71.9181 5.58 72.1981 6.46ZM70.0781 11.4C70.4115 10.7733 70.5781 9.94667 70.5781 8.92C70.5781 7.82667 70.3648 6.94667 69.9381 6.28C69.5515 5.64 68.9581 5.32 68.1581 5.32C67.4115 5.32 66.8448 5.66 66.4581 6.34C66.1115 6.95333 65.9381 7.80667 65.9381 8.9C65.9381 9.99333 66.0981 10.8333 66.4181 11.42C66.8181 12.14 67.4048 12.5 68.1781 12.5C69.0581 12.5 69.6915 12.1333 70.0781 11.4ZM75.2328 14C75.0995 14 75.0328 13.9333 75.0328 13.8V0.199999C75.0328 0.0666656 75.0995 -9.53674e-07 75.2328 -9.53674e-07H76.7528C76.8861 -9.53674e-07 76.9528 0.0666656 76.9528 0.199999V13.8C76.9528 13.9333 76.8861 14 76.7528 14H75.2328ZM87.9798 7.64C88.0332 8.18667 88.0532 8.8 88.0398 9.48C88.0398 9.61333 87.9732 9.68 87.8398 9.68H81.4598C81.4065 9.68 81.3798 9.70667 81.3798 9.76C81.3798 10.2133 81.4198 10.56 81.4998 10.8C81.6465 11.3333 81.9398 11.7533 82.3798 12.06C82.8332 12.3533 83.3998 12.5 84.0798 12.5C85.0665 12.5 85.8265 12.0933 86.3598 11.28C86.4265 11.1467 86.5132 11.1267 86.6198 11.22L87.7598 11.98C87.8532 12.06 87.8732 12.1467 87.8198 12.24C87.4465 12.84 86.9132 13.3133 86.2198 13.66C85.5398 14.0067 84.7665 14.18 83.8998 14.18C82.9265 14.18 82.1065 13.9667 81.4398 13.54C80.7732 13.1133 80.2732 12.5067 79.9398 11.72C79.6198 10.9333 79.4598 9.98 79.4598 8.86C79.4598 7.88667 79.5332 7.14667 79.6798 6.64C79.9198 5.72 80.3998 4.99333 81.1198 4.46C81.8398 3.92667 82.7132 3.66 83.7398 3.66C85.0865 3.66 86.0932 4 86.7598 4.68C87.4265 5.34667 87.8332 6.33333 87.9798 7.64ZM83.7398 5.32C83.1665 5.32 82.6932 5.46667 82.3198 5.76C81.9465 6.04 81.6932 6.42 81.5598 6.9C81.4665 7.19333 81.4065 7.56667 81.3798 8.02C81.3798 8.07333 81.4065 8.1 81.4598 8.1H86.0398C86.0932 8.1 86.1198 8.07333 86.1198 8.02C86.0932 7.58 86.0532 7.25333 85.9998 7.04C85.8665 6.52 85.5998 6.10667 85.1998 5.8C84.8132 5.48 84.3265 5.32 83.7398 5.32Z" fill="white"/>
</svg>
