<svg width="14" height="10" viewBox="0 0 14 10" fill="none" xmlns="http://www.w3.org/2000/svg">
<path fill-rule="evenodd" clip-rule="evenodd" d="M14 4.9999C14 4.86729 13.9473 4.74011 13.8535 4.64635C13.7598 4.55258 13.6326 4.4999 13.5 4.4999H1.70698L4.85398 1.3539C4.90047 1.30741 4.93734 1.25222 4.9625 1.19148C4.98766 1.13074 5.00061 1.06564 5.00061 0.999899C5.00061 0.934155 4.98766 0.869055 4.9625 0.808316C4.93734 0.747576 4.90047 0.692387 4.85398 0.645899C4.80749 0.599411 4.7523 0.562535 4.69156 0.537376C4.63082 0.512217 4.56572 0.499268 4.49998 0.499268C4.43423 0.499268 4.36913 0.512217 4.30839 0.537376C4.24766 0.562535 4.19247 0.599411 4.14598 0.645899L0.145978 4.6459C0.099415 4.69234 0.0624722 4.74752 0.0372657 4.80827C0.0120593 4.86901 -0.000915527 4.93413 -0.000915527 4.9999C-0.000915527 5.06567 0.0120593 5.13079 0.0372657 5.19153C0.0624722 5.25228 0.099415 5.30745 0.145978 5.3539L4.14598 9.3539C4.19247 9.40039 4.24766 9.43726 4.30839 9.46242C4.36913 9.48758 4.43423 9.50053 4.49998 9.50053C4.56572 9.50053 4.63082 9.48758 4.69156 9.46242C4.7523 9.43726 4.80749 9.40039 4.85398 9.3539C4.90047 9.30741 4.93734 9.25222 4.9625 9.19148C4.98766 9.13074 5.00061 9.06564 5.00061 8.9999C5.00061 8.93416 4.98766 8.86905 4.9625 8.80832C4.93734 8.74758 4.90047 8.69239 4.85398 8.6459L1.70698 5.4999H13.5C13.6326 5.4999 13.7598 5.44722 13.8535 5.35345C13.9473 5.25968 14 5.13251 14 4.9999Z" fill="black"/>
</svg>
