<svg width="76" height="16" viewBox="0 0 76 16" fill="none" xmlns="http://www.w3.org/2000/svg">
<path d="M10.14 15C10.02 15 9.94 14.9467 9.9 14.84L9.18 12.5C9.16667 12.46 9.14 12.44 9.1 12.44H3.48C3.44 12.44 3.41333 12.46 3.4 12.5L2.68 14.84C2.64 14.9467 2.56 15 2.44 15H0.82C0.673333 15 0.62 14.9267 0.66 14.78L5.04 1.16C5.08 1.05333 5.16 0.999999 5.28 0.999999H7.28C7.4 0.999999 7.48 1.05333 7.52 1.16L11.94 14.78L11.96 14.86C11.96 14.9533 11.9 15 11.78 15H10.14ZM3.9 10.82C3.88667 10.8467 3.88667 10.8733 3.9 10.9C3.92667 10.9133 3.95333 10.92 3.98 10.92H8.58C8.60667 10.92 8.62667 10.9133 8.64 10.9C8.66667 10.8733 8.67333 10.8467 8.66 10.82L6.34 3.4C6.32667 3.37333 6.30667 3.36 6.28 3.36C6.25333 3.36 6.23333 3.37333 6.22 3.4L3.9 10.82ZM17.5777 15.12C16.7777 15.12 16.071 15 15.4577 14.76C14.8577 14.52 14.391 14.1933 14.0577 13.78C13.7243 13.3533 13.5577 12.8867 13.5577 12.38V12.16C13.5577 12.0267 13.6243 11.96 13.7577 11.96H15.1977C15.331 11.96 15.3977 12.0267 15.3977 12.16V12.26C15.3977 12.6333 15.5977 12.96 15.9977 13.24C16.411 13.52 16.931 13.66 17.5577 13.66C18.1577 13.66 18.6443 13.5333 19.0177 13.28C19.391 13.0133 19.5777 12.68 19.5777 12.28C19.5777 11.8933 19.4043 11.6067 19.0577 11.42C18.711 11.22 18.151 11.0133 17.3777 10.8C16.6177 10.5867 15.9777 10.3733 15.4577 10.16C14.951 9.93333 14.5177 9.62 14.1577 9.22C13.811 8.80667 13.6377 8.28 13.6377 7.64C13.6377 6.74667 13.9843 6.04 14.6777 5.52C15.3843 4.98667 16.3177 4.72 17.4777 4.72C18.251 4.72 18.931 4.84667 19.5177 5.1C20.1177 5.34 20.5777 5.68 20.8977 6.12C21.2177 6.56 21.3777 7.05333 21.3777 7.6V7.66C21.3777 7.79333 21.311 7.86 21.1777 7.86H19.7777C19.6443 7.86 19.5777 7.79333 19.5777 7.66V7.6C19.5777 7.21333 19.3843 6.89333 18.9977 6.64C18.6243 6.37333 18.111 6.24 17.4577 6.24C16.871 6.24 16.391 6.35333 16.0177 6.58C15.6577 6.80667 15.4777 7.11333 15.4777 7.5C15.4777 7.88667 15.651 8.18 15.9977 8.38C16.3577 8.58 16.931 8.79333 17.7177 9.02C18.491 9.23333 19.131 9.44667 19.6377 9.66C20.1577 9.86 20.5977 10.1667 20.9577 10.58C21.3177 10.98 21.4977 11.5067 21.4977 12.16C21.4977 13.0667 21.1377 13.7867 20.4177 14.32C19.711 14.8533 18.7643 15.12 17.5777 15.12ZM24.9038 3.22C24.5304 3.22 24.2238 3.1 23.9838 2.86C23.7438 2.62 23.6238 2.31333 23.6238 1.94C23.6238 1.56667 23.7438 1.26 23.9838 1.02C24.2238 0.779999 24.5304 0.66 24.9038 0.66C25.2771 0.66 25.5838 0.779999 25.8238 1.02C26.0638 1.26 26.1838 1.56667 26.1838 1.94C26.1838 2.31333 26.0638 2.62 25.8238 2.86C25.5838 3.1 25.2771 3.22 24.9038 3.22ZM24.1038 14.98C23.9704 14.98 23.9038 14.9133 23.9038 14.78V5.02C23.9038 4.88667 23.9704 4.82 24.1038 4.82H25.6238C25.7571 4.82 25.8238 4.88667 25.8238 5.02V14.78C25.8238 14.9133 25.7571 14.98 25.6238 14.98H24.1038ZM32.4214 15.12C31.6214 15.12 30.9147 15 30.3014 14.76C29.7014 14.52 29.2347 14.1933 28.9014 13.78C28.5681 13.3533 28.4014 12.8867 28.4014 12.38V12.16C28.4014 12.0267 28.4681 11.96 28.6014 11.96H30.0414C30.1747 11.96 30.2414 12.0267 30.2414 12.16V12.26C30.2414 12.6333 30.4414 12.96 30.8414 13.24C31.2547 13.52 31.7747 13.66 32.4014 13.66C33.0014 13.66 33.4881 13.5333 33.8614 13.28C34.2347 13.0133 34.4214 12.68 34.4214 12.28C34.4214 11.8933 34.2481 11.6067 33.9014 11.42C33.5547 11.22 32.9947 11.0133 32.2214 10.8C31.4614 10.5867 30.8214 10.3733 30.3014 10.16C29.7947 9.93333 29.3614 9.62 29.0014 9.22C28.6547 8.80667 28.4814 8.28 28.4814 7.64C28.4814 6.74667 28.8281 6.04 29.5214 5.52C30.2281 4.98667 31.1614 4.72 32.3214 4.72C33.0947 4.72 33.7747 4.84667 34.3614 5.1C34.9614 5.34 35.4214 5.68 35.7414 6.12C36.0614 6.56 36.2214 7.05333 36.2214 7.6V7.66C36.2214 7.79333 36.1547 7.86 36.0214 7.86H34.6214C34.4881 7.86 34.4214 7.79333 34.4214 7.66V7.6C34.4214 7.21333 34.2281 6.89333 33.8414 6.64C33.4681 6.37333 32.9547 6.24 32.3014 6.24C31.7147 6.24 31.2347 6.35333 30.8614 6.58C30.5014 6.80667 30.3214 7.11333 30.3214 7.5C30.3214 7.88667 30.4947 8.18 30.8414 8.38C31.2014 8.58 31.7747 8.79333 32.5614 9.02C33.3347 9.23333 33.9747 9.44667 34.4814 9.66C35.0014 9.86 35.4414 10.1667 35.8014 10.58C36.1614 10.98 36.3414 11.5067 36.3414 12.16C36.3414 13.0667 35.9814 13.7867 35.2614 14.32C34.5547 14.8533 33.6081 15.12 32.4214 15.12ZM39.7475 3.22C39.3742 3.22 39.0675 3.1 38.8275 2.86C38.5875 2.62 38.4675 2.31333 38.4675 1.94C38.4675 1.56667 38.5875 1.26 38.8275 1.02C39.0675 0.779999 39.3742 0.66 39.7475 0.66C40.1208 0.66 40.4275 0.779999 40.6675 1.02C40.9075 1.26 41.0275 1.56667 41.0275 1.94C41.0275 2.31333 40.9075 2.62 40.6675 2.86C40.4275 3.1 40.1208 3.22 39.7475 3.22ZM38.9475 14.98C38.8142 14.98 38.7475 14.9133 38.7475 14.78V5.02C38.7475 4.88667 38.8142 4.82 38.9475 4.82H40.4675C40.6008 4.82 40.6675 4.88667 40.6675 5.02V14.78C40.6675 14.9133 40.6008 14.98 40.4675 14.98H38.9475ZM48.7052 6.2C48.7052 6.33333 48.6385 6.4 48.5052 6.4H46.3452C46.2918 6.4 46.2652 6.42667 46.2652 6.48V11.78C46.2652 12.34 46.3918 12.7467 46.6452 13C46.8985 13.24 47.2918 13.36 47.8252 13.36H48.4052C48.5385 13.36 48.6052 13.4267 48.6052 13.56V14.8C48.6052 14.9333 48.5385 15 48.4052 15C47.9785 15.0267 47.6718 15.04 47.4852 15.04C46.4718 15.04 45.7052 14.86 45.1852 14.5C44.6785 14.1267 44.4252 13.4467 44.4252 12.46V6.48C44.4252 6.42667 44.3985 6.4 44.3452 6.4H43.1252C42.9918 6.4 42.9252 6.33333 42.9252 6.2V5.02C42.9252 4.88667 42.9918 4.82 43.1252 4.82H44.3452C44.3985 4.82 44.4252 4.79333 44.4252 4.74V2.38C44.4252 2.24667 44.4918 2.18 44.6252 2.18H46.0652C46.1985 2.18 46.2652 2.24667 46.2652 2.38V4.74C46.2652 4.79333 46.2918 4.82 46.3452 4.82H48.5052C48.6385 4.82 48.7052 4.88667 48.7052 5.02V6.2ZM52.228 3.22C51.8546 3.22 51.548 3.1 51.308 2.86C51.068 2.62 50.948 2.31333 50.948 1.94C50.948 1.56667 51.068 1.26 51.308 1.02C51.548 0.779999 51.8546 0.66 52.228 0.66C52.6013 0.66 52.908 0.779999 53.148 1.02C53.388 1.26 53.508 1.56667 53.508 1.94C53.508 2.31333 53.388 2.62 53.148 2.86C52.908 3.1 52.6013 3.22 52.228 3.22ZM51.428 14.98C51.2946 14.98 51.228 14.9133 51.228 14.78V5.02C51.228 4.88667 51.2946 4.82 51.428 4.82H52.948C53.0813 4.82 53.148 4.88667 53.148 5.02V14.78C53.148 14.9133 53.0813 14.98 52.948 14.98H51.428ZM62.4856 1.2C62.4856 1.06667 62.5523 0.999999 62.6856 0.999999H64.2056C64.339 0.999999 64.4056 1.06667 64.4056 1.2V14.8C64.4056 14.9333 64.339 15 64.2056 15H62.6856C62.5523 15 62.4856 14.9333 62.4856 14.8V14.14C62.4856 14.1133 62.4723 14.0933 62.4456 14.08C62.4323 14.0667 62.4123 14.0733 62.3856 14.1C62.0923 14.4333 61.7456 14.6933 61.3456 14.88C60.9456 15.0667 60.5123 15.16 60.0456 15.16C59.0856 15.16 58.2856 14.9267 57.6456 14.46C57.019 13.98 56.559 13.3067 56.2656 12.44C56.0123 11.7333 55.8856 10.88 55.8856 9.88C55.8856 8.94667 55.9923 8.14 56.2056 7.46C56.4856 6.58 56.9456 5.89333 57.5856 5.4C58.2256 4.90667 59.0456 4.66 60.0456 4.66C60.499 4.66 60.9256 4.75333 61.3256 4.94C61.739 5.11333 62.0923 5.36667 62.3856 5.7C62.4123 5.72667 62.4323 5.73333 62.4456 5.72C62.4723 5.70667 62.4856 5.68667 62.4856 5.66V1.2ZM61.9856 12.42C62.2923 11.86 62.4456 11.02 62.4456 9.9C62.4456 8.78 62.279 7.92667 61.9456 7.34C61.559 6.66 60.9923 6.32 60.2456 6.32C59.4456 6.32 58.8523 6.64 58.4656 7.28C58.039 7.94667 57.8256 8.82667 57.8256 9.92C57.8256 10.9467 57.9923 11.7733 58.3256 12.4C58.7123 13.1333 59.3456 13.5 60.2256 13.5C60.999 13.5 61.5856 13.14 61.9856 12.42ZM71.3803 15.16C70.3936 15.16 69.5336 14.9133 68.8003 14.42C68.067 13.9133 67.5536 13.2133 67.2603 12.32C67.0203 11.6 66.9003 10.7867 66.9003 9.88C66.9003 8.93333 67.0136 8.13333 67.2403 7.48C67.5336 6.6 68.047 5.91333 68.7803 5.42C69.5136 4.91333 70.387 4.66 71.4003 4.66C72.3603 4.66 73.1936 4.91333 73.9003 5.42C74.6203 5.91333 75.1336 6.59333 75.4403 7.46C75.6803 8.14 75.8003 8.94 75.8003 9.86C75.8003 10.7933 75.6803 11.6133 75.4403 12.32C75.147 13.2133 74.6403 13.9133 73.9203 14.42C73.2003 14.9133 72.3536 15.16 71.3803 15.16ZM71.3803 13.5C71.9136 13.5 72.3803 13.3533 72.7803 13.06C73.1803 12.7533 73.467 12.3267 73.6403 11.78C73.787 11.2733 73.8603 10.6467 73.8603 9.9C73.8603 9.15333 73.7936 8.53333 73.6603 8.04C73.487 7.49333 73.2003 7.07333 72.8003 6.78C72.4003 6.47333 71.9136 6.32 71.3403 6.32C70.7936 6.32 70.3203 6.47333 69.9203 6.78C69.5203 7.07333 69.2336 7.49333 69.0603 8.04C68.9136 8.50667 68.8403 9.12667 68.8403 9.9C68.8403 10.6733 68.9136 11.3 69.0603 11.78C69.2203 12.3267 69.5003 12.7533 69.9003 13.06C70.3136 13.3533 70.807 13.5 71.3803 13.5Z" fill="white"/>
</svg>
