<svg width="120" height="20" viewBox="0 0 120 20" fill="none" xmlns="http://www.w3.org/2000/svg">
<path d="M8.1 7.7C8.03333 7.74 8.03333 7.78 8.1 7.82C9.51333 8.42 10.22 9.53333 10.22 11.16C10.22 12.3867 9.81333 13.3333 9 14C8.18667 14.6667 7.12667 15 5.82 15H0.84C0.706667 15 0.64 14.9333 0.64 14.8V1.2C0.64 1.06667 0.706667 0.999999 0.84 0.999999H5.66C7.04667 0.999999 8.12 1.32 8.88 1.96C9.65333 2.58667 10.04 3.50667 10.04 4.72C10.04 6.16 9.39333 7.15333 8.1 7.7ZM2.64 2.66C2.58667 2.66 2.56 2.68667 2.56 2.74V6.96C2.56 7.01333 2.58667 7.04 2.64 7.04H5.66C6.43333 7.04 7.04 6.84667 7.48 6.46C7.93333 6.07333 8.16 5.54667 8.16 4.88C8.16 4.2 7.93333 3.66 7.48 3.26C7.04 2.86 6.43333 2.66 5.66 2.66H2.64ZM5.82 13.32C6.58 13.32 7.18 13.1133 7.62 12.7C8.07333 12.2733 8.3 11.7 8.3 10.98C8.3 10.26 8.07333 9.69333 7.62 9.28C7.16667 8.85333 6.54667 8.64 5.76 8.64H2.64C2.58667 8.64 2.56 8.66667 2.56 8.72V13.24C2.56 13.2933 2.58667 13.32 2.64 13.32H5.82ZM16.5028 4.66C17.3161 4.66 18.0228 4.80667 18.6228 5.1C19.2361 5.38 19.7028 5.78 20.0228 6.3C20.3561 6.80667 20.5228 7.38667 20.5228 8.04V14.8C20.5228 14.9333 20.4561 15 20.3228 15H18.8028C18.6695 15 18.6028 14.9333 18.6028 14.8V14.08C18.6028 14.0133 18.5695 14 18.5028 14.04C18.1561 14.4 17.7295 14.68 17.2228 14.88C16.7295 15.0667 16.1761 15.16 15.5628 15.16C14.5761 15.16 13.7561 14.9133 13.1028 14.42C12.4628 13.9133 12.1428 13.1533 12.1428 12.14C12.1428 11.1 12.5028 10.2867 13.2228 9.7C13.9561 9.1 14.9761 8.8 16.2828 8.8H18.5228C18.5761 8.8 18.6028 8.77333 18.6028 8.72V8.18C18.6028 7.59333 18.4295 7.14 18.0828 6.82C17.7495 6.48667 17.2361 6.32 16.5428 6.32C15.9828 6.32 15.5228 6.43333 15.1628 6.66C14.8161 6.87333 14.6028 7.16667 14.5228 7.54C14.4828 7.67333 14.4028 7.73333 14.2828 7.72L12.6628 7.5C12.5295 7.47333 12.4695 7.42 12.4828 7.34C12.5895 6.55333 13.0095 5.91333 13.7428 5.42C14.4761 4.91333 15.3961 4.66 16.5028 4.66ZM15.9828 13.54C16.6895 13.54 17.3028 13.3533 17.8228 12.98C18.3428 12.6067 18.6028 12.1333 18.6028 11.56V10.38C18.6028 10.3267 18.5761 10.3 18.5228 10.3H16.6428C15.8561 10.3 15.2295 10.4533 14.7628 10.76C14.2961 11.0667 14.0628 11.4933 14.0628 12.04C14.0628 12.5333 14.2361 12.9067 14.5828 13.16C14.9428 13.4133 15.4095 13.54 15.9828 13.54ZM24.1348 3.22C23.7615 3.22 23.4548 3.1 23.2148 2.86C22.9748 2.62 22.8548 2.31333 22.8548 1.94C22.8548 1.56667 22.9748 1.26 23.2148 1.02C23.4548 0.779999 23.7615 0.66 24.1348 0.66C24.5215 0.66 24.8282 0.779999 25.0548 1.02C25.2948 1.24667 25.4148 1.55333 25.4148 1.94C25.4148 2.31333 25.2948 2.62 25.0548 2.86C24.8148 3.1 24.5082 3.22 24.1348 3.22ZM21.0348 19.14C20.9015 19.14 20.8348 19.0733 20.8348 18.94V17.7C20.8348 17.5667 20.9015 17.5 21.0348 17.5C21.7948 17.5 22.3415 17.3467 22.6748 17.04C23.0215 16.7333 23.1948 16.2467 23.1948 15.58L23.1748 5.02C23.1748 4.88667 23.2415 4.82 23.3748 4.82H24.8948C25.0282 4.82 25.0948 4.88667 25.0948 5.02V15.56C25.0948 16.44 24.9615 17.14 24.6948 17.66C24.4282 18.18 24.0015 18.56 23.4148 18.8C22.8282 19.04 22.0348 19.1533 21.0348 19.14ZM31.7958 4.66C32.6091 4.66 33.3158 4.80667 33.9158 5.1C34.5291 5.38 34.9958 5.78 35.3158 6.3C35.6491 6.80667 35.8158 7.38667 35.8158 8.04V14.8C35.8158 14.9333 35.7491 15 35.6158 15H34.0958C33.9624 15 33.8958 14.9333 33.8958 14.8V14.08C33.8958 14.0133 33.8624 14 33.7958 14.04C33.4491 14.4 33.0224 14.68 32.5158 14.88C32.0224 15.0667 31.4691 15.16 30.8558 15.16C29.8691 15.16 29.0491 14.9133 28.3958 14.42C27.7558 13.9133 27.4358 13.1533 27.4358 12.14C27.4358 11.1 27.7958 10.2867 28.5158 9.7C29.2491 9.1 30.2691 8.8 31.5758 8.8H33.8158C33.8691 8.8 33.8958 8.77333 33.8958 8.72V8.18C33.8958 7.59333 33.7224 7.14 33.3758 6.82C33.0424 6.48667 32.5291 6.32 31.8358 6.32C31.2758 6.32 30.8158 6.43333 30.4558 6.66C30.1091 6.87333 29.8958 7.16667 29.8158 7.54C29.7758 7.67333 29.6958 7.73333 29.5758 7.72L27.9558 7.5C27.8224 7.47333 27.7624 7.42 27.7758 7.34C27.8824 6.55333 28.3024 5.91333 29.0358 5.42C29.7691 4.91333 30.6891 4.66 31.7958 4.66ZM31.2758 13.54C31.9824 13.54 32.5958 13.3533 33.1158 12.98C33.6358 12.6067 33.8958 12.1333 33.8958 11.56V10.38C33.8958 10.3267 33.8691 10.3 33.8158 10.3H31.9358C31.1491 10.3 30.5224 10.4533 30.0558 10.76C29.5891 11.0667 29.3558 11.4933 29.3558 12.04C29.3558 12.5333 29.5291 12.9067 29.8758 13.16C30.2358 13.4133 30.7024 13.54 31.2758 13.54ZM43.5717 3.22C43.1984 3.22 42.8917 3.1 42.6517 2.86C42.4117 2.62 42.2917 2.31333 42.2917 1.94C42.2917 1.56667 42.4117 1.26 42.6517 1.02C42.8917 0.779999 43.1984 0.66 43.5717 0.66C43.9451 0.66 44.2517 0.779999 44.4917 1.02C44.7317 1.26 44.8517 1.56667 44.8517 1.94C44.8517 2.31333 44.7317 2.62 44.4917 2.86C44.2517 3.1 43.9451 3.22 43.5717 3.22ZM42.7717 14.98C42.6384 14.98 42.5717 14.9133 42.5717 14.78V5.02C42.5717 4.88667 42.6384 4.82 42.7717 4.82H44.2917C44.4251 4.82 44.4917 4.88667 44.4917 5.02V14.78C44.4917 14.9133 44.4251 14.98 44.2917 14.98H42.7717ZM52.0494 4.68C53.1427 4.68 54.0094 5 54.6494 5.64C55.2894 6.26667 55.6094 7.12 55.6094 8.2V14.8C55.6094 14.9333 55.5427 15 55.4094 15H53.8894C53.756 15 53.6894 14.9333 53.6894 14.8V8.58C53.6894 7.91333 53.496 7.37333 53.1094 6.96C52.7227 6.54667 52.2094 6.34 51.5694 6.34C50.9427 6.34 50.4294 6.54667 50.0294 6.96C49.6294 7.37333 49.4294 7.90667 49.4294 8.56V14.8C49.4294 14.9333 49.3627 15 49.2294 15H47.7094C47.576 15 47.5094 14.9333 47.5094 14.8V5.02C47.5094 4.88667 47.576 4.82 47.7094 4.82H49.2294C49.3627 4.82 49.4294 4.88667 49.4294 5.02V5.74C49.4294 5.76667 49.436 5.78667 49.4494 5.8C49.476 5.81333 49.496 5.80667 49.5094 5.78C50.0827 5.04667 50.9294 4.68 52.0494 4.68ZM60.7558 15C60.6358 15 60.5558 14.9467 60.5158 14.84L57.2558 5.04L57.2358 4.96C57.2358 4.86667 57.2958 4.82 57.4158 4.82H59.0958C59.2158 4.82 59.2958 4.87333 59.3358 4.98L61.5358 12.22C61.5491 12.2467 61.5691 12.26 61.5958 12.26C61.6224 12.26 61.6424 12.2467 61.6558 12.22L63.8358 4.98C63.8758 4.87333 63.9558 4.82 64.0758 4.82L65.7558 4.84C65.9024 4.84 65.9558 4.91333 65.9158 5.06L62.6758 14.84C62.6358 14.9467 62.5558 15 62.4358 15H60.7558ZM75.6908 8.64C75.7441 9.18667 75.7641 9.8 75.7508 10.48C75.7508 10.6133 75.6841 10.68 75.5508 10.68H69.1708C69.1174 10.68 69.0908 10.7067 69.0908 10.76C69.0908 11.2133 69.1308 11.56 69.2108 11.8C69.3574 12.3333 69.6508 12.7533 70.0908 13.06C70.5441 13.3533 71.1108 13.5 71.7908 13.5C72.7774 13.5 73.5374 13.0933 74.0708 12.28C74.1374 12.1467 74.2241 12.1267 74.3308 12.22L75.4708 12.98C75.5641 13.06 75.5841 13.1467 75.5308 13.24C75.1574 13.84 74.6241 14.3133 73.9308 14.66C73.2508 15.0067 72.4774 15.18 71.6108 15.18C70.6374 15.18 69.8174 14.9667 69.1508 14.54C68.4841 14.1133 67.9841 13.5067 67.6508 12.72C67.3308 11.9333 67.1708 10.98 67.1708 9.86C67.1708 8.88667 67.2441 8.14667 67.3908 7.64C67.6308 6.72 68.1108 5.99333 68.8308 5.46C69.5508 4.92667 70.4241 4.66 71.4508 4.66C72.7974 4.66 73.8041 5 74.4708 5.68C75.1374 6.34667 75.5441 7.33333 75.6908 8.64ZM71.4508 6.32C70.8774 6.32 70.4041 6.46667 70.0308 6.76C69.6574 7.04 69.4041 7.42 69.2708 7.9C69.1774 8.19333 69.1174 8.56667 69.0908 9.02C69.0908 9.07333 69.1174 9.1 69.1708 9.1H73.7508C73.8041 9.1 73.8308 9.07333 73.8308 9.02C73.8041 8.58 73.7641 8.25333 73.7108 8.04C73.5774 7.52 73.3108 7.10667 72.9108 6.8C72.5241 6.48 72.0374 6.32 71.4508 6.32ZM82.6334 4.72C83.0601 4.72 83.4468 4.80667 83.7934 4.98C83.8868 5.02 83.9201 5.1 83.8934 5.22L83.5734 6.72C83.5601 6.84 83.4801 6.88 83.3334 6.84C83.1068 6.74667 82.8401 6.7 82.5334 6.7L82.2534 6.72C81.6268 6.74667 81.1068 6.96667 80.6934 7.38C80.2934 7.78 80.0934 8.30667 80.0934 8.96V14.8C80.0934 14.9333 80.0268 15 79.8934 15H78.3734C78.2401 15 78.1734 14.9333 78.1734 14.8V5.02C78.1734 4.88667 78.2401 4.82 78.3734 4.82H79.8934C80.0268 4.82 80.0934 4.88667 80.0934 5.02V6.08C80.0934 6.12 80.1001 6.14667 80.1134 6.16C80.1401 6.16 80.1601 6.14667 80.1734 6.12C80.7734 5.18667 81.5934 4.72 82.6334 4.72ZM89.0777 15.12C88.2777 15.12 87.571 15 86.9577 14.76C86.3577 14.52 85.891 14.1933 85.5577 13.78C85.2243 13.3533 85.0577 12.8867 85.0577 12.38V12.16C85.0577 12.0267 85.1243 11.96 85.2577 11.96H86.6977C86.831 11.96 86.8977 12.0267 86.8977 12.16V12.26C86.8977 12.6333 87.0977 12.96 87.4977 13.24C87.911 13.52 88.431 13.66 89.0577 13.66C89.6577 13.66 90.1443 13.5333 90.5177 13.28C90.891 13.0133 91.0777 12.68 91.0777 12.28C91.0777 11.8933 90.9043 11.6067 90.5577 11.42C90.211 11.22 89.651 11.0133 88.8777 10.8C88.1177 10.5867 87.4777 10.3733 86.9577 10.16C86.451 9.93333 86.0177 9.62 85.6577 9.22C85.311 8.80667 85.1377 8.28 85.1377 7.64C85.1377 6.74667 85.4843 6.04 86.1777 5.52C86.8843 4.98667 87.8177 4.72 88.9777 4.72C89.751 4.72 90.431 4.84667 91.0177 5.1C91.6177 5.34 92.0777 5.68 92.3977 6.12C92.7177 6.56 92.8777 7.05333 92.8777 7.6V7.66C92.8777 7.79333 92.811 7.86 92.6777 7.86H91.2777C91.1443 7.86 91.0777 7.79333 91.0777 7.66V7.6C91.0777 7.21333 90.8843 6.89333 90.4977 6.64C90.1243 6.37333 89.611 6.24 88.9577 6.24C88.371 6.24 87.891 6.35333 87.5177 6.58C87.1577 6.80667 86.9777 7.11333 86.9777 7.5C86.9777 7.88667 87.151 8.18 87.4977 8.38C87.8577 8.58 88.431 8.79333 89.2177 9.02C89.991 9.23333 90.631 9.44667 91.1377 9.66C91.6577 9.86 92.0977 10.1667 92.4577 10.58C92.8177 10.98 92.9977 11.5067 92.9977 12.16C92.9977 13.0667 92.6377 13.7867 91.9177 14.32C91.211 14.8533 90.2643 15.12 89.0777 15.12ZM96.4038 3.22C96.0304 3.22 95.7238 3.1 95.4838 2.86C95.2438 2.62 95.1238 2.31333 95.1238 1.94C95.1238 1.56667 95.2438 1.26 95.4838 1.02C95.7238 0.779999 96.0304 0.66 96.4038 0.66C96.7771 0.66 97.0838 0.779999 97.3238 1.02C97.5638 1.26 97.6838 1.56667 97.6838 1.94C97.6838 2.31333 97.5638 2.62 97.3238 2.86C97.0838 3.1 96.7771 3.22 96.4038 3.22ZM95.6038 14.98C95.4704 14.98 95.4038 14.9133 95.4038 14.78V5.02C95.4038 4.88667 95.4704 4.82 95.6038 4.82H97.1238C97.2571 4.82 97.3238 4.88667 97.3238 5.02V14.78C97.3238 14.9133 97.2571 14.98 97.1238 14.98H95.6038ZM104.501 15.16C103.515 15.16 102.655 14.9133 101.921 14.42C101.188 13.9133 100.675 13.2133 100.381 12.32C100.141 11.6 100.021 10.7867 100.021 9.88C100.021 8.93333 100.135 8.13333 100.361 7.48C100.655 6.6 101.168 5.91333 101.901 5.42C102.635 4.91333 103.508 4.66 104.521 4.66C105.481 4.66 106.315 4.91333 107.021 5.42C107.741 5.91333 108.255 6.59333 108.561 7.46C108.801 8.14 108.921 8.94 108.921 9.86C108.921 10.7933 108.801 11.6133 108.561 12.32C108.268 13.2133 107.761 13.9133 107.041 14.42C106.321 14.9133 105.475 15.16 104.501 15.16ZM104.501 13.5C105.035 13.5 105.501 13.3533 105.901 13.06C106.301 12.7533 106.588 12.3267 106.761 11.78C106.908 11.2733 106.981 10.6467 106.981 9.9C106.981 9.15333 106.915 8.53333 106.781 8.04C106.608 7.49333 106.321 7.07333 105.921 6.78C105.521 6.47333 105.035 6.32 104.461 6.32C103.915 6.32 103.441 6.47333 103.041 6.78C102.641 7.07333 102.355 7.49333 102.181 8.04C102.035 8.50667 101.961 9.12667 101.961 9.9C101.961 10.6733 102.035 11.3 102.181 11.78C102.341 12.3267 102.621 12.7533 103.021 13.06C103.435 13.3533 103.928 13.5 104.501 13.5ZM103.521 3.54C103.441 3.54 103.381 3.52 103.341 3.48C103.315 3.42667 103.321 3.36667 103.361 3.3L104.541 1.14C104.581 1.04667 104.661 0.999999 104.781 0.999999H106.121C106.201 0.999999 106.248 1.02667 106.261 1.08C106.288 1.12 106.281 1.17333 106.241 1.24L104.821 3.4C104.755 3.49333 104.675 3.54 104.581 3.54H103.521ZM115.702 4.68C116.795 4.68 117.662 5 118.302 5.64C118.942 6.26667 119.262 7.12 119.262 8.2V14.8C119.262 14.9333 119.195 15 119.062 15H117.542C117.408 15 117.342 14.9333 117.342 14.8V8.58C117.342 7.91333 117.148 7.37333 116.762 6.96C116.375 6.54667 115.862 6.34 115.222 6.34C114.595 6.34 114.082 6.54667 113.682 6.96C113.282 7.37333 113.082 7.90667 113.082 8.56V14.8C113.082 14.9333 113.015 15 112.882 15H111.362C111.228 15 111.162 14.9333 111.162 14.8V5.02C111.162 4.88667 111.228 4.82 111.362 4.82H112.882C113.015 4.82 113.082 4.88667 113.082 5.02V5.74C113.082 5.76667 113.088 5.78667 113.102 5.8C113.128 5.81333 113.148 5.80667 113.162 5.78C113.735 5.04667 114.582 4.68 115.702 4.68Z" fill="white"/>
</svg>
