<svg width="72" height="73" viewBox="0 0 72 73" fill="none" xmlns="http://www.w3.org/2000/svg">
<path d="M17.5179 45.0357C18.5835 45.0357 19.6054 44.6124 20.3589 43.8589C21.1124 43.1054 21.5357 42.0835 21.5357 41.0179C21.5357 39.9523 21.1124 38.9303 20.3589 38.1768C19.6054 37.4233 18.5835 37 17.5179 37C16.4523 37 15.4303 37.4233 14.6768 38.1768C13.9233 38.9303 13.5 39.9523 13.5 41.0179C13.5 42.0835 13.9233 43.1054 14.6768 43.8589C15.4303 44.6124 16.4523 45.0357 17.5179 45.0357Z" fill="#F6871F"/>
<path d="M58.4999 41.0179C58.4999 42.0835 58.0766 43.1054 57.3231 43.8589C56.5697 44.6124 55.5477 45.0357 54.4821 45.0357C53.4165 45.0357 52.3945 44.6124 51.641 43.8589C50.8875 43.1054 50.4642 42.0835 50.4642 41.0179C50.4642 39.9523 50.8875 38.9303 51.641 38.1768C52.3945 37.4233 53.4165 37 54.4821 37C55.5477 37 56.5697 37.4233 57.3231 38.1768C58.0766 38.9303 58.4999 39.9523 58.4999 41.0179Z" fill="#F6871F"/>
<path d="M28.7678 45.0359C28.1284 45.0359 27.5152 45.2899 27.0631 45.742C26.611 46.1941 26.3571 46.8072 26.3571 47.4466C26.3571 48.086 26.611 48.6991 27.0631 49.1512C27.5152 49.6033 28.1284 49.8573 28.7678 49.8573H43.2321C43.8714 49.8573 44.4846 49.6033 44.9367 49.1512C45.3888 48.6991 45.6428 48.086 45.6428 47.4466C45.6428 46.8072 45.3888 46.1941 44.9367 45.742C44.4846 45.2899 43.8714 45.0359 43.2321 45.0359H28.7678Z" fill="#F6871F"/>
<path d="M7.80104 22.5358L6.90104 26.1326C5.08976 26.6861 3.50406 27.8066 2.37743 29.329C1.25079 30.8514 0.642747 32.6954 0.642822 34.5894V63.5179C0.642822 65.8623 1.5741 68.1106 3.23179 69.7682C4.88948 71.4259 7.13778 72.3572 9.48211 72.3572H12.6964C15.0407 72.3572 17.289 71.4259 18.9467 69.7682C20.6044 68.1106 21.5357 65.8623 21.5357 63.5179V60.3036H50.4643V63.5179C50.4643 65.8623 51.3955 68.1106 53.0532 69.7682C54.7109 71.4259 56.9592 72.3572 59.3035 72.3572H62.5178C64.8622 72.3572 67.1105 71.4259 68.7681 69.7682C70.4258 68.1106 71.3571 65.8623 71.3571 63.5179V34.5894C71.3571 30.6036 68.7214 27.2383 65.0989 26.1358L64.1989 22.5358H67.3393C67.9786 22.5358 68.5918 22.2818 69.0439 21.8297C69.496 21.3776 69.75 20.7644 69.75 20.1251C69.75 19.4857 69.496 18.8725 69.0439 18.4204C68.5918 17.9683 67.9786 17.7144 67.3393 17.7144H62.9935L61.0585 9.96793C60.4063 7.36037 58.9012 5.04564 56.7824 3.39165C54.6637 1.73765 52.0529 0.839292 49.365 0.839355H22.635C19.9471 0.839292 17.3363 1.73765 15.2175 3.39165C13.0988 5.04564 11.5937 7.36037 10.9414 9.96793L9.00639 17.7144H4.66068C4.02132 17.7144 3.40814 17.9683 2.95605 18.4204C2.50395 18.8725 2.24997 19.4857 2.24997 20.1251C2.24997 20.7644 2.50395 21.3776 2.95605 21.8297C3.40814 22.2818 4.02132 22.5358 4.66068 22.5358H7.80104ZM22.635 5.66078H49.365C50.9778 5.6606 52.5444 6.19955 53.8158 7.19196C55.0872 8.18437 55.9904 9.57329 56.3818 11.1379L60.0332 25.7501H11.9668L15.6214 11.1379C16.0126 9.57382 16.9153 8.1853 18.1861 7.19295C19.4568 6.2006 21.0227 5.66132 22.635 5.66078ZM55.2857 63.5179V60.3036H66.5357V63.5179C66.5357 65.7358 64.7357 67.5358 62.5178 67.5358H59.3035C57.0857 67.5358 55.2857 65.7358 55.2857 63.5179ZM16.7143 60.3036V63.5179C16.7143 65.7358 14.9143 67.5358 12.6964 67.5358H9.48211C7.26425 67.5358 5.46425 65.7358 5.46425 63.5179V60.3036H16.7143ZM9.48211 30.5715H62.5178C64.7357 30.5715 66.5357 32.3715 66.5357 34.5894V55.4822H5.46425V34.5894C5.46425 32.3715 7.26425 30.5715 9.48211 30.5715Z" fill="#F6871F"/>
</svg>
