<svg width="80" height="16" viewBox="0 0 80 16" fill="none" xmlns="http://www.w3.org/2000/svg">
<path d="M0.84 15C0.706667 15 0.64 14.9333 0.64 14.8V1.2C0.64 1.06667 0.706667 0.999999 0.84 0.999999H5.68C7.06667 0.999999 8.17333 1.36667 9 2.1C9.82667 2.82 10.24 3.78667 10.24 5V11C10.24 12.2133 9.82667 13.1867 9 13.92C8.17333 14.64 7.06667 15 5.68 15H0.84ZM2.56 13.26C2.56 13.3133 2.58667 13.34 2.64 13.34H5.76C6.53333 13.34 7.14667 13.1067 7.6 12.64C8.06667 12.16 8.30667 11.52 8.32 10.72V5.28C8.32 4.48 8.08667 3.84667 7.62 3.38C7.16667 2.9 6.54667 2.66 5.76 2.66H2.64C2.58667 2.66 2.56 2.68667 2.56 2.74V13.26ZM13.9233 3.22C13.5499 3.22 13.2433 3.1 13.0033 2.86C12.7633 2.62 12.6433 2.31333 12.6433 1.94C12.6433 1.56667 12.7633 1.26 13.0033 1.02C13.2433 0.779999 13.5499 0.66 13.9233 0.66C14.2966 0.66 14.6033 0.779999 14.8433 1.02C15.0833 1.26 15.2033 1.56667 15.2033 1.94C15.2033 2.31333 15.0833 2.62 14.8433 2.86C14.6033 3.1 14.2966 3.22 13.9233 3.22ZM13.1233 14.98C12.9899 14.98 12.9233 14.9133 12.9233 14.78V5.02C12.9233 4.88667 12.9899 4.82 13.1233 4.82H14.6433C14.7766 4.82 14.8433 4.88667 14.8433 5.02V14.78C14.8433 14.9133 14.7766 14.98 14.6433 14.98H13.1233ZM22.4009 4.68C23.4943 4.68 24.3609 5 25.0009 5.64C25.6409 6.26667 25.9609 7.12 25.9609 8.2V14.8C25.9609 14.9333 25.8943 15 25.7609 15H24.2409C24.1076 15 24.0409 14.9333 24.0409 14.8V8.58C24.0409 7.91333 23.8476 7.37333 23.4609 6.96C23.0743 6.54667 22.5609 6.34 21.9209 6.34C21.2943 6.34 20.7809 6.54667 20.3809 6.96C19.9809 7.37333 19.7809 7.90667 19.7809 8.56V14.8C19.7809 14.9333 19.7143 15 19.5809 15H18.0609C17.9276 15 17.8609 14.9333 17.8609 14.8V5.02C17.8609 4.88667 17.9276 4.82 18.0609 4.82H19.5809C19.7143 4.82 19.7809 4.88667 19.7809 5.02V5.74C19.7809 5.76667 19.7876 5.78667 19.8009 5.8C19.8276 5.81333 19.8476 5.80667 19.8609 5.78C20.4343 5.04667 21.2809 4.68 22.4009 4.68ZM32.4208 4.66C33.2341 4.66 33.9408 4.80667 34.5408 5.1C35.1541 5.38 35.6208 5.78 35.9408 6.3C36.2741 6.80667 36.4408 7.38667 36.4408 8.04V14.8C36.4408 14.9333 36.3741 15 36.2408 15H34.7208C34.5874 15 34.5208 14.9333 34.5208 14.8V14.08C34.5208 14.0133 34.4874 14 34.4208 14.04C34.0741 14.4 33.6474 14.68 33.1408 14.88C32.6474 15.0667 32.0941 15.16 31.4808 15.16C30.4941 15.16 29.6741 14.9133 29.0208 14.42C28.3808 13.9133 28.0608 13.1533 28.0608 12.14C28.0608 11.1 28.4208 10.2867 29.1408 9.7C29.8741 9.1 30.8941 8.8 32.2008 8.8H34.4408C34.4941 8.8 34.5208 8.77333 34.5208 8.72V8.18C34.5208 7.59333 34.3474 7.14 34.0008 6.82C33.6674 6.48667 33.1541 6.32 32.4608 6.32C31.9008 6.32 31.4408 6.43333 31.0808 6.66C30.7341 6.87333 30.5208 7.16667 30.4408 7.54C30.4008 7.67333 30.3208 7.73333 30.2008 7.72L28.5808 7.5C28.4474 7.47333 28.3874 7.42 28.4008 7.34C28.5074 6.55333 28.9274 5.91333 29.6608 5.42C30.3941 4.91333 31.3141 4.66 32.4208 4.66ZM31.9008 13.54C32.6074 13.54 33.2208 13.3533 33.7408 12.98C34.2608 12.6067 34.5208 12.1333 34.5208 11.56V10.38C34.5208 10.3267 34.4941 10.3 34.4408 10.3H32.5608C31.7741 10.3 31.1474 10.4533 30.6808 10.76C30.2141 11.0667 29.9808 11.4933 29.9808 12.04C29.9808 12.5333 30.1541 12.9067 30.5008 13.16C30.8608 13.4133 31.3274 13.54 31.9008 13.54ZM31.6408 3.54C31.5608 3.54 31.5008 3.52 31.4608 3.48C31.4341 3.42667 31.4408 3.36667 31.4808 3.3L32.6608 1.14C32.7008 1.04667 32.7808 0.999999 32.9008 0.999999H34.2408C34.3208 0.999999 34.3674 1.02667 34.3808 1.08C34.4074 1.12 34.4008 1.17333 34.3608 1.24L32.9408 3.4C32.8741 3.49333 32.7941 3.54 32.7008 3.54H31.6408ZM49.6128 4.68C50.6261 4.68 51.4261 4.98667 52.0128 5.6C52.5995 6.2 52.8928 7.04 52.8928 8.12V14.8C52.8928 14.9333 52.8261 15 52.6928 15H51.1928C51.0595 15 50.9928 14.9333 50.9928 14.8V8.52C50.9928 7.85333 50.8061 7.32667 50.4328 6.94C50.0728 6.54 49.5861 6.34 48.9728 6.34C48.3595 6.34 47.8595 6.53333 47.4728 6.92C47.0861 7.30667 46.8928 7.82667 46.8928 8.48V14.8C46.8928 14.9333 46.8261 15 46.6928 15H45.1928C45.0595 15 44.9928 14.9333 44.9928 14.8V8.52C44.9928 7.85333 44.8061 7.32667 44.4328 6.94C44.0728 6.54 43.5861 6.34 42.9728 6.34C42.3595 6.34 41.8661 6.53333 41.4928 6.92C41.1328 7.30667 40.9528 7.82667 40.9528 8.48V14.8C40.9528 14.9333 40.8861 15 40.7528 15H39.2328C39.0995 15 39.0328 14.9333 39.0328 14.8V5.02C39.0328 4.88667 39.0995 4.82 39.2328 4.82H40.7528C40.8861 4.82 40.9528 4.88667 40.9528 5.02V5.7C40.9528 5.72667 40.9595 5.74667 40.9728 5.76C40.9995 5.77333 41.0261 5.76667 41.0528 5.74C41.6395 5.03333 42.4928 4.68 43.6128 4.68C44.2928 4.68 44.8728 4.81333 45.3528 5.08C45.8328 5.33333 46.2061 5.71333 46.4728 6.22C46.5128 6.27333 46.5528 6.27333 46.5928 6.22C46.9128 5.7 47.3328 5.31333 47.8528 5.06C48.3861 4.80667 48.9728 4.68 49.6128 4.68ZM56.7163 3.22C56.3429 3.22 56.0363 3.1 55.7963 2.86C55.5563 2.62 55.4363 2.31333 55.4363 1.94C55.4363 1.56667 55.5563 1.26 55.7963 1.02C56.0363 0.779999 56.3429 0.66 56.7163 0.66C57.0896 0.66 57.3963 0.779999 57.6363 1.02C57.8763 1.26 57.9963 1.56667 57.9963 1.94C57.9963 2.31333 57.8763 2.62 57.6363 2.86C57.3963 3.1 57.0896 3.22 56.7163 3.22ZM55.9163 14.98C55.7829 14.98 55.7163 14.9133 55.7163 14.78V5.02C55.7163 4.88667 55.7829 4.82 55.9163 4.82H57.4363C57.5696 4.82 57.6363 4.88667 57.6363 5.02V14.78C57.6363 14.9133 57.5696 14.98 57.4363 14.98H55.9163ZM64.7339 15.16C63.7206 15.16 62.8539 14.9067 62.1339 14.4C61.4139 13.88 60.9206 13.18 60.6539 12.3C60.4539 11.6867 60.3539 10.88 60.3539 9.88C60.3539 8.96 60.4539 8.15333 60.6539 7.46C60.9206 6.60667 61.4139 5.92667 62.1339 5.42C62.8672 4.91333 63.7339 4.66 64.7339 4.66C65.7339 4.66 66.6072 4.91333 67.3539 5.42C68.1006 5.92667 68.5872 6.56667 68.8139 7.34C68.8939 7.55333 68.9472 7.77333 68.9739 8C68.9739 8.10667 68.9139 8.17333 68.7939 8.2L67.2939 8.42H67.2539C67.1606 8.42 67.0939 8.36 67.0539 8.24L66.9939 7.92C66.8872 7.46667 66.6272 7.08667 66.2139 6.78C65.8006 6.47333 65.3006 6.32 64.7139 6.32C64.1406 6.32 63.6539 6.47333 63.2539 6.78C62.8539 7.08667 62.5939 7.49333 62.4739 8C62.3539 8.48 62.2939 9.11333 62.2939 9.9C62.2939 10.6733 62.3539 11.3 62.4739 11.78C62.6072 12.3133 62.8672 12.7333 63.2539 13.04C63.6539 13.3467 64.1406 13.5 64.7139 13.5C65.3006 13.5 65.8006 13.3467 66.2139 13.04C66.6406 12.7333 66.9072 12.3333 67.0139 11.84C67.0272 11.8267 67.0272 11.8133 67.0139 11.8C67.0139 11.7733 67.0206 11.7533 67.0339 11.74V11.66C67.0739 11.5533 67.1472 11.5133 67.2539 11.54L68.7539 11.78C68.8606 11.8067 68.9139 11.86 68.9139 11.94V12.02C68.9139 12.14 68.8806 12.2867 68.8139 12.46C68.5872 13.2733 68.1006 13.9267 67.3539 14.42C66.6072 14.9133 65.7339 15.16 64.7339 15.16ZM75.2631 15.16C74.2765 15.16 73.4165 14.9133 72.6831 14.42C71.9498 13.9133 71.4365 13.2133 71.1431 12.32C70.9031 11.6 70.7831 10.7867 70.7831 9.88C70.7831 8.93333 70.8965 8.13333 71.1231 7.48C71.4165 6.6 71.9298 5.91333 72.6631 5.42C73.3965 4.91333 74.2698 4.66 75.2831 4.66C76.2431 4.66 77.0765 4.91333 77.7831 5.42C78.5031 5.91333 79.0165 6.59333 79.3231 7.46C79.5631 8.14 79.6831 8.94 79.6831 9.86C79.6831 10.7933 79.5631 11.6133 79.3231 12.32C79.0298 13.2133 78.5231 13.9133 77.8031 14.42C77.0831 14.9133 76.2365 15.16 75.2631 15.16ZM75.2631 13.5C75.7965 13.5 76.2631 13.3533 76.6631 13.06C77.0631 12.7533 77.3498 12.3267 77.5231 11.78C77.6698 11.2733 77.7431 10.6467 77.7431 9.9C77.7431 9.15333 77.6765 8.53333 77.5431 8.04C77.3698 7.49333 77.0831 7.07333 76.6831 6.78C76.2831 6.47333 75.7965 6.32 75.2231 6.32C74.6765 6.32 74.2031 6.47333 73.8031 6.78C73.4031 7.07333 73.1165 7.49333 72.9431 8.04C72.7965 8.50667 72.7231 9.12667 72.7231 9.9C72.7231 10.6733 72.7965 11.3 72.9431 11.78C73.1031 12.3267 73.3831 12.7533 73.7831 13.06C74.1965 13.3533 74.6898 13.5 75.2631 13.5Z" fill="white"/>
</svg>
