<svg width="203" height="71" viewBox="0 0 203 71" fill="none" xmlns="http://www.w3.org/2000/svg">
<path d="M168.539 70.0555C167.564 70.0555 166.604 69.7896 165.747 69.3023C162.541 67.4417 159.468 65.33 156.631 62.9967C144.93 53.4276 139.745 42.7362 138.061 38.5866C135.948 33.3738 134.943 28.6631 135.002 24.1886C135.032 21.4715 135.401 18.7395 136.096 16.0814C136.362 15.0625 136.908 14.1617 137.662 13.4529C140.868 9.92354 144.738 6.94057 149.082 4.68119C154.962 1.62439 161.64 0 168.376 0H168.731C175.468 0 182.146 1.62439 188.026 4.68119C192.369 6.94057 196.269 9.93831 199.593 13.6006C200.243 14.2356 200.761 15.1216 200.997 16.0814C201.691 18.7543 202.061 21.4862 202.09 24.1886C202.134 28.6631 201.145 33.3738 199.032 38.5718C197.348 42.7214 192.177 53.4129 180.461 62.982C177.61 65.3152 174.537 67.4417 171.346 69.2876C170.474 69.7896 169.514 70.0555 168.539 70.0555ZM168.362 4.29725C162.349 4.29725 156.395 5.74443 151.15 8.46159C147.294 10.4699 143.852 13.128 140.897 16.362C140.513 16.7312 140.291 17.0856 140.188 17.4991C139.582 19.8175 139.257 22.2098 139.228 24.5726C139.183 28.4859 140.085 32.6354 141.961 37.2871C143.497 41.0823 148.24 50.8434 158.995 59.6446C161.625 61.7858 164.447 63.7499 167.401 65.4629C168.081 65.8468 168.938 65.8468 169.617 65.4629C172.572 63.7499 175.394 61.8006 178.024 59.6446C188.794 50.8434 193.536 41.0675 195.058 37.2871C196.934 32.6502 197.835 28.5006 197.791 24.5873C197.761 22.2246 197.451 19.8471 196.831 17.4991C196.727 17.1152 196.535 16.7755 196.24 16.4949C193.211 13.1723 189.754 10.4847 185.869 8.47635C180.624 5.74443 174.67 4.31202 168.657 4.31202H168.362V4.29725Z" fill="#F6871F"/>
<path d="M149.791 11.8137C155.597 12.6407 161.049 14.2208 165.969 16.362C155.45 20.866 147.501 27.9395 143.97 36.3272C141.621 30.4499 141.429 26.5366 141.459 24.6169C141.488 21.8702 141.946 19.6108 142.345 18.0602H142.36C143.956 16.2882 146.393 13.9254 149.791 11.8137Z" fill="#F6871F"/>
<path d="M186.415 11.2821C180.003 11.858 173.99 13.2314 168.583 15.2988C163.132 13.2314 157.089 11.8433 150.663 11.2821C151.15 10.9868 151.652 10.7062 152.184 10.4256C158.936 6.91104 165.23 6.49756 168.554 6.49756C171.863 6.49756 178.142 6.91104 184.893 10.4256C185.41 10.7062 185.913 11.0015 186.415 11.2821Z" fill="#F6871F"/>
<path d="M190.197 42.175C187.7 46.4427 183.446 52.3791 176.65 57.9167C173.459 60.5158 170.592 62.3321 168.539 63.5283H168.524C166.485 62.3321 163.604 60.5305 160.413 57.9167C153.677 52.4086 149.422 46.5313 146.94 42.2636C148.846 32.2071 156.971 23.2435 168.554 17.5433C180.122 23.2287 188.232 32.1481 190.197 42.175Z" fill="#F6871F"/>
<path d="M195.604 24.6021C195.619 26.5219 195.457 30.3909 193.108 36.2387C189.577 27.8952 181.643 20.8365 171.169 16.3325C176.074 14.2208 181.51 12.6555 187.302 11.8286C190.685 13.9255 193.137 16.2735 194.718 18.0603C195.117 19.5961 195.575 21.8555 195.604 24.6021Z" fill="#F6871F"/>
<path d="M123.963 19.5598C123.634 21.8996 122.761 23.9359 121.357 25.656C119.965 27.3634 118.181 28.6028 116.017 29.3743C115.827 29.4376 115.751 29.5514 115.802 29.7411L120.673 44.1593C120.724 44.3111 120.737 44.4123 120.724 44.4755C120.686 44.7538 120.484 44.9055 120.104 44.9055H112.234C111.867 44.9055 111.664 44.7411 111.563 44.4249L105.262 23.7715C105.249 23.7082 105.211 23.6576 105.148 23.6197V23.6071H108.197H110.374C111.664 23.6071 112.765 23.2529 113.689 22.532C114.587 21.8111 115.131 20.8625 115.296 19.6863C115.473 18.4595 115.22 17.473 114.511 16.7521C113.828 16.0185 112.816 15.6391 111.525 15.6391H106.072L93.2414 44.3743C93.0895 44.7285 92.8365 44.9055 92.4822 44.9055H84.5107C84.1564 44.9055 83.9539 44.7285 83.9033 44.3743L78.3612 8.92326L78.3359 8.70825C78.3866 8.35412 78.6016 8.1897 78.9939 8.1897H87.016C87.3956 8.1897 87.6234 8.36676 87.674 8.70825L90.3058 32.5742C90.3312 32.6753 90.3691 32.7259 90.445 32.7259C90.5083 32.7259 90.5716 32.6753 90.6222 32.5742L99.9602 8.70825C100.112 8.35412 100.378 8.1897 100.77 8.1897H101.744C101.757 8.1897 101.77 8.1897 101.782 8.1897H113.993C116.308 8.1897 118.257 8.6703 119.876 9.59358C121.483 10.5421 122.647 11.8828 123.369 13.6155C124.077 15.3482 124.292 17.3339 123.963 19.5598Z" fill="white"/>
<path d="M0.189798 44.9056C0.0632659 44.7791 0 44.6273 0 44.4503V8.64503C0 8.46796 0.0632659 8.31619 0.189798 8.18971C0.31633 8.06324 0.455515 8 0.632659 8H14.0071C16.7402 8 19.1443 8.48061 21.2447 9.42918C23.3451 10.3777 24.9647 11.7437 26.1288 13.5017C27.2803 15.2723 27.8623 17.296 27.8623 19.5978V33.4722C27.8623 35.7614 27.2803 37.7976 26.1288 39.5683C24.9774 41.339 23.3451 42.6922 21.2447 43.6408C19.1443 44.5894 16.7275 45.07 14.0071 45.07H0.632659C0.455515 45.0826 0.303676 45.0194 0.189798 44.9056ZM8.97111 37.5573H14.374C15.7659 37.5573 16.9047 37.0514 17.7904 36.0523C18.6635 35.0405 19.119 33.6998 19.1569 32.0051V21.0902C19.1569 19.3954 18.7141 18.0422 17.8157 17.043C16.93 16.0438 15.7659 15.5379 14.3234 15.5379H8.97111C8.79397 15.5379 8.70539 15.6265 8.70539 15.8035V37.3044C8.71805 37.4815 8.79397 37.5573 8.97111 37.5573Z" fill="white"/>
<path d="M51.3594 44.6147L45.172 30.5253C45.0961 30.3862 44.9949 30.3103 44.8557 30.3103H41.3887C41.2116 30.3103 41.123 30.3988 41.123 30.5759V44.4502C41.123 44.6273 41.0597 44.7791 40.9459 44.9055C40.8193 45.032 40.6675 45.0953 40.503 45.0953H33.0503C32.8731 45.0953 32.7213 45.032 32.6074 44.9055C32.4809 44.7791 32.4176 44.6273 32.4176 44.4502V8.64503C32.4176 8.46796 32.4809 8.31619 32.6074 8.18971C32.7339 8.06324 32.8731 8 33.0503 8H48.6263C50.9292 8 52.9664 8.48061 54.7125 9.42918C56.4587 10.3777 57.8126 11.731 58.7742 13.4764C59.7359 15.2218 60.2167 17.2327 60.2167 19.484C60.2167 21.8491 59.6346 23.898 58.4832 25.6307C57.3317 27.3634 55.7248 28.6155 53.6623 29.387C53.4852 29.4629 53.4346 29.5767 53.5105 29.7538L60.4444 44.3491C60.5077 44.4882 60.5457 44.5894 60.5457 44.6652C60.5457 44.9435 60.3559 45.0953 59.9636 45.0953H52.0933C51.7517 45.0826 51.4986 44.9308 51.3594 44.6147ZM41.1357 15.7909V23.3162C41.1357 23.4932 41.2242 23.5818 41.4014 23.5818H47.2218C48.5125 23.5818 49.5627 23.215 50.3725 22.4941C51.1823 21.7732 51.5745 20.812 51.5745 19.6105C51.5745 18.371 51.1696 17.3845 50.3725 16.6383C49.5627 15.8921 48.5125 15.5253 47.2218 15.5253H41.4014C41.2242 15.5253 41.1357 15.6138 41.1357 15.7909Z" fill="white"/>
<path d="M64.8223 44.9055C64.6958 44.7791 64.6325 44.6273 64.6325 44.4502V8.64503C64.6325 8.46796 64.6958 8.31619 64.8223 8.18971C64.9488 8.06324 65.088 8 65.2652 8H72.7179C72.895 8 73.0469 8.06324 73.1608 8.18971C73.2873 8.31619 73.3379 8.46796 73.3379 8.64503V44.4502C73.3379 44.6273 73.2746 44.7791 73.1608 44.9055C73.0342 45.032 72.8824 45.0953 72.7179 45.0953H65.2652C65.088 45.0826 64.9362 45.0194 64.8223 44.9055Z" fill="white"/>
<path d="M0 61.37L1.59961 52.1278L4.10059 52.1342C4.87077 52.1342 5.53304 52.3267 6.0874 52.7118C6.646 53.0927 7.05013 53.6217 7.2998 54.2987C7.54948 54.9716 7.62565 55.7143 7.52832 56.5268L7.4585 57.0282C7.33154 57.8788 7.05013 58.6342 6.61426 59.2943C6.18262 59.9503 5.62402 60.4602 4.93848 60.8241C4.25293 61.1881 3.49967 61.37 2.67871 61.37H0ZM2.94531 53.4228L1.79004 60.0878L2.7168 60.0941C3.55469 60.0941 4.2487 59.8297 4.79883 59.3007C5.35319 58.7675 5.70866 58.0333 5.86523 57.0981C5.97526 56.4548 6.01546 55.8941 5.98584 55.4159C5.94775 54.8023 5.7679 54.322 5.44629 53.975C5.12891 53.628 4.68669 53.446 4.11963 53.4291L2.94531 53.4228Z" fill="#F8A04E"/>
<path d="M12.2573 57.809H10.4927L9.87061 61.37H8.30273L9.90869 52.1278L12.8223 52.1342C13.8252 52.1342 14.5933 52.3754 15.1265 52.8578C15.6597 53.3402 15.8903 54.011 15.8184 54.87C15.7718 55.4667 15.5729 55.9851 15.2217 56.4252C14.8704 56.8611 14.3774 57.2038 13.7427 57.4535L15.1074 61.2748L15.1011 61.37H13.438L12.2573 57.809ZM10.7085 56.5204L12.2256 56.5331C12.7715 56.5331 13.2264 56.3913 13.5903 56.1078C13.9585 55.8201 14.1743 55.4307 14.2378 54.9398C14.3013 54.4617 14.2166 54.0956 13.9839 53.8417C13.7511 53.5836 13.3978 53.446 12.9238 53.4291L11.248 53.4228L10.7085 56.5204Z" fill="#F8A04E"/>
<path d="M17.8877 61.37H16.3262L17.9321 52.1278H19.4937L17.8877 61.37Z" fill="#F8A04E"/>
<path d="M23.3848 59.3451L26.7871 52.1278H28.5645L23.8926 61.37H22.3755L20.6045 52.1278H22.2676L23.3848 59.3451Z" fill="#F8A04E"/>
<path d="M29.7451 61.37H28.1836L29.7896 52.1278H31.3511L29.7451 61.37Z" fill="#F8A04E"/>
<path d="M38.8477 61.37H37.3306L34.4424 54.7494L33.2935 61.37H31.7256L33.3315 52.1278H34.8486L37.7368 58.7738L38.8921 52.1278H40.4536L38.8477 61.37Z" fill="#F8A04E"/>
<path d="M47.9058 60.1703C47.5672 60.6104 47.089 60.9447 46.4712 61.1732C45.8534 61.3975 45.1636 61.5054 44.4019 61.497C43.7925 61.4927 43.255 61.3573 42.7896 61.0907C42.3241 60.8199 41.9538 60.4285 41.6787 59.9164C41.4079 59.4001 41.2534 58.814 41.2153 58.1581C41.1857 57.6503 41.2386 57.0028 41.374 56.2157C41.5094 55.4286 41.7507 54.7304 42.0977 54.121C42.4489 53.5074 42.8742 53.0271 43.3735 52.6801C44.0506 52.2104 44.825 51.984 45.6968 52.0009C46.6235 52.0178 47.3472 52.2844 47.8677 52.8007C48.3924 53.317 48.6886 54.0406 48.7563 54.9716L47.2393 54.9652C47.1462 53.8777 46.6193 53.3191 45.6587 53.2895C44.9393 53.2683 44.3468 53.5222 43.8813 54.0512C43.4201 54.5759 43.1048 55.3355 42.9355 56.33C42.8382 56.9097 42.7853 57.3837 42.7769 57.7519C42.7515 58.5093 42.889 59.106 43.1895 59.5419C43.4941 59.9778 43.9364 60.1999 44.5161 60.2084C45.2567 60.2253 45.866 60.0412 46.3442 59.6562L46.687 57.8471H44.8335L45.0493 56.6283H48.4453L47.9058 60.1703Z" fill="#F8A04E"/>
<path d="M60.0995 58.9454C60.1926 58.336 59.8604 57.8832 59.103 57.587L58.5888 57.3966C57.6324 57.0623 56.9532 56.6666 56.5512 56.2096C56.1492 55.7525 55.9672 55.2214 56.0053 54.6163C56.0392 54.0916 56.2169 53.6303 56.5385 53.2325C56.8643 52.8305 57.2918 52.5216 57.8207 52.3057C58.3497 52.0899 58.9125 51.9884 59.5092 52.0011C60.0847 52.0138 60.5968 52.1407 61.0453 52.3819C61.4939 52.6189 61.8367 52.9511 62.0737 53.3785C62.3106 53.8017 62.4207 54.2862 62.4037 54.8321L60.8422 54.8258C60.8718 54.3433 60.7639 53.9688 60.5185 53.7022C60.2773 53.4356 59.9112 53.296 59.4203 53.2833C58.9252 53.2748 58.5063 53.3912 58.1635 53.6324C57.825 53.8736 57.6261 54.1995 57.5668 54.6099C57.4822 55.1474 57.8419 55.5706 58.6459 55.8795L59.122 56.0509C60.0911 56.3979 60.7682 56.8062 61.1532 57.276C61.5383 57.7415 61.7076 58.2937 61.6611 58.9327C61.6187 59.4532 61.4474 59.9081 61.1469 60.2974C60.8464 60.6825 60.4296 60.9809 59.8964 61.1925C59.3674 61.4041 58.7835 61.5056 58.1445 61.4972C57.5393 61.4929 56.9892 61.366 56.4941 61.1163C56.0032 60.8666 55.6266 60.5217 55.3642 60.0816C55.1018 59.6373 54.9812 59.1337 55.0024 58.5709L56.5702 58.5772C56.5364 59.102 56.6655 59.5061 56.9574 59.7896C57.2494 60.0732 57.6684 60.2192 58.2143 60.2276C58.7221 60.2361 59.1453 60.1282 59.4838 59.9039C59.8266 59.6796 60.0318 59.3601 60.0995 58.9454Z" fill="white"/>
<path d="M64.3207 61.3702H62.7592L64.3652 52.128H65.9267L64.3207 61.3702Z" fill="white"/>
<path d="M69.9003 52.128L71.2524 59.1993L75.0546 52.128H77.1113L75.5116 61.3702H73.9501L74.4897 58.2408L75.3085 54.3878L71.4999 61.3702H70.37L68.9545 54.1783L68.3769 58.4058L67.8627 61.3702H66.3012L67.9072 52.128H69.9003Z" fill="white"/>
<path d="M85.5854 52.128L84.538 58.3043C84.3941 59.2903 83.971 60.0753 83.2685 60.6593C82.5702 61.2432 81.7239 61.5268 80.7294 61.5098C79.8069 61.4929 79.0769 61.2136 78.5395 60.672C78.0063 60.1303 77.7629 59.4236 77.8095 58.5518L77.8285 58.3106L78.8759 52.128H80.4374L79.3901 58.317C79.3139 58.9052 79.4006 59.3643 79.6503 59.6944C79.9 60.0245 80.2851 60.198 80.8056 60.2149C81.3769 60.2319 81.853 60.0774 82.2338 59.7515C82.6147 59.4257 82.858 58.9581 82.9638 58.3487L84.0239 52.128H85.5854Z" fill="white"/>
<path d="M87.4897 60.088H91.5649L91.3364 61.3702H85.6996L87.3056 52.128H88.8735L87.4897 60.088Z" fill="white"/>
<path d="M98.141 59.2183H94.6816L93.5771 61.3702H91.8886L96.8779 52.128H98.287L100.077 61.3702H98.5029L98.141 59.2183ZM95.3417 57.9234H97.9316L97.3032 54.1021L95.3417 57.9234Z" fill="white"/>
<path d="M108.278 53.4229H105.485L104.108 61.3702H102.546L103.93 53.4229H101.156L101.385 52.128H108.507L108.278 53.4229Z" fill="white"/>
<path d="M111.509 61.4972C110.908 61.4845 110.379 61.3406 109.922 61.0655C109.469 60.7904 109.116 60.3927 108.862 59.8722C108.608 59.3474 108.464 58.7528 108.431 58.0885C108.401 57.5595 108.448 56.9417 108.57 56.2349C108.697 55.5282 108.919 54.885 109.237 54.3053C109.558 53.7213 109.941 53.2452 110.386 52.877C111.118 52.2761 111.964 51.9841 112.925 52.0011C113.839 52.018 114.567 52.3333 115.108 52.9469C115.654 53.5605 115.953 54.3899 116.003 55.4351C116.029 55.9599 115.98 56.5629 115.857 57.2442C115.739 57.9213 115.532 58.5455 115.235 59.1168C114.943 59.6838 114.579 60.1578 114.143 60.5387C113.39 61.1988 112.512 61.5183 111.509 61.4972ZM114.397 56.5015L114.455 55.8287C114.48 55.3674 114.44 54.9421 114.334 54.5528C114.228 54.1593 114.048 53.8609 113.794 53.6578C113.545 53.4504 113.227 53.3404 112.842 53.3277C112.309 53.3108 111.835 53.461 111.42 53.7784C111.01 54.0958 110.676 54.5782 110.417 55.2257C110.164 55.8731 110.015 56.6856 109.973 57.6632C109.931 58.4376 110.049 59.047 110.329 59.4913C110.608 59.9356 111.027 60.1663 111.585 60.1832C112.317 60.2043 112.921 59.9293 113.394 59.358C113.873 58.7867 114.186 57.9827 114.334 56.9459L114.397 56.5015Z" fill="white"/>
<path d="M120.682 57.8092H118.917L118.295 61.3702H116.727L118.333 52.128L121.247 52.1344C122.249 52.1344 123.018 52.3756 123.551 52.858C124.084 53.3404 124.315 54.0111 124.243 54.8702C124.196 55.4669 123.997 55.9853 123.646 56.4254C123.295 56.8612 122.802 57.204 122.167 57.4537L123.532 61.275L123.525 61.3702H121.862L120.682 57.8092ZM119.133 56.5206L120.65 56.5333C121.196 56.5333 121.651 56.3915 122.015 56.108C122.383 55.8202 122.599 55.4309 122.662 54.94C122.726 54.4618 122.641 54.0958 122.408 53.8419C122.175 53.5837 121.822 53.4462 121.348 53.4293L119.672 53.4229L119.133 56.5206Z" fill="white"/>
</svg>
