<svg width="48" height="48" viewBox="0 0 48 48" fill="none" xmlns="http://www.w3.org/2000/svg">
<path d="M48 24C48 19.2535 46.5926 14.6136 43.9557 10.6669C41.3188 6.7203 37.5709 3.64415 33.1858 1.82748C28.8007 0.0107963 23.9754 -0.464834 19.32 0.460725C14.6647 1.38628 10.3883 3.67147 7.03157 7.02733C3.67487 10.3832 1.38862 14.659 0.461896 19.3142C-0.464827 23.9693 0.00959719 28.7947 1.82518 33.1803C3.64076 37.5658 6.71597 41.3145 10.662 43.9524C14.6079 46.5902 19.2475 47.9988 23.994 48H24L24.006 47.9998C30.3679 47.991 36.4667 45.4595 40.9647 40.9604C45.4627 36.4613 47.9928 30.3619 48 24ZM25.8462 44.2228V29.5387H31.3846C31.8743 29.5387 32.3438 29.3442 32.69 28.998C33.0363 28.6518 33.2308 28.1822 33.2308 27.6925C33.2308 27.2029 33.0363 26.7333 32.69 26.3871C32.3438 26.0409 31.8743 25.8464 31.3846 25.8464H25.8462V20.3079C25.8473 19.329 26.2366 18.3905 26.9288 17.6983C27.621 17.0061 28.5595 16.6167 29.5385 16.6156H33.2308C33.7204 16.6156 34.19 16.4211 34.5362 16.0749C34.8824 15.7287 35.0769 15.2591 35.0769 14.7695C35.0769 14.2798 34.8824 13.8103 34.5362 13.464C34.19 13.1178 33.7204 12.9233 33.2308 12.9233H29.5385C27.5806 12.9255 25.7036 13.7042 24.3192 15.0886C22.9348 16.4731 22.1561 18.3501 22.1539 20.3079V25.8464H16.6154C16.1258 25.8464 15.6562 26.0409 15.31 26.3871C14.9637 26.7333 14.7692 27.2029 14.7692 27.6925C14.7692 28.1822 14.9637 28.6518 15.31 28.998C15.6562 29.3442 16.1258 29.5387 16.6154 29.5387H22.1539V44.2228C16.9495 43.7477 12.1287 41.2846 8.6941 37.3458C5.2595 33.407 3.47556 28.2957 3.71335 23.0751C3.95114 17.8546 6.19235 12.9267 9.9708 9.31641C13.7492 5.70615 18.774 3.69148 24 3.69148C29.226 3.69148 34.2508 5.70615 38.0292 9.31641C41.8077 12.9267 44.0489 17.8546 44.2867 23.0751C44.5245 28.2957 42.7405 33.407 39.3059 37.3458C35.8713 41.2846 31.0505 43.7477 25.8462 44.2228Z" fill="#F6871F"/>
</svg>
