<svg width="84" height="80" viewBox="0 0 84 80" fill="none" xmlns="http://www.w3.org/2000/svg">
<path d="M71.9238 62.7429C73.6 60.0762 74.5905 56.9905 74.5905 53.6381C74.5905 44.1524 66.9333 36.4952 57.4476 36.4952C47.9619 36.4952 40.3048 44.1524 40.3048 53.6381C40.3048 63.1238 47.9619 70.781 57.4095 70.781C60.7619 70.781 63.8857 69.7905 66.5143 68.1143L78.4 80L83.8095 74.5905L71.9238 62.7429ZM57.4476 63.1619C54.9217 63.1619 52.4993 62.1585 50.7133 60.3724C48.9272 58.5864 47.9238 56.164 47.9238 53.6381C47.9238 51.1122 48.9272 48.6898 50.7133 46.9037C52.4993 45.1177 54.9217 44.1143 57.4476 44.1143C59.9735 44.1143 62.3959 45.1177 64.182 46.9037C65.968 48.6898 66.9714 51.1122 66.9714 53.6381C66.9714 56.164 65.968 58.5864 64.182 60.3724C62.3959 62.1585 59.9735 63.1619 57.4476 63.1619ZM56.0762 30.781C53.2571 30.8571 50.5524 31.4667 48.0762 32.4952L45.981 29.3333L31.5048 52.8762L20.0381 39.4667L6.20952 61.6L0 57.1429L19.0476 26.6667L30.4762 40L45.7143 15.2381L56.0762 30.781ZM65.9429 32.6857C63.5048 31.619 60.8762 30.9714 58.1333 30.819L77.6381 0L83.8095 4.49524L65.9429 32.6857Z" fill="#F6871F"/>
</svg>
