<svg width="71" height="16" viewBox="0 0 71 16" fill="none" xmlns="http://www.w3.org/2000/svg">
<path d="M0.84 15C0.706667 15 0.64 14.9333 0.64 14.8V1.2C0.64 1.06667 0.706667 0.999999 0.84 0.999999H2.36C2.49333 0.999999 2.56 1.06667 2.56 1.2V14.8C2.56 14.9333 2.49333 15 2.36 15H0.84ZM10.1353 4.68C11.2286 4.68 12.0953 5 12.7353 5.64C13.3753 6.26667 13.6953 7.12 13.6953 8.2V14.8C13.6953 14.9333 13.6286 15 13.4953 15H11.9753C11.842 15 11.7753 14.9333 11.7753 14.8V8.58C11.7753 7.91333 11.582 7.37333 11.1953 6.96C10.8086 6.54667 10.2953 6.34 9.65531 6.34C9.02865 6.34 8.51531 6.54667 8.11531 6.96C7.71531 7.37333 7.51531 7.90667 7.51531 8.56V14.8C7.51531 14.9333 7.44865 15 7.31531 15H5.79531C5.66198 15 5.59531 14.9333 5.59531 14.8V5.02C5.59531 4.88667 5.66198 4.82 5.79531 4.82H7.31531C7.44865 4.82 7.51531 4.88667 7.51531 5.02V5.74C7.51531 5.76667 7.52198 5.78667 7.53531 5.8C7.56198 5.81333 7.58198 5.80667 7.59531 5.78C8.16865 5.04667 9.01531 4.68 10.1353 4.68ZM21.4552 6.2C21.4552 6.33333 21.3885 6.4 21.2552 6.4H19.0952C19.0418 6.4 19.0152 6.42667 19.0152 6.48V11.78C19.0152 12.34 19.1418 12.7467 19.3952 13C19.6485 13.24 20.0418 13.36 20.5752 13.36H21.1552C21.2885 13.36 21.3552 13.4267 21.3552 13.56V14.8C21.3552 14.9333 21.2885 15 21.1552 15C20.7285 15.0267 20.4218 15.04 20.2352 15.04C19.2218 15.04 18.4552 14.86 17.9352 14.5C17.4285 14.1267 17.1752 13.4467 17.1752 12.46V6.48C17.1752 6.42667 17.1485 6.4 17.0952 6.4H15.8752C15.7418 6.4 15.6752 6.33333 15.6752 6.2V5.02C15.6752 4.88667 15.7418 4.82 15.8752 4.82H17.0952C17.1485 4.82 17.1752 4.79333 17.1752 4.74V2.38C17.1752 2.24667 17.2418 2.18 17.3752 2.18H18.8152C18.9485 2.18 19.0152 2.24667 19.0152 2.38V4.74C19.0152 4.79333 19.0418 4.82 19.0952 4.82H21.2552C21.3885 4.82 21.4552 4.88667 21.4552 5.02V6.2ZM29.878 5.02C29.878 4.88667 29.9446 4.82 30.078 4.82H31.578C31.7113 4.82 31.778 4.88667 31.778 5.02V14.8C31.778 14.9333 31.7113 15 31.578 15H30.078C29.9446 15 29.878 14.9333 29.878 14.8V14.06C29.878 14.0333 29.8646 14.02 29.838 14.02C29.8246 14.0067 29.8046 14.0133 29.778 14.04C29.2446 14.7733 28.4246 15.14 27.318 15.14C26.6646 15.14 26.058 15.0133 25.498 14.76C24.9513 14.5067 24.5113 14.1333 24.178 13.64C23.8446 13.1467 23.678 12.5467 23.678 11.84V5.02C23.678 4.88667 23.7446 4.82 23.878 4.82H25.378C25.5113 4.82 25.578 4.88667 25.578 5.02V11.24C25.578 11.9333 25.758 12.48 26.118 12.88C26.4913 13.28 27.0113 13.48 27.678 13.48C28.3446 13.48 28.878 13.28 29.278 12.88C29.678 12.4667 29.878 11.92 29.878 11.24V5.02ZM35.7397 3.22C35.3664 3.22 35.0597 3.1 34.8197 2.86C34.5797 2.62 34.4597 2.31333 34.4597 1.94C34.4597 1.56667 34.5797 1.26 34.8197 1.02C35.0597 0.779999 35.3664 0.66 35.7397 0.66C36.113 0.66 36.4197 0.779999 36.6597 1.02C36.8997 1.26 37.0197 1.56667 37.0197 1.94C37.0197 2.31333 36.8997 2.62 36.6597 2.86C36.4197 3.1 36.113 3.22 35.7397 3.22ZM34.9397 14.98C34.8064 14.98 34.7397 14.9133 34.7397 14.78V5.02C34.7397 4.88667 34.8064 4.82 34.9397 4.82H36.4597C36.593 4.82 36.6597 4.88667 36.6597 5.02V14.78C36.6597 14.9133 36.593 14.98 36.4597 14.98H34.9397ZM44.6973 6.2C44.6973 6.33333 44.6307 6.4 44.4973 6.4H42.3373C42.284 6.4 42.2573 6.42667 42.2573 6.48V11.78C42.2573 12.34 42.384 12.7467 42.6373 13C42.8907 13.24 43.284 13.36 43.8173 13.36H44.3973C44.5307 13.36 44.5973 13.4267 44.5973 13.56V14.8C44.5973 14.9333 44.5307 15 44.3973 15C43.9707 15.0267 43.664 15.04 43.4773 15.04C42.464 15.04 41.6973 14.86 41.1773 14.5C40.6707 14.1267 40.4173 13.4467 40.4173 12.46V6.48C40.4173 6.42667 40.3907 6.4 40.3373 6.4H39.1173C38.984 6.4 38.9173 6.33333 38.9173 6.2V5.02C38.9173 4.88667 38.984 4.82 39.1173 4.82H40.3373C40.3907 4.82 40.4173 4.79333 40.4173 4.74V2.38C40.4173 2.24667 40.484 2.18 40.6173 2.18H42.0573C42.1907 2.18 42.2573 2.24667 42.2573 2.38V4.74C42.2573 4.79333 42.284 4.82 42.3373 4.82H44.4973C44.6307 4.82 44.6973 4.88667 44.6973 5.02V6.2ZM48.2202 3.22C47.8468 3.22 47.5402 3.1 47.3002 2.86C47.0602 2.62 46.9402 2.31333 46.9402 1.94C46.9402 1.56667 47.0602 1.26 47.3002 1.02C47.5402 0.779999 47.8468 0.66 48.2202 0.66C48.5935 0.66 48.9002 0.779999 49.1402 1.02C49.3802 1.26 49.5002 1.56667 49.5002 1.94C49.5002 2.31333 49.3802 2.62 49.1402 2.86C48.9002 3.1 48.5935 3.22 48.2202 3.22ZM47.4202 14.98C47.2868 14.98 47.2202 14.9133 47.2202 14.78V5.02C47.2202 4.88667 47.2868 4.82 47.4202 4.82H48.9402C49.0735 4.82 49.1402 4.88667 49.1402 5.02V14.78C49.1402 14.9133 49.0735 14.98 48.9402 14.98H47.4202ZM54.8378 15C54.7178 15 54.6378 14.9467 54.5978 14.84L51.3378 5.04L51.3178 4.96C51.3178 4.86667 51.3778 4.82 51.4978 4.82H53.1778C53.2978 4.82 53.3778 4.87333 53.4178 4.98L55.6178 12.22C55.6311 12.2467 55.6511 12.26 55.6778 12.26C55.7045 12.26 55.7245 12.2467 55.7378 12.22L57.9178 4.98C57.9578 4.87333 58.0378 4.82 58.1578 4.82L59.8378 4.84C59.9845 4.84 60.0378 4.91333 59.9978 5.06L56.7578 14.84C56.7178 14.9467 56.6378 15 56.5178 15H54.8378ZM65.6928 15.16C64.7061 15.16 63.8461 14.9133 63.1128 14.42C62.3795 13.9133 61.8661 13.2133 61.5728 12.32C61.3328 11.6 61.2128 10.7867 61.2128 9.88C61.2128 8.93333 61.3261 8.13333 61.5528 7.48C61.8461 6.6 62.3595 5.91333 63.0928 5.42C63.8261 4.91333 64.6995 4.66 65.7128 4.66C66.6728 4.66 67.5061 4.91333 68.2128 5.42C68.9328 5.91333 69.4461 6.59333 69.7528 7.46C69.9928 8.14 70.1128 8.94 70.1128 9.86C70.1128 10.7933 69.9928 11.6133 69.7528 12.32C69.4595 13.2133 68.9528 13.9133 68.2328 14.42C67.5128 14.9133 66.6661 15.16 65.6928 15.16ZM65.6928 13.5C66.2261 13.5 66.6928 13.3533 67.0928 13.06C67.4928 12.7533 67.7795 12.3267 67.9528 11.78C68.0995 11.2733 68.1728 10.6467 68.1728 9.9C68.1728 9.15333 68.1061 8.53333 67.9728 8.04C67.7995 7.49333 67.5128 7.07333 67.1128 6.78C66.7128 6.47333 66.2261 6.32 65.6528 6.32C65.1061 6.32 64.6328 6.47333 64.2328 6.78C63.8328 7.07333 63.5461 7.49333 63.3728 8.04C63.2261 8.50667 63.1528 9.12667 63.1528 9.9C63.1528 10.6733 63.2261 11.3 63.3728 11.78C63.5328 12.3267 63.8128 12.7533 64.2128 13.06C64.6261 13.3533 65.1195 13.5 65.6928 13.5Z" fill="white"/>
</svg>
