<?xml version="1.0" encoding="utf-8"?>
<!-- Generator: Adobe Illustrator 24.1.2, SVG Export Plug-In . SVG Version: 6.00 Build 0)  -->
<svg version="1.1" id="Capa_1" xmlns="http://www.w3.org/2000/svg" xmlns:xlink="http://www.w3.org/1999/xlink" x="0px" y="0px"
	 viewBox="0 0 48 48" style="enable-background:new 0 0 48 48;" xml:space="preserve">
<style type="text/css">
	.st0{fill:#F6871F;}
</style>
<path class="st0" d="M44,0H4C2.9,0,1.9,0.4,1.2,1.2C0.4,1.9,0,2.9,0,4v40c0,1.1,0.4,2.1,1.2,2.8C1.9,47.6,2.9,48,4,48h40
	c1.1,0,2.1-0.4,2.8-1.2c0.7-0.7,1.2-1.8,1.2-2.8V4c0-1.1-0.4-2.1-1.2-2.8C46.1,0.4,45.1,0,44,0z M44,44H4V4h40V44L44,44z M16,20v16
	c0,0.5-0.2,1-0.6,1.4C15,37.8,14.5,38,14,38s-1-0.2-1.4-0.6C12.2,37,12,36.5,12,36V20c0-0.5,0.2-1,0.6-1.4C13,18.2,13.5,18,14,18
	s1,0.2,1.4,0.6C15.8,19,16,19.5,16,20z M17,12c0,0.6-0.2,1.2-0.5,1.7c-0.3,0.5-0.8,0.9-1.3,1.1c-0.5,0.2-1.2,0.3-1.7,0.2
	c-0.6-0.1-1.1-0.4-1.5-0.8c-0.4-0.4-0.7-1-0.8-1.5c-0.1-0.6-0.1-1.2,0.2-1.7c0.2-0.5,0.6-1,1.1-1.3C12.8,9.2,13.4,9,14,9
	c0.8,0,1.6,0.3,2.1,0.9C16.7,10.4,17,11.2,17,12z M38,27v9c0,0.5-0.2,1-0.6,1.4C37,37.8,36.5,38,36,38s-1-0.2-1.4-0.6
	C34.2,37,34,36.5,34,36v-9c0-1.3-0.5-2.6-1.5-3.5C31.6,22.5,30.3,22,29,22s-2.6,0.5-3.5,1.5C24.5,24.4,24,25.7,24,27v9
	c0,0.5-0.2,1-0.6,1.4C23,37.8,22.5,38,22,38s-1-0.2-1.4-0.6C20.2,37,20,36.5,20,36V20c0-0.5,0.2-1,0.5-1.3c0.3-0.4,0.8-0.6,1.3-0.7
	c0.5-0.1,1,0.1,1.4,0.4c0.4,0.3,0.7,0.7,0.8,1.2c1.4-0.9,2.9-1.5,4.6-1.5c1.6-0.1,3.3,0.3,4.7,1c1.4,0.8,2.7,1.9,3.5,3.3
	C37.6,23.8,38,25.4,38,27L38,27z"/>
</svg>
