<?xml version="1.0" encoding="utf-8"?>
<!-- Generator: Adobe Illustrator 24.1.2, SVG Export Plug-In . SVG Version: 6.00 Build 0)  -->
<svg version="1.1" id="Capa_1" xmlns="http://www.w3.org/2000/svg" xmlns:xlink="http://www.w3.org/1999/xlink" x="0px" y="0px"
	 viewBox="0 0 160 48" style="enable-background:new 0 0 160 48;" xml:space="preserve">
<style type="text/css">
	.st0{fill:#FFFFFF;}
</style>
<g>
	<path class="st0" d="M141.9,17c-0.3,2.3-1.2,4.4-2.6,6.1c-1.4,1.7-3.2,2.9-5.3,3.7c-0.2,0.1-0.3,0.2-0.2,0.4l4.9,14.4
		c0.1,0.2,0.1,0.3,0.1,0.3c0,0.3-0.2,0.4-0.6,0.4h-7.9c-0.4,0-0.6-0.2-0.7-0.5l-6.3-20.7c0-0.1-0.1-0.1-0.1-0.2v0h3h2.2
		c1.3,0,2.4-0.4,3.3-1.1c0.9-0.7,1.4-1.7,1.6-2.8c0.2-1.2-0.1-2.2-0.8-2.9c-0.7-0.7-1.7-1.1-3-1.1H124l-12.8,28.7
		c-0.2,0.4-0.4,0.5-0.8,0.5h-8c-0.4,0-0.6-0.2-0.6-0.5L96.3,6.4l0-0.2c0.1-0.4,0.3-0.5,0.7-0.5h8c0.4,0,0.6,0.2,0.7,0.5l2.6,23.9
		c0,0.1,0.1,0.2,0.1,0.2c0.1,0,0.1-0.1,0.2-0.2l9.3-23.9c0.2-0.4,0.4-0.5,0.8-0.5h1c0,0,0,0,0,0h12.2c2.3,0,4.3,0.5,5.9,1.4
		c1.6,0.9,2.8,2.3,3.5,4C142,12.8,142.2,14.8,141.9,17z"/>
	<path class="st0" d="M18.1,42.4c-0.1-0.1-0.2-0.3-0.2-0.5V6.1c0-0.2,0.1-0.3,0.2-0.5c0.1-0.1,0.3-0.2,0.4-0.2H32
		c2.7,0,5.1,0.5,7.2,1.4s3.7,2.3,4.9,4.1c1.2,1.8,1.7,3.8,1.7,6.1v13.9c0,2.3-0.6,4.3-1.7,6.1c-1.2,1.8-2.8,3.1-4.9,4.1
		c-2.1,0.9-4.5,1.4-7.2,1.4H18.6C18.4,42.5,18.2,42.5,18.1,42.4z M26.9,35h5.4c1.4,0,2.5-0.5,3.4-1.5c0.9-1,1.3-2.4,1.4-4V18.5
		c0-1.7-0.4-3-1.3-4c-0.9-1-2-1.5-3.5-1.5h-5.4c-0.2,0-0.3,0.1-0.3,0.3v21.5C26.7,34.9,26.7,35,26.9,35z"/>
	<path class="st0" d="M69.3,42.1L63.1,28c-0.1-0.1-0.2-0.2-0.3-0.2h-3.5c-0.2,0-0.3,0.1-0.3,0.3v13.9c0,0.2-0.1,0.3-0.2,0.5
		c-0.1,0.1-0.3,0.2-0.4,0.2H51c-0.2,0-0.3-0.1-0.4-0.2c-0.1-0.1-0.2-0.3-0.2-0.5V6.1c0-0.2,0.1-0.3,0.2-0.5c0.1-0.1,0.3-0.2,0.4-0.2
		h15.6c2.3,0,4.3,0.5,6.1,1.4c1.7,0.9,3.1,2.3,4.1,4c1,1.7,1.4,3.8,1.4,6c0,2.4-0.6,4.4-1.7,6.1c-1.2,1.7-2.8,3-4.8,3.8
		c-0.2,0.1-0.2,0.2-0.2,0.4l6.9,14.6c0.1,0.1,0.1,0.2,0.1,0.3c0,0.3-0.2,0.4-0.6,0.4H70C69.7,42.5,69.4,42.4,69.3,42.1z M59.1,13.2
		v7.5c0,0.2,0.1,0.3,0.3,0.3h5.8c1.3,0,2.3-0.4,3.2-1.1c0.8-0.7,1.2-1.7,1.2-2.9c0-1.2-0.4-2.2-1.2-3c-0.8-0.7-1.9-1.1-3.2-1.1h-5.8
		C59.2,13,59.1,13.1,59.1,13.2z"/>
	<path class="st0" d="M82.8,42.4c-0.1-0.1-0.2-0.3-0.2-0.5V6.1c0-0.2,0.1-0.3,0.2-0.5c0.1-0.1,0.3-0.2,0.4-0.2h7.5
		c0.2,0,0.3,0.1,0.4,0.2c0.1,0.1,0.2,0.3,0.2,0.5v35.8c0,0.2-0.1,0.3-0.2,0.5c-0.1,0.1-0.3,0.2-0.4,0.2h-7.5
		C83,42.5,82.9,42.5,82.8,42.4z"/>
</g>
</svg>
