<?xml version="1.0" encoding="utf-8"?>
<!-- Generator: Adobe Illustrator 24.1.2, SVG Export Plug-In . SVG Version: 6.00 Build 0)  -->
<svg version="1.1" id="Capa_1" xmlns="http://www.w3.org/2000/svg" xmlns:xlink="http://www.w3.org/1999/xlink" x="0px" y="0px"
	 viewBox="0 0 160 160" style="enable-background:new 0 0 160 160;" xml:space="preserve">
<style type="text/css">
	.st0{fill:#FFFFFF;}
</style>
<path class="st0" d="M80,140c-1.7,0-3.3-0.5-4.8-1.3c-5.5-3.2-10.8-6.8-15.6-10.8c-20-16.4-28.9-34.7-31.8-41.8
	c-3.6-8.9-5.3-17-5.2-24.7c0.1-4.7,0.7-9.3,1.9-13.9c0.5-1.7,1.4-3.3,2.7-4.5c5.5-6,12.1-11.2,19.6-15c10.1-5.2,21.5-8,33.1-8h0.6
	c11.5,0,23,2.8,33.1,8c7.4,3.9,14.1,9,19.8,15.3c1.1,1.1,2,2.6,2.4,4.2c1.2,4.6,1.8,9.3,1.9,13.9c0.1,7.7-1.6,15.7-5.2,24.6
	c-2.9,7.1-11.7,25.4-31.8,41.8c-4.9,4-10.1,7.6-15.6,10.8C83.3,139.5,81.7,140,80,140z M79.7,27.4c-10.3,0-20.5,2.5-29.5,7.1
	c-6.6,3.4-12.5,8-17.6,13.5c-0.7,0.6-1,1.2-1.2,1.9c-1,4-1.6,8.1-1.6,12.1c-0.1,6.7,1.5,13.8,4.7,21.8c2.6,6.5,10.8,23.2,29.2,38.3
	c4.5,3.7,9.3,7,14.4,10c1.2,0.7,2.6,0.7,3.8,0c5.1-2.9,9.9-6.3,14.4-10c18.4-15.1,26.6-31.8,29.2-38.3c3.2-7.9,4.8-15.1,4.7-21.8
	c-0.1-4-0.6-8.1-1.6-12.1c-0.2-0.7-0.5-1.2-1-1.7c-5.2-5.7-11.1-10.3-17.8-13.7c-9-4.7-19.2-7.1-29.5-7.1L79.7,27.4L79.7,27.4z"/>
<g>
	<path class="st0" d="M47.9,40.3c9.9,1.4,19.3,4.1,27.7,7.8c-18,7.7-31.6,19.8-37.7,34.2c-4-10.1-4.4-16.8-4.3-20.1
		c0.1-4.7,0.8-8.6,1.5-11.2h0C37.9,47.9,42.1,43.9,47.9,40.3z"/>
	<path class="st0" d="M110.6,39.4c-11,1-21.3,3.3-30.5,6.9c-9.3-3.5-19.7-5.9-30.7-6.9c0.8-0.5,1.7-1,2.6-1.5
		c11.6-6,22.3-6.7,28-6.7c5.7,0,16.4,0.7,28,6.7C108.9,38.4,109.8,38.9,110.6,39.4z"/>
	<path class="st0" d="M117.1,92.3c-4.3,7.3-11.6,17.5-23.2,27c-5.5,4.5-10.4,7.6-13.9,9.6h0c-3.5-2-8.4-5.1-13.9-9.6
		C54.6,109.8,47.3,99.7,43,92.4c3.3-17.2,17.2-32.6,37-42.3C99.9,59.8,113.7,75.1,117.1,92.3z"/>
	<path class="st0" d="M126.4,62.2c0,3.3-0.3,9.9-4.3,19.9c-6-14.3-19.6-26.4-37.6-34.1c8.4-3.6,17.7-6.3,27.6-7.7
		c5.8,3.6,10,7.6,12.7,10.7C125.5,53.6,126.3,57.5,126.4,62.2z"/>
</g>
</svg>
