<svg width="70" height="20" viewBox="0 0 70 20" fill="none" xmlns="http://www.w3.org/2000/svg">
<path d="M5.2 15.18C4.22667 15.18 3.36667 14.98 2.62 14.58C1.87333 14.18 1.29333 13.62 0.88 12.9C0.466667 12.1667 0.26 11.3267 0.26 10.38V5.62C0.26 4.67333 0.466667 3.84 0.88 3.12C1.29333 2.4 1.87333 1.84 2.62 1.44C3.36667 1.04 4.22667 0.84 5.2 0.84C6.18667 0.84 7.05333 1.04 7.8 1.44C8.54667 1.84 9.12667 2.4 9.54 3.12C9.95333 3.84 10.16 4.67333 10.16 5.62V10.38C10.16 11.3267 9.95333 12.1667 9.54 12.9C9.12667 13.62 8.54667 14.18 7.8 14.58C7.05333 14.98 6.18667 15.18 5.2 15.18ZM5.2 13.52C6.10667 13.52 6.84 13.24 7.4 12.68C7.96 12.12 8.24 11.38 8.24 10.46V5.6C8.24 4.66667 7.96 3.92 7.4 3.36C6.84 2.78667 6.10667 2.5 5.2 2.5C4.29333 2.5 3.56 2.78667 3 3.36C2.45333 3.92 2.18 4.66667 2.18 5.6V10.46C2.18 11.38 2.45333 12.12 3 12.68C3.56 13.24 4.29333 13.52 5.2 13.52ZM21.0614 7.46C21.2747 8.14 21.3814 8.94667 21.3814 9.88C21.3814 10.88 21.2547 11.7333 21.0014 12.44C20.7081 13.3067 20.2414 13.98 19.6014 14.46C18.9747 14.9267 18.1814 15.16 17.2214 15.16C16.7547 15.16 16.3214 15.0667 15.9214 14.88C15.5214 14.6933 15.1747 14.4333 14.8814 14.1C14.8547 14.0733 14.8281 14.0667 14.8014 14.08C14.7881 14.0933 14.7814 14.1133 14.7814 14.14V14.8C14.7814 14.9333 14.7147 15 14.5814 15H13.0614C12.9281 15 12.8614 14.9333 12.8614 14.8V1.2C12.8614 1.06667 12.9281 0.999999 13.0614 0.999999H14.5814C14.7147 0.999999 14.7814 1.06667 14.7814 1.2V5.66C14.7814 5.68667 14.7881 5.70667 14.8014 5.72C14.8281 5.73333 14.8547 5.72667 14.8814 5.7C15.1747 5.36667 15.5214 5.11333 15.9214 4.94C16.3347 4.75333 16.7681 4.66 17.2214 4.66C18.2214 4.66 19.0414 4.90667 19.6814 5.4C20.3214 5.89333 20.7814 6.58 21.0614 7.46ZM18.9414 12.4C19.2747 11.7733 19.4414 10.9467 19.4414 9.92C19.4414 8.82667 19.2281 7.94667 18.8014 7.28C18.4147 6.64 17.8214 6.32 17.0214 6.32C16.2747 6.32 15.7081 6.66 15.3214 7.34C14.9747 7.95333 14.8014 8.80667 14.8014 9.9C14.8014 10.9933 14.9614 11.8333 15.2814 12.42C15.6814 13.14 16.2681 13.5 17.0414 13.5C17.9214 13.5 18.5547 13.1333 18.9414 12.4ZM24.9161 3.22C24.5428 3.22 24.2361 3.1 23.9961 2.86C23.7561 2.62 23.6361 2.31333 23.6361 1.94C23.6361 1.56667 23.7561 1.26 23.9961 1.02C24.2361 0.779999 24.5428 0.66 24.9161 0.66C25.3028 0.66 25.6094 0.779999 25.8361 1.02C26.0761 1.24667 26.1961 1.55333 26.1961 1.94C26.1961 2.31333 26.0761 2.62 25.8361 2.86C25.5961 3.1 25.2894 3.22 24.9161 3.22ZM21.8161 19.14C21.6828 19.14 21.6161 19.0733 21.6161 18.94V17.7C21.6161 17.5667 21.6828 17.5 21.8161 17.5C22.5761 17.5 23.1228 17.3467 23.4561 17.04C23.8028 16.7333 23.9761 16.2467 23.9761 15.58L23.9561 5.02C23.9561 4.88667 24.0228 4.82 24.1561 4.82H25.6761C25.8094 4.82 25.8761 4.88667 25.8761 5.02V15.56C25.8761 16.44 25.7428 17.14 25.4761 17.66C25.2094 18.18 24.7828 18.56 24.1961 18.8C23.6094 19.04 22.8161 19.1533 21.8161 19.14ZM37.097 8.64C37.1504 9.18667 37.1704 9.8 37.157 10.48C37.157 10.6133 37.0904 10.68 36.957 10.68H30.577C30.5237 10.68 30.497 10.7067 30.497 10.76C30.497 11.2133 30.537 11.56 30.617 11.8C30.7637 12.3333 31.057 12.7533 31.497 13.06C31.9504 13.3533 32.517 13.5 33.197 13.5C34.1837 13.5 34.9437 13.0933 35.477 12.28C35.5437 12.1467 35.6304 12.1267 35.737 12.22L36.877 12.98C36.9704 13.06 36.9904 13.1467 36.937 13.24C36.5637 13.84 36.0304 14.3133 35.337 14.66C34.657 15.0067 33.8837 15.18 33.017 15.18C32.0437 15.18 31.2237 14.9667 30.557 14.54C29.8904 14.1133 29.3904 13.5067 29.057 12.72C28.737 11.9333 28.577 10.98 28.577 9.86C28.577 8.88667 28.6504 8.14667 28.797 7.64C29.037 6.72 29.517 5.99333 30.237 5.46C30.957 4.92667 31.8304 4.66 32.857 4.66C34.2037 4.66 35.2104 5 35.877 5.68C36.5437 6.34667 36.9504 7.33333 37.097 8.64ZM32.857 6.32C32.2837 6.32 31.8104 6.46667 31.437 6.76C31.0637 7.04 30.8104 7.42 30.677 7.9C30.5837 8.19333 30.5237 8.56667 30.497 9.02C30.497 9.07333 30.5237 9.1 30.577 9.1H35.157C35.2104 9.1 35.237 9.07333 35.237 9.02C35.2104 8.58 35.1704 8.25333 35.117 8.04C34.9837 7.52 34.717 7.10667 34.317 6.8C33.9304 6.48 33.4437 6.32 32.857 6.32ZM44.4434 6.2C44.4434 6.33333 44.3768 6.4 44.2434 6.4H42.0834C42.0301 6.4 42.0034 6.42667 42.0034 6.48V11.78C42.0034 12.34 42.1301 12.7467 42.3834 13C42.6368 13.24 43.0301 13.36 43.5634 13.36H44.1434C44.2768 13.36 44.3434 13.4267 44.3434 13.56V14.8C44.3434 14.9333 44.2768 15 44.1434 15C43.7168 15.0267 43.4101 15.04 43.2234 15.04C42.2101 15.04 41.4434 14.86 40.9234 14.5C40.4168 14.1267 40.1634 13.4467 40.1634 12.46V6.48C40.1634 6.42667 40.1368 6.4 40.0834 6.4H38.8634C38.7301 6.4 38.6634 6.33333 38.6634 6.2V5.02C38.6634 4.88667 38.7301 4.82 38.8634 4.82H40.0834C40.1368 4.82 40.1634 4.79333 40.1634 4.74V2.38C40.1634 2.24667 40.2301 2.18 40.3634 2.18H41.8034C41.9368 2.18 42.0034 2.24667 42.0034 2.38V4.74C42.0034 4.79333 42.0301 4.82 42.0834 4.82H44.2434C44.3768 4.82 44.4434 4.88667 44.4434 5.02V6.2ZM47.9663 3.22C47.5929 3.22 47.2863 3.1 47.0463 2.86C46.8063 2.62 46.6863 2.31333 46.6863 1.94C46.6863 1.56667 46.8063 1.26 47.0463 1.02C47.2863 0.779999 47.5929 0.66 47.9663 0.66C48.3396 0.66 48.6463 0.779999 48.8863 1.02C49.1263 1.26 49.2463 1.56667 49.2463 1.94C49.2463 2.31333 49.1263 2.62 48.8863 2.86C48.6463 3.1 48.3396 3.22 47.9663 3.22ZM47.1663 14.98C47.0329 14.98 46.9663 14.9133 46.9663 14.78V5.02C46.9663 4.88667 47.0329 4.82 47.1663 4.82H48.6863C48.8196 4.82 48.8863 4.88667 48.8863 5.02V14.78C48.8863 14.9133 48.8196 14.98 48.6863 14.98H47.1663ZM54.5839 15C54.4639 15 54.3839 14.9467 54.3439 14.84L51.0839 5.04L51.0639 4.96C51.0639 4.86667 51.1239 4.82 51.2439 4.82H52.9239C53.0439 4.82 53.1239 4.87333 53.1639 4.98L55.3639 12.22C55.3772 12.2467 55.3972 12.26 55.4239 12.26C55.4506 12.26 55.4706 12.2467 55.4839 12.22L57.6639 4.98C57.7039 4.87333 57.7839 4.82 57.9039 4.82L59.5839 4.84C59.7306 4.84 59.7839 4.91333 59.7439 5.06L56.5039 14.84C56.4639 14.9467 56.3839 15 56.2639 15H54.5839ZM65.4389 15.16C64.4522 15.16 63.5922 14.9133 62.8589 14.42C62.1256 13.9133 61.6122 13.2133 61.3189 12.32C61.0789 11.6 60.9589 10.7867 60.9589 9.88C60.9589 8.93333 61.0722 8.13333 61.2989 7.48C61.5922 6.6 62.1056 5.91333 62.8389 5.42C63.5722 4.91333 64.4456 4.66 65.4589 4.66C66.4189 4.66 67.2522 4.91333 67.9589 5.42C68.6789 5.91333 69.1922 6.59333 69.4989 7.46C69.7389 8.14 69.8589 8.94 69.8589 9.86C69.8589 10.7933 69.7389 11.6133 69.4989 12.32C69.2056 13.2133 68.6989 13.9133 67.9789 14.42C67.2589 14.9133 66.4122 15.16 65.4389 15.16ZM65.4389 13.5C65.9722 13.5 66.4389 13.3533 66.8389 13.06C67.2389 12.7533 67.5256 12.3267 67.6989 11.78C67.8456 11.2733 67.9189 10.6467 67.9189 9.9C67.9189 9.15333 67.8522 8.53333 67.7189 8.04C67.5456 7.49333 67.2589 7.07333 66.8589 6.78C66.4589 6.47333 65.9722 6.32 65.3989 6.32C64.8522 6.32 64.3789 6.47333 63.9789 6.78C63.5789 7.07333 63.2922 7.49333 63.1189 8.04C62.9722 8.50667 62.8989 9.12667 62.8989 9.9C62.8989 10.6733 62.9722 11.3 63.1189 11.78C63.2789 12.3267 63.5589 12.7533 63.9589 13.06C64.3722 13.3533 64.8656 13.5 65.4389 13.5Z" fill="white"/>
</svg>
