<svg width="88" height="16" viewBox="0 0 88 16" fill="none" xmlns="http://www.w3.org/2000/svg">
<path d="M6.12 0.979999C6.93333 0.979999 7.64667 1.15333 8.26 1.5C8.88667 1.83333 9.36667 2.30667 9.7 2.92C10.0467 3.53333 10.22 4.24 10.22 5.04C10.22 5.84 10.0467 6.54 9.7 7.14C9.35333 7.74 8.86 8.20667 8.22 8.54C7.59333 8.87333 6.86667 9.04 6.04 9.04H2.52C2.46667 9.04 2.44 9.06667 2.44 9.12V14.8C2.44 14.9333 2.37333 15 2.24 15H0.72C0.586667 15 0.52 14.9333 0.52 14.8V1.18C0.52 1.04667 0.586667 0.979999 0.72 0.979999H6.12ZM5.86 7.48C6.59333 7.48 7.18 7.26 7.62 6.82C8.07333 6.38 8.3 5.8 8.3 5.08C8.3 4.34667 8.07333 3.76 7.62 3.32C7.18 2.86667 6.59333 2.64 5.86 2.64H2.52C2.46667 2.64 2.44 2.66667 2.44 2.72V7.4C2.44 7.45333 2.46667 7.48 2.52 7.48H5.86ZM16.7155 4.72C17.1421 4.72 17.5288 4.80667 17.8755 4.98C17.9688 5.02 18.0021 5.1 17.9755 5.22L17.6555 6.72C17.6421 6.84 17.5621 6.88 17.4155 6.84C17.1888 6.74667 16.9221 6.7 16.6155 6.7L16.3355 6.72C15.7088 6.74667 15.1888 6.96667 14.7755 7.38C14.3755 7.78 14.1755 8.30667 14.1755 8.96V14.8C14.1755 14.9333 14.1088 15 13.9755 15H12.4555C12.3221 15 12.2555 14.9333 12.2555 14.8V5.02C12.2555 4.88667 12.3221 4.82 12.4555 4.82H13.9755C14.1088 4.82 14.1755 4.88667 14.1755 5.02V6.08C14.1755 6.12 14.1821 6.14667 14.1955 6.16C14.2221 6.16 14.2421 6.14667 14.2555 6.12C14.8555 5.18667 15.6755 4.72 16.7155 4.72ZM27.7611 8.64C27.8144 9.18667 27.8344 9.8 27.8211 10.48C27.8211 10.6133 27.7544 10.68 27.6211 10.68H21.2411C21.1878 10.68 21.1611 10.7067 21.1611 10.76C21.1611 11.2133 21.2011 11.56 21.2811 11.8C21.4278 12.3333 21.7211 12.7533 22.1611 13.06C22.6144 13.3533 23.1811 13.5 23.8611 13.5C24.8478 13.5 25.6078 13.0933 26.1411 12.28C26.2078 12.1467 26.2944 12.1267 26.4011 12.22L27.5411 12.98C27.6344 13.06 27.6544 13.1467 27.6011 13.24C27.2278 13.84 26.6944 14.3133 26.0011 14.66C25.3211 15.0067 24.5478 15.18 23.6811 15.18C22.7078 15.18 21.8878 14.9667 21.2211 14.54C20.5544 14.1133 20.0544 13.5067 19.7211 12.72C19.4011 11.9333 19.2411 10.98 19.2411 9.86C19.2411 8.88667 19.3144 8.14667 19.4611 7.64C19.7011 6.72 20.1811 5.99333 20.9011 5.46C21.6211 4.92667 22.4944 4.66 23.5211 4.66C24.8678 4.66 25.8744 5 26.5411 5.68C27.2078 6.34667 27.6144 7.33333 27.7611 8.64ZM23.5211 6.32C22.9478 6.32 22.4744 6.46667 22.1011 6.76C21.7278 7.04 21.4744 7.42 21.3411 7.9C21.2478 8.19333 21.1878 8.56667 21.1611 9.02C21.1611 9.07333 21.1878 9.1 21.2411 9.1H25.8211C25.8744 9.1 25.9011 9.07333 25.9011 9.02C25.8744 8.58 25.8344 8.25333 25.7811 8.04C25.6478 7.52 25.3811 7.10667 24.9811 6.8C24.5944 6.48 24.1078 6.32 23.5211 6.32ZM36.5638 1.2C36.5638 1.06667 36.6304 0.999999 36.7638 0.999999H38.2838C38.4171 0.999999 38.4838 1.06667 38.4838 1.2V14.8C38.4838 14.9333 38.4171 15 38.2838 15H36.7638C36.6304 15 36.5638 14.9333 36.5638 14.8V14.14C36.5638 14.1133 36.5504 14.0933 36.5238 14.08C36.5104 14.0667 36.4904 14.0733 36.4638 14.1C36.1704 14.4333 35.8238 14.6933 35.4238 14.88C35.0238 15.0667 34.5904 15.16 34.1237 15.16C33.1638 15.16 32.3638 14.9267 31.7238 14.46C31.0971 13.98 30.6371 13.3067 30.3438 12.44C30.0904 11.7333 29.9638 10.88 29.9638 9.88C29.9638 8.94667 30.0704 8.14 30.2838 7.46C30.5638 6.58 31.0238 5.89333 31.6638 5.4C32.3038 4.90667 33.1238 4.66 34.1237 4.66C34.5771 4.66 35.0038 4.75333 35.4038 4.94C35.8171 5.11333 36.1704 5.36667 36.4638 5.7C36.4904 5.72667 36.5104 5.73333 36.5238 5.72C36.5504 5.70667 36.5638 5.68667 36.5638 5.66V1.2ZM36.0638 12.42C36.3704 11.86 36.5238 11.02 36.5238 9.9C36.5238 8.78 36.3571 7.92667 36.0238 7.34C35.6371 6.66 35.0704 6.32 34.3238 6.32C33.5238 6.32 32.9304 6.64 32.5438 7.28C32.1171 7.94667 31.9038 8.82667 31.9038 9.92C31.9038 10.9467 32.0704 11.7733 32.4038 12.4C32.7904 13.1333 33.4238 13.5 34.3038 13.5C35.0771 13.5 35.6638 13.14 36.0638 12.42ZM42.4584 3.22C42.0851 3.22 41.7784 3.1 41.5384 2.86C41.2984 2.62 41.1784 2.31333 41.1784 1.94C41.1784 1.56667 41.2984 1.26 41.5384 1.02C41.7784 0.779999 42.0851 0.66 42.4584 0.66C42.8318 0.66 43.1384 0.779999 43.3784 1.02C43.6184 1.26 43.7384 1.56667 43.7384 1.94C43.7384 2.31333 43.6184 2.62 43.3784 2.86C43.1384 3.1 42.8318 3.22 42.4584 3.22ZM41.6584 14.98C41.5251 14.98 41.4584 14.9133 41.4584 14.78V5.02C41.4584 4.88667 41.5251 4.82 41.6584 4.82H43.1784C43.3118 4.82 43.3784 4.88667 43.3784 5.02V14.78C43.3784 14.9133 43.3118 14.98 43.1784 14.98H41.6584ZM50.4761 15.16C49.4628 15.16 48.5961 14.9067 47.8761 14.4C47.1561 13.88 46.6628 13.18 46.3961 12.3C46.1961 11.6867 46.0961 10.88 46.0961 9.88C46.0961 8.96 46.1961 8.15333 46.3961 7.46C46.6628 6.60667 47.1561 5.92667 47.8761 5.42C48.6094 4.91333 49.4761 4.66 50.4761 4.66C51.4761 4.66 52.3494 4.91333 53.0961 5.42C53.8428 5.92667 54.3294 6.56667 54.5561 7.34C54.6361 7.55333 54.6894 7.77333 54.7161 8C54.7161 8.10667 54.6561 8.17333 54.5361 8.2L53.0361 8.42H52.9961C52.9028 8.42 52.8361 8.36 52.7961 8.24L52.7361 7.92C52.6294 7.46667 52.3694 7.08667 51.9561 6.78C51.5428 6.47333 51.0428 6.32 50.4561 6.32C49.8828 6.32 49.3961 6.47333 48.9961 6.78C48.5961 7.08667 48.3361 7.49333 48.2161 8C48.0961 8.48 48.0361 9.11333 48.0361 9.9C48.0361 10.6733 48.0961 11.3 48.2161 11.78C48.3494 12.3133 48.6094 12.7333 48.9961 13.04C49.3961 13.3467 49.8828 13.5 50.4561 13.5C51.0428 13.5 51.5428 13.3467 51.9561 13.04C52.3828 12.7333 52.6494 12.3333 52.7561 11.84C52.7694 11.8267 52.7694 11.8133 52.7561 11.8C52.7561 11.7733 52.7628 11.7533 52.7761 11.74V11.66C52.8161 11.5533 52.8894 11.5133 52.9961 11.54L54.4961 11.78C54.6028 11.8067 54.6561 11.86 54.6561 11.94V12.02C54.6561 12.14 54.6228 12.2867 54.5561 12.46C54.3294 13.2733 53.8428 13.9267 53.0961 14.42C52.3494 14.9133 51.4761 15.16 50.4761 15.16ZM61.9434 6.2C61.9434 6.33333 61.8768 6.4 61.7434 6.4H59.5834C59.5301 6.4 59.5034 6.42667 59.5034 6.48V11.78C59.5034 12.34 59.6301 12.7467 59.8834 13C60.1368 13.24 60.5301 13.36 61.0634 13.36H61.6434C61.7768 13.36 61.8434 13.4267 61.8434 13.56V14.8C61.8434 14.9333 61.7768 15 61.6434 15C61.2168 15.0267 60.9101 15.04 60.7234 15.04C59.7101 15.04 58.9434 14.86 58.4234 14.5C57.9168 14.1267 57.6634 13.4467 57.6634 12.46V6.48C57.6634 6.42667 57.6368 6.4 57.5834 6.4H56.3634C56.2301 6.4 56.1634 6.33333 56.1634 6.2V5.02C56.1634 4.88667 56.2301 4.82 56.3634 4.82H57.5834C57.6368 4.82 57.6634 4.79333 57.6634 4.74V2.38C57.6634 2.24667 57.7301 2.18 57.8634 2.18H59.3034C59.4368 2.18 59.5034 2.24667 59.5034 2.38V4.74C59.5034 4.79333 59.5301 4.82 59.5834 4.82H61.7434C61.8768 4.82 61.9434 4.88667 61.9434 5.02V6.2ZM65.4663 3.22C65.0929 3.22 64.7863 3.1 64.5463 2.86C64.3063 2.62 64.1863 2.31333 64.1863 1.94C64.1863 1.56667 64.3063 1.26 64.5463 1.02C64.7863 0.779999 65.0929 0.66 65.4663 0.66C65.8396 0.66 66.1463 0.779999 66.3863 1.02C66.6263 1.26 66.7463 1.56667 66.7463 1.94C66.7463 2.31333 66.6263 2.62 66.3863 2.86C66.1463 3.1 65.8396 3.22 65.4663 3.22ZM64.6663 14.98C64.5329 14.98 64.4663 14.9133 64.4663 14.78V5.02C64.4663 4.88667 64.5329 4.82 64.6663 4.82H66.1863C66.3196 4.82 66.3863 4.88667 66.3863 5.02V14.78C66.3863 14.9133 66.3196 14.98 66.1863 14.98H64.6663ZM72.0839 15C71.9639 15 71.8839 14.9467 71.8439 14.84L68.5839 5.04L68.5639 4.96C68.5639 4.86667 68.6239 4.82 68.7439 4.82H70.4239C70.5439 4.82 70.6239 4.87333 70.6639 4.98L72.8639 12.22C72.8772 12.2467 72.8972 12.26 72.9239 12.26C72.9506 12.26 72.9706 12.2467 72.9839 12.22L75.1639 4.98C75.2039 4.87333 75.2839 4.82 75.4039 4.82L77.0839 4.84C77.2306 4.84 77.2839 4.91333 77.2439 5.06L74.0039 14.84C73.9639 14.9467 73.8839 15 73.7639 15H72.0839ZM82.9389 15.16C81.9522 15.16 81.0922 14.9133 80.3589 14.42C79.6256 13.9133 79.1122 13.2133 78.8189 12.32C78.5789 11.6 78.4589 10.7867 78.4589 9.88C78.4589 8.93333 78.5722 8.13333 78.7989 7.48C79.0922 6.6 79.6056 5.91333 80.3389 5.42C81.0722 4.91333 81.9456 4.66 82.9589 4.66C83.9189 4.66 84.7522 4.91333 85.4589 5.42C86.1789 5.91333 86.6922 6.59333 86.9989 7.46C87.2389 8.14 87.3589 8.94 87.3589 9.86C87.3589 10.7933 87.2389 11.6133 86.9989 12.32C86.7056 13.2133 86.1989 13.9133 85.4789 14.42C84.7589 14.9133 83.9122 15.16 82.9389 15.16ZM82.9389 13.5C83.4722 13.5 83.9389 13.3533 84.3389 13.06C84.7389 12.7533 85.0256 12.3267 85.1989 11.78C85.3456 11.2733 85.4189 10.6467 85.4189 9.9C85.4189 9.15333 85.3522 8.53333 85.2189 8.04C85.0456 7.49333 84.7589 7.07333 84.3589 6.78C83.9589 6.47333 83.4722 6.32 82.8989 6.32C82.3522 6.32 81.8789 6.47333 81.4789 6.78C81.0789 7.07333 80.7922 7.49333 80.6189 8.04C80.4722 8.50667 80.3989 9.12667 80.3989 9.9C80.3989 10.6733 80.4722 11.3 80.6189 11.78C80.7789 12.3267 81.0589 12.7533 81.4589 13.06C81.8722 13.3533 82.3656 13.5 82.9389 13.5Z" fill="white"/>
</svg>
