<svg width="79" height="80" viewBox="0 0 79 80" fill="none" xmlns="http://www.w3.org/2000/svg">
<path d="M1.65622 77.3438C3.11456 79.1146 4.88539 80 6.96872 80H71.3437C73.6354 80 75.4062 79.1146 76.6562 77.3438C78.1146 75.4688 78.4271 73.4896 77.5937 71.4062L56.3437 4.6875C55.1979 1.5625 53.0625 0 49.9375 0H28.0625C26.7083 0 25.4062 0.442708 24.1562 1.32812C22.9062 2.21354 22.0729 3.33333 21.6562 4.6875L0.406223 71.4062C-0.11461 73.4896 0.302056 75.4688 1.65622 77.3438ZM28.0625 6.71875H35.7187V16.7188C35.7187 18.9062 36.8125 20 39 20C41.1875 20 42.2812 18.9062 42.2812 16.7188V6.71875H49.9375L71.3437 73.2812H45.7187V60C45.7187 57.8125 44.5729 56.7188 42.2812 56.7188H35.7187C33.4271 56.7188 32.2812 57.8125 32.2812 60V73.2812H6.96872L28.0625 6.71875ZM36.3437 46.7188H41.6562C42.6979 46.7188 43.5573 46.3021 44.2344 45.4688C44.9114 44.6354 45.1458 43.6979 44.9375 42.6562L42.5937 29.375C42.2812 27.6042 41.1875 26.7188 39.3125 26.7188H38.375C36.7083 26.7188 35.5625 27.6042 34.9375 29.375L32.5937 42.6562C32.5937 43.6979 32.9583 44.6354 33.6875 45.4688C34.4166 46.3021 35.3021 46.7188 36.3437 46.7188Z" fill="#F6871F"/>
</svg>
