<?xml version="1.0" encoding="utf-8"?>
<!-- Generator: Adobe Illustrator 24.1.2, SVG Export Plug-In . SVG Version: 6.00 Build 0)  -->
<svg version="1.1" id="Capa_1" xmlns="http://www.w3.org/2000/svg" xmlns:xlink="http://www.w3.org/1999/xlink" x="0px" y="0px"
	 viewBox="0 0 480 160" style="enable-background:new 0 0 480 160;" xml:space="preserve">
<style type="text/css">
	.st0{fill:#FFFFFF;}
	.st1{fill:url(#SVGID_1_);}
	.st2{fill:url(#SVGID_2_);}
	.st3{fill:url(#SVGID_3_);}
</style>
<polygon class="st0" points="-261.4,-851.1 -261.4,-851 -261.4,-851 "/>
<g>
	
		<image style="overflow:visible;opacity:0.75;" width="146" height="140" xlink:href="3BC5FEAF.png"  transform="matrix(1 0 0 1 7 -18)">
	</image>
	<g>
		<g>
			<g>
				<linearGradient id="SVGID_1_" gradientUnits="userSpaceOnUse" x1="67.1835" y1="52.0044" x2="92.1135" y2="52.0044">
					<stop  offset="0.3794" style="stop-color:#FE9310"/>
					<stop  offset="1" style="stop-color:#FE9310"/>
				</linearGradient>
				<path class="st1" d="M92.1,51.4c-1.3-0.2-2.5-0.4-3.7-0.6l0-0.1c-3.2-0.4-5.9-0.5-8-0.5H80c-2.1,0-4.7,0.1-7.8,0.5l-2.5,10.9
					c-0.1-0.1-0.2-0.2-0.3-0.3l2.4-10.6c-1.5,0.2-3,0.4-4.7,0.8c0.5-2.5,1.6-4.8,3.5-6.7c1.4-1.4,13-4.9,17.9,0
					C90.5,46.7,91.6,49,92.1,51.4z"/>
			</g>
		</g>
	</g>
</g>
<g>
	
		<image style="overflow:visible;opacity:0.75;" width="149" height="143" xlink:href="3BC5FEAD.png"  transform="matrix(1 0 0 1 166 -23)">
	</image>
	<g>
		<g>
			<g>
				<linearGradient id="SVGID_2_" gradientUnits="userSpaceOnUse" x1="226.5052" y1="48.4559" x2="254.6304" y2="48.4559">
					<stop  offset="0.3794" style="stop-color:#FE9310"/>
					<stop  offset="1" style="stop-color:#FE9310"/>
				</linearGradient>
				<path class="st2" d="M254.6,51.9c-2.3-0.5-4.5-0.9-6.5-1.2l0.9,4.1l-0.9-4l0-0.1c-3.2-0.4-5.9-0.5-8-0.5h-0.4
					c-2.1,0-4.7,0.1-7.8,0.5l-2,8.9l2-8.9c-1.7,0.2-3.4,0.5-5.3,0.9c-0.3-3.9-0.3-6.6,2.7-9.6c5.5-5.5,15.7-6.8,21.2-1.3
					C253.6,43.8,254.9,47.9,254.6,51.9z"/>
			</g>
		</g>
	</g>
</g>
<g>
	
		<image style="overflow:visible;opacity:0.75;" width="150" height="144" xlink:href="3BC5FEB3.png"  transform="matrix(1 0 0 1 325 -26)">
	</image>
	<g>
		<g>
			<g>
				<linearGradient id="SVGID_3_" gradientUnits="userSpaceOnUse" x1="385.9822" y1="45.9925" x2="414.0178" y2="45.9925">
					<stop  offset="0.3794" style="stop-color:#FE9310"/>
					<stop  offset="1" style="stop-color:#FE9310"/>
				</linearGradient>
				<path class="st3" d="M413.5,51.7c-1.9-0.4-3.8-0.7-5.5-0.9l0,0c-3.2-0.4-5.9-0.5-8-0.5h-0.4c-2.1,0-4.7,0.1-7.8,0.5l-1.6,7.2
					l1.6-7.2c-1.7,0.2-3.5,0.5-5.4,0.9c-1.2-4.7,0-9.8,3.6-13.5c5.5-5.5,14.4-5.5,19.8,0C413.6,41.8,414.8,47,413.5,51.7z"/>
			</g>
		</g>
	</g>
</g>
</svg>
