<?xml version="1.0" encoding="utf-8"?>
<!-- Generator: Adobe Illustrator 24.1.2, SVG Export Plug-In . SVG Version: 6.00 Build 0)  -->
<svg version="1.1" id="Capa_1" xmlns="http://www.w3.org/2000/svg" xmlns:xlink="http://www.w3.org/1999/xlink" x="0px" y="0px"
	 viewBox="0 0 480 160" style="enable-background:new 0 0 480 160;" xml:space="preserve">
<style type="text/css">
	.st0{fill:#FFFFFF;}
</style>
<polygon class="st0" points="-261.4,-851.1 -261.4,-851 -261.4,-851 "/>
<g>
	<path class="st0" d="M80,129.2L80,129.2 M84.2,123.8h-8.3l-0.1,2.5l0,0.1c1.6,1,3.1,1.9,4.3,2.7h0c0,0,0.1,0,0.1-0.1
		c1.2-0.7,2.6-1.6,4.2-2.6L84.2,123.8z M82.6,96.8h-5.3l-0.8,13.5h6.8L82.6,96.8z M80,50.3l-0.3,5.9h0.7L80,50.3z M81.1,69.7h-2.2
		l-0.8,13.5h3.7L81.1,69.7z M80.1,129.1c0,0-0.1,0-0.1,0.1h0c-1.3-0.7-2.7-1.6-4.3-2.7v0.1c1.6,1,3,1.9,4.3,2.7h0
		C80.1,129.2,80.1,129.2,80.1,129.1c1.3-0.7,2.7-1.5,4.2-2.5v-0.1C82.8,127.5,81.4,128.4,80.1,129.1z M113.4,59.8l-1.6-1
		c-0.9-0.5-1.8-1-2.7-1.5c-6.1-3.2-11.9-4.9-17-5.9c-1.3-0.2-2.5-0.4-3.7-0.6c-0.1,0-0.2,0-0.3,0l2.2,9.9l11.5,51.6
		c0.1-0.1,0.3-0.3,0.4-0.4c7-7.1,11.7-14,14.9-19.4c0,0,2.1-2.6,5-10.2c2-5,3.1-9.1,3.6-12.4C122.9,66.9,118.9,63.1,113.4,59.8z
		 M67.2,51.5c-4.9,1-10.5,2.7-16.3,5.7c-0.9,0.5-1.8,1-2.7,1.5l-1.5,0.9c-5.5,3.4-9.6,7.2-12.4,10.2c0.6,3.3,1.7,7.5,3.7,12.5
		c0,0,2.4,5.8,5.1,10.2c3.2,5.5,8.1,12.5,15.2,19.7l11.3-50.9l2.4-10.6C70.4,51,68.8,51.2,67.2,51.5z M113.4,59.8l-1.6-1
		c-0.9-0.5-1.8-1-2.7-1.5c-6.1-3.2-11.9-4.9-17-5.9c-1.3-0.2-2.5-0.4-3.7-0.6c-0.1,0-0.2,0-0.3,0l2.2,9.9l11.5,51.6
		c0.1-0.1,0.3-0.3,0.4-0.4c7-7.1,11.7-14,14.9-19.4c0,0,2.1-2.6,5-10.2c2-5,3.1-9.1,3.6-12.4C122.9,66.9,118.9,63.1,113.4,59.8z
		 M75.8,123.8l-0.1,2.5l0,0.1v0.1c1.6,1,3,1.9,4.3,2.7h0c0.1,0,0.1-0.1,0.2-0.1c1.2-0.7,2.6-1.6,4.1-2.6v-0.1l-0.2-2.7H75.8z
		 M82.6,96.8h-5.3l-0.8,13.5h6.8L82.6,96.8z M81.1,69.7h-2.2l-0.8,13.5h3.7L81.1,69.7z M80,50.3l-0.3,5.9h0.7L80,50.3z M50.9,57.3
		c-0.9,0.5-1.8,1-2.7,1.5l-1.5,0.9c-5.5,3.4-9.6,7.2-12.4,10.2c0.6,3.3,1.7,7.5,3.7,12.5c0,0,2.4,5.8,5.1,10.2
		c3.2,5.5,8.1,12.5,15.2,19.7l11.3-50.9l2.4-10.6c-1.5,0.2-3,0.4-4.7,0.8C62.3,52.5,56.7,54.2,50.9,57.3z M135.6,47.6
		c-0.4-1.6-1.3-3.2-2.4-4.3c-5.7-6.3-12.4-11.4-19.8-15.3c-10.1-5.2-21.5-8-33-8h-0.6c-11.5,0-23,2.8-33,8c-7.4,3.9-14.1,9-19.6,15
		c-1.3,1.2-2.2,2.8-2.7,4.5c-1.2,4.5-1.8,9.2-1.9,13.9c-0.1,7.7,1.6,15.7,5.2,24.7c2.9,7.1,11.8,25.4,31.8,41.8
		c4.9,4,10.1,7.6,15.6,10.8c1.5,0.8,3.1,1.3,4.8,1.3c1.7,0,3.3-0.4,4.8-1.3c5.5-3.1,10.7-6.8,15.6-10.8
		c20.1-16.4,28.9-34.7,31.8-41.8c3.6-8.9,5.3-17,5.2-24.6C137.4,56.8,136.8,52.1,135.6,47.6z M125.4,83.9
		c-2.6,6.5-10.7,23.2-29.2,38.3c-4.5,3.7-9.3,7-14.4,10c-1.2,0.6-2.6,0.6-3.8,0c-5.1-2.9-9.9-6.3-14.4-10
		c-18.4-15.1-26.6-31.8-29.2-38.3c-3.2-8-4.8-15.1-4.7-21.8c0.1-4,0.6-8.1,1.7-12.1c0.2-0.7,0.6-1.3,1.2-1.9
		c5.1-5.6,11-10.1,17.6-13.5c9-4.7,19.2-7.1,29.5-7.1v0h0.5c10.3,0,20.5,2.4,29.5,7.1c6.6,3.4,12.6,8,17.8,13.7
		c0.5,0.5,0.8,1.1,1,1.7c1.1,4,1.6,8.1,1.6,12.1C130.2,68.8,128.6,75.9,125.4,83.9z M113.4,59.8l-1.6-1c-0.9-0.5-1.8-1-2.7-1.5
		c-6.1-3.2-11.9-4.9-17-5.9c-1.3-0.2-2.5-0.4-3.7-0.6c-0.1,0-0.2,0-0.3,0l2.2,9.9l11.5,51.6c0.1-0.1,0.3-0.3,0.4-0.4
		c7-7.1,11.7-14,14.9-19.4c0,0,2.1-2.6,5-10.2c2-5,3.1-9.1,3.6-12.4C122.9,66.9,118.9,63.1,113.4,59.8z M75.8,123.8l-0.1,2.5l0,0.1
		v0.1c1.6,1,3,1.9,4.3,2.7h0c0.1,0,0.1-0.1,0.2-0.1c1.2-0.7,2.6-1.6,4.1-2.6v-0.1l-0.2-2.7H75.8z M82.6,96.8h-5.3l-0.8,13.5h6.8
		L82.6,96.8z M81.1,69.7h-2.2l-0.8,13.5h3.7L81.1,69.7z M80,50.3l-0.3,5.9h0.7L80,50.3z M50.9,57.3c-0.9,0.5-1.8,1-2.7,1.5l-1.5,0.9
		c-5.5,3.4-9.6,7.2-12.4,10.2c0.6,3.3,1.7,7.5,3.7,12.5c0,0,2.4,5.8,5.1,10.2c3.2,5.5,8.1,12.5,15.2,19.7l11.3-50.9l2.4-10.6
		c-1.5,0.2-3,0.4-4.7,0.8C62.3,52.5,56.7,54.2,50.9,57.3z"/>
</g>
<g>
	<path class="st0" d="M273.4,59.8l-1.6-1c-0.9-0.5-1.8-1-2.7-1.5c-5.1-2.7-10.1-4.3-14.5-5.3c-2.3-0.5-4.5-0.9-6.5-1.2l0.9,4.1
		l1.3,5.9l11.5,51.6c0,0,0.1-0.1,0.1-0.1c7.1-7.2,12-14.2,15.2-19.7c0,0,2.1-2.6,5-10.2c2-5,3.1-9.1,3.6-12.4
		C282.9,66.9,278.9,63.1,273.4,59.8z M226.6,51.7c-4.8,1-10.2,2.7-15.7,5.6c-0.9,0.5-1.8,1-2.7,1.5l-1.5,0.9
		c-5.5,3.4-9.6,7.2-12.4,10.2c0.6,3.3,1.7,7.5,3.7,12.5c0,0,2.4,5.8,5.1,10.2c3.2,5.4,8,12.4,15,19.5c0,0,0.1,0.1,0.1,0.1l11.3-50.6
		l0.5-2.1l2-8.9C230.2,51,228.5,51.3,226.6,51.7z M273.4,59.8l-1.6-1c-0.9-0.5-1.8-1-2.7-1.5c-5.1-2.7-10.1-4.3-14.5-5.3
		c-2.3-0.5-4.5-0.9-6.5-1.2l0.9,4.1l1.3,5.9l11.5,51.6c0,0,0.1-0.1,0.1-0.1c7.1-7.2,12-14.2,15.2-19.7c0,0,2.1-2.6,5-10.2
		c2-5,3.1-9.1,3.6-12.4C282.9,66.9,278.9,63.1,273.4,59.8z M237.4,105.4l-0.6,12h6.4l-0.6-12H237.4z M241.3,82.9h-2.5l-0.7,12h3.8
		L241.3,82.9z M240.3,64.7l-0.3-4.9l-0.3,4.9l-0.3,6.3h1.2L240.3,64.7z M210.9,57.3c-0.9,0.5-1.8,1-2.7,1.5l-1.5,0.9
		c-5.5,3.4-9.6,7.2-12.4,10.2c0.6,3.3,1.7,7.5,3.7,12.5c0,0,2.4,5.8,5.1,10.2c3.2,5.4,8,12.4,15,19.5c0,0,0.1,0.1,0.1,0.1l11.3-50.6
		l0.5-2.1l2-8.9c-1.7,0.2-3.4,0.5-5.3,0.9C221.8,52.7,216.5,54.4,210.9,57.3z M295.6,47.6c-0.4-1.6-1.3-3.2-2.4-4.3
		c-5.7-6.3-12.4-11.4-19.8-15.3c-10.1-5.2-21.5-8-33-8h-0.6c-11.5,0-23,2.8-33,8c-7.4,3.9-14.1,9-19.6,15c-1.3,1.2-2.2,2.8-2.7,4.5
		c-1.2,4.5-1.8,9.2-1.9,13.9c-0.1,7.7,1.6,15.7,5.2,24.7c2.9,7.1,11.8,25.4,31.8,41.8c4.9,4,10.1,7.6,15.6,10.8
		c1.5,0.8,3.1,1.3,4.8,1.3c1.7,0,3.3-0.4,4.8-1.3c5.5-3.1,10.7-6.8,15.6-10.8c20.1-16.4,28.9-34.7,31.8-41.8
		c3.6-8.9,5.3-17,5.2-24.6C297.4,56.8,296.8,52.1,295.6,47.6z M285.4,83.9c-2.6,6.5-10.7,23.2-29.2,38.3c-4.5,3.7-9.3,7-14.4,10
		c-1.2,0.6-2.6,0.6-3.8,0c-5.1-2.9-9.9-6.3-14.4-10c-18.4-15.1-26.5-31.8-29.2-38.3c-3.2-8-4.8-15.1-4.7-21.8
		c0.1-4,0.6-8.1,1.6-12.1c0.2-0.7,0.6-1.3,1.2-1.9c5.1-5.6,11-10.1,17.6-13.5c9-4.7,19.2-7.1,29.5-7.1v0h0.5
		c10.3,0,20.5,2.4,29.5,7.1c6.6,3.4,12.6,8,17.8,13.7c0.5,0.5,0.8,1.1,1,1.7c1.1,4,1.6,8.1,1.7,12.1
		C290.2,68.8,288.6,75.9,285.4,83.9z M273.4,59.8l-1.6-1c-0.9-0.5-1.8-1-2.7-1.5c-5.1-2.7-10.1-4.3-14.5-5.3
		c-2.3-0.5-4.5-0.9-6.5-1.2l0.9,4.1l1.3,5.9l11.5,51.6c0,0,0.1-0.1,0.1-0.1c7.1-7.2,12-14.2,15.2-19.7c0,0,2.1-2.6,5-10.2
		c2-5,3.1-9.1,3.6-12.4C282.9,66.9,278.9,63.1,273.4,59.8z M237.4,105.4l-0.6,12h6.4l-0.6-12H237.4z M241.3,82.9h-2.5l-0.7,12h3.8
		L241.3,82.9z M240.3,64.7l-0.3-4.9l-0.3,4.9l-0.3,6.3h1.2L240.3,64.7z M210.9,57.3c-0.9,0.5-1.8,1-2.7,1.5l-1.5,0.9
		c-5.5,3.4-9.6,7.2-12.4,10.2c0.6,3.3,1.7,7.5,3.7,12.5c0,0,2.4,5.8,5.1,10.2c3.2,5.4,8,12.4,15,19.5c0,0,0.1,0.1,0.1,0.1l11.3-50.6
		l0.5-2.1l2-8.9c-1.7,0.2-3.4,0.5-5.3,0.9C221.8,52.7,216.5,54.4,210.9,57.3z M240.3,64.7l-0.3-4.9l-0.3,4.9l-0.3,6.3h1.2
		L240.3,64.7z M241.3,82.9h-2.5l-0.7,12h3.8L241.3,82.9z M242.6,105.4h-5.1l-0.6,12h6.4L242.6,105.4z"/>
</g>
<g>
	<path class="st0" d="M433.4,59.8l-1.6-1c-0.9-0.5-1.8-1-2.7-1.5c-5.5-2.9-10.8-4.6-15.6-5.6c-1.9-0.4-3.8-0.7-5.5-0.9v0l0.9,4
		l0.8,3.4l12.1,54.1l0.1-0.1c7.1-7.2,12-14.2,15.2-19.7c0,0,2.1-2.6,5-10.2c2-5,3.1-9.1,3.6-12.4C442.9,66.9,438.9,63.1,433.4,59.8z
		 M386.5,51.7c-4.7,1-10.1,2.7-15.6,5.6c-0.9,0.5-1.8,1-2.7,1.5l-1.5,0.9c-5.5,3.4-9.6,7.2-12.4,10.2c0.6,3.3,1.7,7.5,3.7,12.5
		c0,0,2.4,5.8,5.1,10.2c3.2,5.4,8,12.4,15,19.5c0,0,0.1,0.1,0.1,0.1l11.7-52.7l0.3-1.5h0l0-0.2l1.6-7.2
		C390.2,51,388.4,51.3,386.5,51.7z M433.4,59.8l-1.6-1c-0.9-0.5-1.8-1-2.7-1.5c-5.5-2.9-10.8-4.6-15.6-5.6c-1.9-0.4-3.8-0.7-5.5-0.9
		v0l0.9,4l0.8,3.4l12.1,54.1l0.1-0.1c7.1-7.2,12-14.2,15.2-19.7c0,0,2.1-2.6,5-10.2c2-5,3.1-9.1,3.6-12.4
		C442.9,66.9,438.9,63.1,433.4,59.8z M397.4,117.1l-0.6,9.9c1.2,0.7,2.3,1.4,3.2,1.9h0c0.9-0.6,2-1.2,3.2-1.9l-0.6-10H397.4z
		 M401.1,90.1l-2.2,0l-0.8,13.5h3.7L401.1,90.1z M400,67.9l-0.6,11.2h1.2L400,67.9z M400,52.5l-0.3,6h0.7L400,52.5z M370.9,57.3
		c-0.9,0.5-1.8,1-2.7,1.5l-1.5,0.9c-5.5,3.4-9.6,7.2-12.4,10.2c0.6,3.3,1.7,7.5,3.7,12.5c0,0,2.4,5.8,5.1,10.2
		c3.2,5.4,8,12.4,15,19.5c0,0,0.1,0.1,0.1,0.1l11.7-52.7l0.3-1.5h0l0-0.2l1.6-7.2c-1.7,0.2-3.5,0.5-5.4,0.9
		C381.7,52.7,376.4,54.4,370.9,57.3z M455.6,47.6c-0.4-1.6-1.3-3.2-2.4-4.3c-5.7-6.3-12.4-11.4-19.8-15.3c-10.1-5.2-21.5-8-33-8
		h-0.6c-11.6,0-23,2.8-33.1,8c-7.4,3.9-14.1,9-19.6,15c-1.3,1.2-2.2,2.8-2.7,4.5c-1.2,4.5-1.8,9.2-1.9,13.9
		c-0.1,7.7,1.6,15.7,5.3,24.7c2.9,7.1,11.8,25.4,31.8,41.8c4.9,4,10.1,7.6,15.6,10.8c1.5,0.8,3.1,1.3,4.8,1.3s3.3-0.4,4.8-1.3
		c5.5-3.1,10.7-6.8,15.6-10.8c20.1-16.4,28.9-34.7,31.8-41.8c3.6-8.9,5.3-17,5.3-24.6C457.4,56.8,456.8,52.1,455.6,47.6z
		 M445.4,83.9c-2.6,6.5-10.7,23.2-29.2,38.3c-4.5,3.7-9.3,7-14.4,10c-1.2,0.6-2.6,0.6-3.8,0c-5.1-2.9-9.9-6.3-14.4-10
		c-18.4-15.1-26.5-31.8-29.2-38.3c-3.2-8-4.8-15.1-4.7-21.8c0-4,0.6-8.1,1.6-12.1c0.2-0.7,0.6-1.3,1.2-1.9
		c5.1-5.6,10.9-10.1,17.6-13.5c9-4.7,19.2-7.1,29.5-7.1v0h0.5c10.3,0,20.5,2.4,29.5,7.1c6.7,3.4,12.6,8,17.8,13.7
		c0.5,0.5,0.8,1.1,1,1.7c1.1,4,1.6,8.1,1.6,12.1C450.2,68.8,448.6,75.9,445.4,83.9z M433.4,59.8l-1.6-1c-0.9-0.5-1.8-1-2.7-1.5
		c-5.5-2.9-10.8-4.6-15.6-5.6c-1.9-0.4-3.8-0.7-5.5-0.9v0l0.9,4l0.8,3.4l12.1,54.1l0.1-0.1c7.1-7.2,12-14.2,15.2-19.7
		c0,0,2.1-2.6,5-10.2c2-5,3.1-9.1,3.6-12.4C442.9,66.9,438.9,63.1,433.4,59.8z M397.4,117.1l-0.6,9.9c1.2,0.7,2.3,1.4,3.2,1.9h0
		c0.9-0.6,2-1.2,3.2-1.9l-0.6-10H397.4z M401.1,90.1l-2.2,0l-0.8,13.5h3.7L401.1,90.1z M400,67.9l-0.6,11.2h1.2L400,67.9z M400,52.5
		l-0.3,6h0.7L400,52.5z M370.9,57.3c-0.9,0.5-1.8,1-2.7,1.5l-1.5,0.9c-5.5,3.4-9.6,7.2-12.4,10.2c0.6,3.3,1.7,7.5,3.7,12.5
		c0,0,2.4,5.8,5.1,10.2c3.2,5.4,8,12.4,15,19.5c0,0,0.1,0.1,0.1,0.1l11.7-52.7l0.3-1.5h0l0-0.2l1.6-7.2c-1.7,0.2-3.5,0.5-5.4,0.9
		C381.7,52.7,376.4,54.4,370.9,57.3z M401.1,90.1l-2.2,0l-0.8,13.5h3.7L401.1,90.1z M400,67.9l-0.6,11.2h1.2L400,67.9z M400,52.5
		l-0.3,6h0.7L400,52.5z M402.6,117.1h-5.3l-0.6,9.9c1.2,0.7,2.3,1.4,3.2,1.9h0c0.9-0.6,2-1.2,3.2-1.9L402.6,117.1z"/>
</g>
</svg>
